<?xml version="1.0" encoding="UTF-8"?>
<!DOCTYPE svg PUBLIC "-//W3C//DTD SVG 1.1//EN" "http://www.w3.org/Graphics/SVG/1.1/DTD/svg11.dtd">
<svg xmlns="http://www.w3.org/2000/svg" xml:space="preserve" width="42.3333mm" height="42.3333mm" version="1.1" style="shape-rendering:geometricPrecision; text-rendering:geometricPrecision; image-rendering:optimizeQuality; fill-rule:evenodd; clip-rule:evenodd"
viewBox="0 0 2963 2963"
 xmlns:xlink="http://www.w3.org/1999/xlink">
 <g>
  <g>
   <path d="M624 2473c0,-21 17,-38 38,-38 21,0 38,17 38,38l0 221 673 0 144 -763 0 0c2,-14 13,-26 27,-30 20,-5 41,7 46,27l199 766 558 0 177 -969c-172,-83 -302,-208 -352,-407 -49,-196 -17,-465 135,-836l-778 -205c-60,156 -145,288 -265,387 -128,106 -294,175 -508,196l0 -1 -4 1 -52 -1 0 207c0,21 -17,38 -38,38 -21,0 -38,-17 -38,-38l0 -207 -190 -1 0 1836 190 0 0 -221zm-224 -1691l258 2 1 0 3 -1 4 1 84 0c197,-19 349,-82 466,-178 116,-97 198,-229 254,-387 6,-19 26,-29 45,-24l854 225c20,5 32,26 27,46 -1,3 -2,5 -3,7 -159,375 -194,639 -147,827 45,183 171,295 336,368 17,8 26,26 22,44l-189 1026c-3,19 -19,31 -37,31l0 1 -618 0c-19,0 -35,-14 -38,-33l-162 -626 -119 628c-3,18 -19,30 -37,30l0 1 -1008 0c-21,0 -38,-17 -38,-38l0 -1 0 -1911c0,-21 17,-38 38,-38l4 0zm224 452c0,-20 17,-38 38,-38 21,0 38,18 38,38l0 245c0,21 -17,38 -38,38 -21,0 -38,-17 -38,-38l0 -245zm0 413c0,-21 17,-38 38,-38 21,0 38,17 38,38l0 245c0,21 -17,38 -38,38 -21,0 -38,-17 -38,-38l0 -245zm0 413c0,-21 17,-38 38,-38 21,0 38,17 38,38l0 245c0,21 -17,38 -38,38 -21,0 -38,-17 -38,-38l0 -245z"/>
  </g>
 </g>
</svg>
