<?xml version="1.0" encoding="UTF-8"?>
<!DOCTYPE svg PUBLIC "-//W3C//DTD SVG 1.1//EN" "http://www.w3.org/Graphics/SVG/1.1/DTD/svg11.dtd">
<!-- Creator: CorelDRAW X7 -->
<svg xmlns="http://www.w3.org/2000/svg" xml:space="preserve" width="42.3333mm" height="42.3333mm" version="1.1" style="shape-rendering:geometricPrecision; text-rendering:geometricPrecision; image-rendering:optimizeQuality; fill-rule:evenodd; clip-rule:evenodd"
viewBox="0 0 3446 3446"
 xmlns:xlink="http://www.w3.org/1999/xlink">
 <g>
  <g>
   <path d="M1926 2349l97 179c13,24 4,54 -20,67 -7,4 -15,6 -23,6l0 0 -223 0c-15,25 -54,101 -38,167l1 0c9,38 32,84 55,130 36,73 71,145 66,206 -8,107 -144,191 -144,191 -23,14 -54,6 -68,-17 -14,-24 -6,-54 17,-68 1,0 92,-56 97,-113 3,-35 -27,-95 -57,-155 -25,-51 -50,-102 -62,-150l0 0 0 0c-18,-71 2,-143 23,-191l-181 0c-28,0 -50,-22 -50,-49 0,-10 3,-18 7,-26l96 -177c-148,-72 -300,-211 -427,-382 -185,-247 -322,-561 -322,-822 0,-265 112,-517 290,-702 175,-182 415,-299 676,-299 259,0 491,115 660,296l2 3c172,185 277,437 277,702 0,261 -136,575 -321,822 -128,171 -279,310 -428,382zm-314 36l-63 117 348 0 -64 -117c-37,11 -74,17 -110,17 -36,0 -73,-6 -111,-17zm712 -1878c-151,-161 -358,-264 -588,-264 -233,0 -448,105 -605,268 -161,167 -262,395 -262,634 0,239 128,531 302,763 170,227 380,395 552,395 171,0 382,-168 552,-395 173,-232 301,-524 301,-763 0,-240 -95,-468 -250,-635l-2 -3zm-1202 577c-7,26 -34,41 -61,34 -26,-7 -41,-35 -34,-61 38,-134 82,-254 150,-360l0 0c69,-106 161,-196 295,-265 24,-13 54,-3 66,21 13,24 3,54 -21,66 -116,61 -197,139 -257,232l0 0 0 0c-61,94 -102,206 -138,333z"/>
  </g>
 </g>
</svg>
