<?xml version="1.0" encoding="UTF-8"?>
<!DOCTYPE svg PUBLIC "-//W3C//DTD SVG 1.1//EN" "http://www.w3.org/Graphics/SVG/1.1/DTD/svg11.dtd">
<svg xmlns="http://www.w3.org/2000/svg" xml:space="preserve" width="42.3333mm" height="42.3333mm" version="1.1" style="shape-rendering:geometricPrecision; text-rendering:geometricPrecision; image-rendering:optimizeQuality; fill-rule:evenodd; clip-rule:evenodd"
viewBox="0 0 9877 9877"
 xmlns:xlink="http://www.w3.org/1999/xlink">
 <g>
  <g>
   <path fill="none" fill-rule="nonzero" d="M1879 4307c0,234 -189,424 -423,424 -235,0 -494,92 -494,-142l70 -851c0,-336 137,-641 358,-862 220,-221 526,-358 862,-358l3752 0c234,0 424,190 424,424 0,234 -190,424 -424,424l-3752 0c-102,0 -195,42 -263,110 -67,67 -110,160 -110,262l0 569z"/>
   <path d="M1735 4566l0 -828c0,-69 14,-136 39,-197 27,-63 65,-120 113,-168 47,-47 104,-86 167,-112 62,-26 128,-40 198,-40l3752 0c77,0 147,-31 197,-81 51,-51 82,-121 82,-198 0,-77 -31,-147 -82,-197 -50,-50 -120,-82 -197,-82l-3752 0c-296,0 -565,121 -760,316l0 0c-99,99 -180,218 -234,349 -53,126 -82,265 -82,410l0 0 0 12 -68 829 -291 0 1 -8 69 -837c0,-182 37,-357 104,-517 69,-166 170,-317 296,-443l0 0 0 0c247,-247 589,-401 965,-401l3752 0c157,0 299,64 402,167 103,103 167,245 167,402 0,157 -64,300 -167,403 -103,103 -245,166 -402,166l-3752 0c-31,0 -60,6 -86,17 -28,11 -53,29 -74,50 -22,22 -39,47 -51,74 -10,26 -17,56 -17,86l0 828 -289 0z"/>
   <path d="M854 7213l8107 0c-290,-654 -680,-1257 -1083,-1707 -424,-473 -854,-772 -1181,-773l0 1 -5604 0 -239 2479zm8326 290l-8485 0 0 0 -13 -1c-79,-7 -138,-78 -130,-157l265 -2757c0,-80 65,-144 145,-144l5735 0 0 1c414,0 919,337 1396,868 464,518 910,1225 1218,1983 9,19 14,40 14,62 0,80 -65,145 -145,145z"/>
   <path d="M3706 3882l1656 0c117,0 224,48 301,125l7 9c73,76 117,179 117,292 0,117 -48,224 -124,301l-10 8c-76,73 -179,117 -291,117l-1656 0c-116,0 -223,-48 -300,-125l-1 0c-77,-78 -125,-184 -125,-301 0,-117 48,-223 125,-300l1 -1 -1 0c77,-77 184,-125 301,-125zm1656 290l-1656 0c-37,0 -71,15 -96,40l0 0c-24,24 -40,59 -40,96 0,37 15,71 39,95l1 1 0 1c25,24 59,39 96,39l1656 0c35,0 67,-13 91,-35l5 -5c24,-24 40,-59 40,-96 0,-35 -14,-67 -35,-91l-5 -5c-25,-25 -59,-40 -96,-40z"/>
   <circle cx="2825" cy="5974" r="322"/>
   <circle cx="4534" cy="5974" r="322"/>
   <circle cx="6243" cy="5974" r="322"/>
  </g>
 </g>
</svg>
