<?xml version="1.0" encoding="UTF-8"?>
<!DOCTYPE svg PUBLIC "-//W3C//DTD SVG 1.1//EN" "http://www.w3.org/Graphics/SVG/1.1/DTD/svg11.dtd">
<!-- Creator: CorelDRAW X7 -->
<svg xmlns="http://www.w3.org/2000/svg" xml:space="preserve" width="42.3333mm" height="42.3333mm" version="1.1" style="shape-rendering:geometricPrecision; text-rendering:geometricPrecision; image-rendering:optimizeQuality; fill-rule:evenodd; clip-rule:evenodd"
viewBox="0 0 18517 18517"
 xmlns:xlink="http://www.w3.org/1999/xlink">
 <g>
  <g>
   <path d="M5066 6765c697,318 1337,740 1899,1246 605,546 1121,1190 1522,1905 441,-3 872,-50 1288,-136 -387,-821 -930,-1555 -1591,-2163 -696,-642 -1524,-1144 -2438,-1462l-18 22c-27,27 -60,47 -94,59 -151,123 -296,254 -434,392l-1 0c-45,45 -89,91 -133,137zm128 -777l-2035 -1978c-277,209 -622,332 -996,332 -456,0 -870,-185 -1170,-486l-1 1c-299,-299 -485,-714 -485,-1171 0,-457 186,-871 486,-1171l0 1c299,-300 714,-486 1170,-486 457,0 872,186 1171,485 299,300 485,714 485,1171 0,371 -122,713 -328,989l2074 2015c1051,-782 2353,-1245 3763,-1245l103 0 56 0 3 2c1312,34 2526,469 3521,1186l2015 -1958c-206,-276 -328,-618 -328,-989 0,-457 185,-871 485,-1171 299,-299 713,-485 1170,-485 456,0 871,186 1170,486l1 -1c299,300 485,714 485,1171 0,457 -186,872 -485,1171l-1 -1c-300,301 -714,486 -1170,486 -373,0 -718,-123 -995,-332l-1971 1916c139,117 273,240 402,368l0 -1c1142,1142 1848,2719 1848,4462 0,1344 -421,2591 -1138,3615l2790 2711c93,90 95,240 5,333 -91,93 -241,96 -334,5l-2748 -2670c-133,163 -275,318 -423,467l0 1c-1142,1142 -2719,1848 -4461,1848 -1742,0 -3320,-706 -4462,-1848l1 -1c-172,-171 -334,-353 -485,-543l-2826 2746c-93,91 -244,88 -334,-5 -91,-93 -88,-243 5,-333l2873 -2792c-683,-1008 -1083,-2225 -1083,-3534 0,-1741 707,-3319 1849,-4461l0 -1c105,-105 215,-207 328,-305zm1013 -166c854,340 1632,834 2297,1447 728,670 1322,1485 1738,2397 335,-95 659,-215 969,-359 -347,-901 -876,-1712 -1540,-2387 -685,-697 -1515,-1251 -2441,-1612 -360,138 -702,311 -1023,514zm1709 -731c782,376 1489,885 2091,1498 699,709 1257,1560 1627,2503 329,-182 640,-391 931,-625 -299,-740 -722,-1417 -1241,-2005 -550,-624 -1210,-1148 -1949,-1543l-47 0c-487,0 -960,60 -1412,172zm2515 -68c456,328 874,706 1246,1126 520,589 949,1262 1263,1994 344,-320 654,-676 922,-1062 -128,-158 -264,-309 -408,-453l0 -1c-808,-809 -1854,-1380 -3023,-1604zm3727 2455c-624,854 -1434,1564 -2369,2068 -1000,538 -2144,844 -3357,844 -914,0 -1789,-174 -2594,-490 -726,-286 -1395,-689 -1981,-1185 -82,220 -151,446 -206,678 615,726 1382,1321 2250,1733 870,412 1843,643 2871,643 1259,0 2438,-346 3443,-949 1008,-604 1846,-1467 2420,-2495 -136,-297 -296,-580 -477,-847zm-10108 780c573,507 1236,917 1960,1202 600,236 1245,387 1918,438 -351,-572 -784,-1089 -1279,-1535 -561,-506 -1204,-921 -1904,-1223 -272,343 -505,717 -695,1118zm-508 1722c-34,254 -51,512 -51,775l3 184c615,823 1417,1502 2342,1973l0 0c910,462 1943,724 3036,724 1377,0 2656,-414 3720,-1124 1077,-719 1935,-1743 2450,-2946 -48,-235 -111,-465 -187,-688 -603,958 -1426,1764 -2398,2347 -1078,646 -2339,1018 -3685,1018 -1098,0 -2140,-248 -3072,-690 -816,-387 -1547,-923 -2158,-1573zm39 1802c19,110 42,219 67,327 542,983 1339,1806 2302,2380 937,558 2036,879 3210,879 1398,0 2689,-456 3731,-1226 1062,-785 1868,-1895 2269,-3183 3,-68 4,-136 4,-204 0,-116 -4,-232 -10,-346 -558,1004 -1349,1861 -2300,2496 -1140,761 -2510,1205 -3982,1205 -1169,0 -2273,-281 -3250,-777l0 0c-770,-392 -1462,-919 -2041,-1551zm807 2085c232,368 505,709 812,1015l1 0c1056,1056 2516,1710 4127,1710 1611,0 3071,-654 4126,-1710l1 1c577,-578 1035,-1278 1330,-2057 -435,655 -982,1229 -1613,1695 -1123,830 -2512,1320 -4012,1320 -1259,0 -2440,-346 -3451,-947 -482,-287 -926,-633 -1321,-1027zm-1389 -10344l3 -2c212,-214 343,-509 343,-835 0,-326 -132,-622 -346,-836 -214,-214 -510,-346 -836,-346 -327,0 -623,132 -835,345l0 1c-214,214 -347,510 -347,836 0,327 132,623 346,836l0 1c213,214 509,346 836,346 327,0 622,-132 836,-346l0 0zm13354 -2019c-326,0 -622,132 -836,346 -213,214 -346,510 -346,836 0,326 132,621 344,835l2 2 0 0c214,214 510,346 836,346 327,0 623,-132 836,-346l0 -1c214,-213 346,-509 346,-836 0,-326 -132,-622 -346,-836l0 -1c-212,-213 -509,-345 -836,-345z"/>
  </g>
 </g>
</svg>
