<svg 
  xmlns="http://www.w3.org/2000/svg" 
  xml:space="preserve" 
  width="43.1272mm" 
  height="43.1658mm" 
  version="1.1" style="shape-rendering:geometricPrecision; text-rendering:geometricPrecision; image-rendering:optimizeQuality; fill-rule:evenodd; clip-rule:evenodd"
  viewBox="0 0 1973 1975"
  xmlns:xlink="http://www.w3.org/1999/xlink"
>
 <defs>
  <style type="text/css">
   <![CDATA[
    .str0 {stroke:#5B5B5B;stroke-width:34.3185}
    .fil0 {fill:#5B5B5B}
   ]]>
  </style>
 </defs>
 <g id="Слой_x0020_1">
  <metadata id="CorelCorpID_0Corel-Layer"/>
  <g id="_1807647248">
   <path class="fil0 str0" d="M152 1160c0,-9 -2,-7 -2,-16 -1,-6 0,-12 -1,-18 -3,-31 -1,-61 1,-91 0,-14 1,-15 10,-21l78 -50c14,-9 27,-16 41,-25 32,-18 93,-48 130,-64 85,-35 153,-59 246,-79 75,-16 160,-28 241,-28 19,0 22,18 35,42l25 54c9,24 -17,16 -56,17l-72 7c-49,7 -90,13 -135,24 -30,7 -65,15 -94,24 -11,3 -20,6 -31,9 -11,3 -18,6 -28,9 -123,46 -235,96 -342,173 -16,12 -30,22 -46,33zm1804 -576l0 31c-1,33 -18,62 -42,81 -45,35 -91,45 -145,18 -19,-10 -20,-19 -42,-5 -25,17 -48,39 -72,57 -18,14 -12,20 -5,41 11,31 22,64 30,97 16,71 20,149 17,234 -2,71 -21,147 -42,213 -25,76 -63,147 -110,211 -5,6 -9,11 -14,18 -5,6 -9,11 -14,17 -9,12 -20,22 -29,34 -8,10 -22,22 -32,32 -43,43 -91,79 -143,112 -14,8 -28,16 -41,24 -13,7 -29,15 -43,21 -31,12 -59,26 -91,35 -34,10 -66,20 -103,25 -26,4 -32,0 -44,-16 -7,-9 -6,-10 -3,-22 54,-165 76,-282 76,-467 0,-150 -24,-249 -61,-384 -4,-14 -10,-36 -16,-47l-46 2c-11,1 -32,1 -44,3 -15,2 -29,2 -44,4 -7,1 -15,1 -22,2 -7,1 -12,2 -19,3 -118,13 -256,55 -362,104l-63 31c-42,20 -79,45 -119,69l-55 38c-55,41 -57,30 -27,118 5,16 24,57 14,72 -15,22 -41,28 -57,2 -9,-16 -20,-46 -26,-67 -7,-25 -14,-49 -19,-76l-12 -81c-6,-58 -3,-120 0,-178 4,-54 20,-104 34,-154 10,-34 37,-108 58,-129 14,-15 39,-26 59,-36 110,-55 225,-95 346,-119 25,-5 51,-10 78,-14 20,-4 67,-7 80,-13 -4,-9 -5,-8 -11,-15 -5,-6 -6,-8 -12,-14l-51 -51c-7,-7 -49,-45 -55,-46 -7,-2 -30,10 -36,14 -66,33 -129,71 -183,121 -16,14 -43,44 -66,31 -32,-18 -17,-41 1,-62 13,-15 38,-36 54,-49 34,-26 69,-50 106,-72 27,-17 55,-29 84,-42 78,-35 158,-50 243,-62 43,-6 83,-1 122,-1 11,0 13,2 24,2 76,1 177,30 246,61 35,15 68,32 101,51 41,25 83,53 117,87 6,5 9,6 14,11 39,39 77,78 108,122 35,51 -20,70 -41,53 -5,-4 -8,-8 -12,-13l-46 -56c-59,-66 -122,-113 -197,-159 -9,-5 -23,-14 -33,-16 6,10 12,18 19,28 23,34 42,70 61,106 43,79 76,161 104,248 32,100 60,254 60,364 0,16 0,31 0,47l-4 113c-4,78 -26,185 -47,260 -4,12 -8,24 -11,35 14,-4 58,-58 66,-69 75,-92 128,-202 152,-319 20,-98 21,-207 -2,-306 -5,-18 -9,-36 -14,-54 -4,-17 -12,-33 -16,-50 -17,9 -32,21 -47,32 -13,10 -36,29 -54,11 -6,-6 -14,-16 -14,-27 0,-15 7,-18 15,-25l199 -157c7,-6 15,-10 20,-18 -2,-9 -5,-16 -6,-27 -1,-27 4,-56 17,-78 18,-28 36,-44 69,-57 66,-26 139,14 164,76 5,13 7,21 7,31zm-1792 344l20 -69c9,-31 26,-81 45,-103 17,-22 124,-65 159,-78 79,-30 198,-63 282,-74 37,-5 80,-12 117,-12 15,0 35,35 45,50 8,12 33,47 36,59l-53 4c-104,6 -243,40 -337,71 -52,18 -115,45 -164,69l-112 62c-9,5 -31,19 -38,21zm1727 -330c0,53 -63,87 -105,46 -49,-47 -4,-107 40,-107 35,0 65,25 65,61zm-673 -178l0 0zm-528 -52c10,0 26,-5 37,-8 12,-3 24,-6 38,-8 14,-2 49,-10 58,-4l13 11c10,9 38,37 46,47 9,12 39,42 53,61 68,89 83,110 139,211 17,30 30,62 45,93 5,11 9,21 14,33 9,23 17,44 25,68 42,127 70,258 70,395 0,135 -3,218 -35,346 -15,58 -26,95 -45,148 -4,12 -6,16 -15,24 -6,4 -49,18 -59,18 0,-11 20,-83 23,-98 7,-34 13,-65 19,-101 6,-36 8,-73 13,-108l4 -117c0,-9 -2,-15 -2,-27 0,-29 -1,-57 -5,-87 -5,-37 -7,-66 -14,-106 -22,-125 -62,-258 -117,-368 -3,-7 -6,-12 -10,-20l-10 -19c-27,-55 -40,-71 -67,-117 -25,-43 -71,-99 -102,-139 -6,-7 -9,-9 -14,-16 -3,-4 -4,-4 -7,-7l-21 -24c-6,-7 -9,-10 -15,-17l-30 -31c-4,-6 -10,-10 -15,-15l-12 -12c-3,-6 -1,-3 -2,-6zm227 -25c9,0 9,1 18,2 42,1 90,8 128,18 39,9 37,11 70,55 58,78 98,147 141,237l68 181c39,134 52,228 52,369 0,181 -21,285 -77,452 -3,10 -7,21 -12,31 -5,12 -9,18 -20,25 -11,7 -46,29 -59,31 2,-8 4,-14 7,-23 33,-117 40,-151 56,-277 11,-89 7,-241 -4,-323 -14,-97 -31,-174 -62,-265 -14,-43 -29,-79 -45,-119 -23,-53 -54,-110 -84,-160l-48 -74c-6,-8 -12,-16 -17,-24 -31,-45 -101,-121 -112,-136z"/>
   <path class="fil0 str0" d="M82 1918l0 11c0,17 23,34 41,27 8,-2 16,-10 22,-15 8,-6 15,-10 22,-16l233 -179c11,-8 12,-7 24,1 134,91 294,147 460,147 11,0 19,-3 26,-8 19,-14 17,-40 1,-51 -16,-11 -82,-10 -104,-13 -39,-5 -93,-14 -130,-26 -65,-22 -129,-48 -187,-86 -8,-5 -16,-12 -24,-16 6,-7 56,-39 56,-61 0,-13 -16,-32 -28,-32 -28,0 -137,93 -162,111l-25 20c-9,8 -17,13 -26,20l-63 50c-5,4 -8,6 -13,10 -10,7 -17,14 -26,20l-76 60c-8,6 -21,14 -21,26z"/>
   <path class="fil0 str0" d="M1830 210c-33,0 -64,-26 -64,-59 0,-21 3,-37 21,-51 63,-54 142,34 85,91 -6,5 -10,9 -17,12 -5,3 -19,7 -25,7zm126 -79l0 2c0,41 -1,70 -34,102 -18,18 -43,38 -71,38 -54,0 -52,5 -99,-19l-142 122c-20,16 -88,77 -103,77 -36,0 -51,-35 -13,-66l62 -53c3,-3 5,-5 8,-8l101 -85c56,-52 46,-24 37,-64l-3 -28c0,-56 29,-97 71,-119 39,-20 99,-17 134,12 4,3 6,4 9,7 19,17 43,47 43,82z"/>
   <path class="fil0 str0" d="M17 1659c0,15 1,30 20,37 21,9 40,-8 61,-28l78 -68c12,-9 43,-39 55,-42l38 46c9,12 33,39 47,39l10 0c13,0 28,-16 28,-30 0,-25 -65,-84 -70,-101 14,-21 23,-23 39,-40 6,-6 10,-7 15,-13 6,-6 8,-7 14,-12l100 -90c8,-8 33,-28 11,-51 -28,-29 -54,2 -83,27l-78 68c-27,23 -52,47 -81,68 -18,14 -32,32 -50,46l-92 81c-5,5 -9,7 -14,11 -9,9 -17,16 -26,24 -5,5 -22,21 -22,27l0 1z"/>
  </g>
 </g>
</svg>
