<?xml version="1.0" encoding="UTF-8"?>
<!DOCTYPE svg PUBLIC "-//W3C//DTD SVG 1.1//EN" "http://www.w3.org/Graphics/SVG/1.1/DTD/svg11.dtd">
<svg xmlns="http://www.w3.org/2000/svg" xml:space="preserve" width="42.3333mm" height="42.3333mm" version="1.1" style="shape-rendering:geometricPrecision; text-rendering:geometricPrecision; image-rendering:optimizeQuality; fill-rule:evenodd; clip-rule:evenodd"
  viewBox="0 0 1051 1051"
  xmlns:xlink="http://www.w3.org/1999/xlink">
  <g>
    <g>
     <path d="M506 300c5,0 9,0 14,1 0,3 -1,6 -1,9 0,6 1,11 2,16 -5,-2 -10,-2 -15,-2 -17,0 -32,6 -43,17 -10,11 -17,26 -17,42 0,4 0,7 1,10 -8,-4 -16,-7 -25,-9l0 -1c0,-23 10,-44 25,-59 15,-15 36,-24 59,-24z"/>
     <path d="M591 227c15,0 28,4 40,10 -4,7 -7,14 -9,22 -9,-5 -20,-8 -31,-8 -16,0 -31,6 -42,17l0 0c-11,11 -18,26 -18,42 0,13 4,25 11,35 -8,2 -15,5 -22,9 -8,-13 -12,-28 -12,-44 0,-23 9,-43 24,-58l0 0 0 -1 0 0c15,-15 36,-24 59,-24zm47 152c-5,-7 -10,-12 -16,-17 4,-3 8,-6 11,-9l0 0 0 0c4,-4 7,-8 10,-12 2,1 3,3 5,5 -6,9 -10,20 -10,31l0 2z"/>
     <path d="M408 371c24,0 46,9 61,25l0 0 0 0c4,3 6,7 9,10 -2,9 -4,18 -4,27 0,19 6,37 17,52 -2,4 -3,8 -5,12 -2,4 -7,7 -11,7l0 0 -135 0c-5,0 -9,-3 -11,-8 -3,-6 -5,-12 -6,-18l-1 0c-1,-7 -2,-13 -2,-20 0,-24 10,-46 26,-62 16,-16 37,-25 62,-25zm45 42c-12,-12 -28,-19 -45,-19 -18,0 -34,7 -45,19 -12,11 -19,27 -19,45 0,5 1,10 2,14l0 1c0,2 1,5 2,7l119 0c1,-2 2,-5 3,-7 1,-5 1,-10 1,-15 0,-18 -7,-34 -18,-45l0 0z"/>
     <g>
      <path d="M701 188c26,0 50,10 67,27l0 1c9,9 16,19 21,31 -8,2 -15,6 -22,11 -3,-10 -8,-18 -15,-26l-1 0c-13,-13 -31,-21 -50,-21 -20,0 -37,8 -50,21 -13,13 -21,30 -21,50 0,20 8,37 21,50l0 0c2,2 3,3 5,5 -6,5 -10,12 -13,19 -3,-2 -6,-5 -9,-7l0 0 0 0c-17,-17 -28,-41 -28,-67 0,-26 11,-50 28,-67l0 0 0 0c17,-17 41,-27 67,-27zm44 177l0 1 -1 -2 1 1zm-7 -16c-1,-2 -2,-3 -3,-5l1 -1 2 6zm30 -133c4,5 4,12 0,16l0 -16z"/>
    </g>
    <g>
      <path d="M817 230c26,0 49,10 66,27l0 1 0 -1c18,18 28,41 28,67 0,10 -1,20 -4,30 -7,-6 -14,-10 -22,-13 2,-5 2,-11 2,-17 0,-19 -7,-37 -20,-50l0 0c-13,-13 -31,-20 -50,-20 -20,0 -38,7 -50,20 -13,13 -21,31 -21,50 0,20 8,37 20,50l1 0c3,4 7,7 12,10 -3,7 -6,15 -7,24 -8,-5 -16,-10 -22,-17l-1 -1 -4 -4c1,-3 1,-6 1,-9 0,-18 -9,-34 -23,-44 -1,-3 -1,-6 -1,-9 0,-26 11,-49 28,-67 17,-17 41,-27 67,-27zm-68 160c-4,-4 -4,-11 1,-16l-1 16z"/>
    </g>
    <g>
      <path d="M854 323c26,0 50,11 67,28l1 0c16,17 27,41 27,67 0,26 -11,49 -28,66l0 0 0 0 0 0c-3,3 -5,6 -8,8l-108 0c2,-6 4,-13 5,-20 12,10 27,16 44,16 20,0 37,-8 50,-20l0 0 0 0c13,-13 21,-31 21,-50 0,-20 -8,-37 -20,-50l-1 -1c-12,-12 -30,-20 -50,-20 -19,0 -37,8 -50,20 -11,12 -18,26 -20,43 -6,-5 -14,-10 -22,-12 4,-19 13,-35 26,-47 17,-17 40,-28 66,-28zm68 28c4,5 4,12 -1,16l1 -16z"/>
    </g>
    <path d="M692 312c18,0 35,7 47,19l0 0c12,12 19,29 19,46 0,7 -1,13 -3,19 -5,-2 -11,-2 -17,-2 -2,0 -5,0 -7,0 2,-5 3,-11 3,-17 0,-11 -4,-21 -12,-29l0 0c-8,-8 -18,-13 -30,-13 -12,0 -22,5 -30,13l0 0c-7,7 -12,18 -12,29 0,12 5,23 12,30l0 0 0 0c6,6 14,10 22,12 -5,6 -10,13 -13,21 -5,-2 -10,-4 -15,-7 0,-27 -11,-50 -29,-67 3,-13 9,-26 19,-35l0 0c12,-12 28,-19 46,-19z"/>
    <path d="M565 330c29,0 54,12 73,30 19,19 30,45 30,73 0,12 -2,24 -6,35 -4,12 -11,22 -18,32 -3,2 -6,4 -9,4l0 0 -139 0c-4,0 -8,-2 -10,-5 -7,-9 -13,-19 -17,-31 -4,-11 -7,-23 -7,-35 0,-28 12,-54 30,-73 19,-18 45,-30 73,-30zm56 47c-14,-14 -34,-23 -56,-23 -22,0 -41,9 -56,23 -14,14 -23,34 -23,56 0,10 2,19 5,27 2,7 6,14 11,20l127 0c4,-6 8,-13 11,-20 3,-8 4,-17 4,-27 0,-22 -9,-42 -23,-56z"/>
    <path d="M738 382c23,0 44,9 59,24l0 0c15,15 25,36 25,59 0,5 -1,11 -2,16 -1,5 -2,10 -4,15 -2,5 -7,8 -11,8l0 0 -133 0c-5,0 -10,-4 -11,-9 -2,-4 -4,-9 -5,-14 -1,-5 -1,-11 -1,-16 0,-23 9,-44 24,-59l1 -1c15,-14 36,-23 58,-23zm43 41c-11,-11 -26,-18 -43,-18 -16,0 -31,7 -41,17l-1 1c-11,11 -17,26 -17,42 0,4 0,8 1,12 0,1 0,2 0,3l116 0c1,-1 1,-2 1,-3 1,-4 1,-8 1,-12 0,-16 -7,-31 -17,-42l0 0 0 0z"/>
    <path d="M101 504c-6,0 -12,-5 -12,-12 0,-7 6,-12 12,-12l849 0c6,0 12,5 12,12 0,7 -6,12 -12,12l-849 0z"/>
    <path d="M146 494c-2,-5 2,-11 8,-13 6,-1 12,3 13,8l82 352 255 0c6,0 11,5 11,11 0,6 -5,11 -11,11l-264 0 0 0c-5,0 -9,-3 -10,-8l-84 -361z"/>
    <path d="M882 489c2,-5 7,-9 13,-8 6,2 10,8 8,13l-83 361c-2,5 -6,8 -11,8l0 0 -336 0c-6,0 -10,-5 -10,-11 0,-6 4,-11 10,-11l327 0 82 -352z"/>
    <path d="M479 576c3,-3 4,-6 4,-10 0,-10 -7,-16 -15,-16l-99 0c-7,0 -13,7 -13,15 0,7 6,13 13,13l79 0 -63 82c-7,9 0,22 9,22 3,0 4,-2 6,-2 4,-2 8,-3 15,-3 27,0 48,13 48,46 0,25 -12,53 -52,53 -18,0 -29,-6 -39,-12 -3,-1 -5,-2 -8,-2 -7,0 -13,7 -13,14 0,22 54,26 68,26 51,0 71,-44 71,-81 0,-43 -29,-67 -70,-69l59 -76z"/>
    <path id="1" d="M597 569c30,0 43,22 43,52l0 108c0,28 -16,47 -43,47 -28,0 -43,-19 -43,-47l0 -108c0,-30 12,-52 43,-52zm0 -26c-50,0 -71,37 -71,81l0 105c0,41 25,73 71,73 45,0 70,-32 70,-73l0 -105c0,-44 -21,-81 -70,-81z"/>
    <path id="2" d="M714 554c10,0 14,7 14,17l0 36c0,9 -5,15 -14,15 -9,0 -14,-6 -14,-15l0 -36c0,-10 4,-17 14,-17zm0 -9c-16,0 -24,12 -24,27l0 35c0,13 9,24 24,24 15,0 23,-11 23,-24l0 -35c0,-15 -7,-27 -23,-27z"/>
  </g>
</g>
</svg>
