<svg 
  xmlns="http://www.w3.org/2000/svg" 
  viewBox="0 0 2357 2047"
  xmlns:xlink="http://www.w3.org/1999/xlink"
>
 <defs>
  <style type="text/css">
   <![CDATA[
    .str0 {stroke:#5B5B5B;stroke-width:101.075}
    .str1 {stroke:#5B5B5B;stroke-width:101.075;stroke-linecap:round;stroke-linejoin:round}
    .fil0 {fill:none}
   ]]>
  </style>
 </defs>
 <g id="Слой_x0020_1">
  <metadata id="CorelCorpID_0Corel-Layer"/>
  <ellipse class="fil0 str0" cx="1245" cy="1204" rx="800" ry="792"/>
  <line class="fil0 str0" x1="1691" y1="525" x2="1932" y2= "249" />
  <line class="fil0 str0" x1="1941" y1="781" x2="2070" y2= "717" />
  <ellipse class="fil0 str0" cx="2025" cy="160" rx="112" ry="109"/>
  <ellipse class="fil0 str0" transform="matrix(1.50204 0.799563 -0.730981 1.37321 2194.54 681.641)" rx="66" ry="70"/>
  <line class="fil0 str1" x1="51" y1="1713" x2="509" y2= "1515" />
  <line class="fil0 str1" x1="410" y1="1991" x2="635" y2= "1722" />
  <path class="fil0 str0" d="M881 498c212,429 594,652 1162,649"/>
  <path class="fil0 str0" d="M734 604c163,538 561,871 1220,978"/>
  <path class="fil0 str0" d="M610 739c96,554 451,933 1091,1120"/>
  <path class="fil0 str0" d="M488 949c0,0 100,41 161,15"/>
  <path class="fil0 str0" d="M479 1409c0,0 263,71 422,-12"/>
  <path class="fil0 str0" d="M1131 835c0,0 375,-95 514,-306"/>
  <path class="fil0 str0" d="M1445 1026c0,0 277,-216 315,-444"/>
  <path class="fil0 str0" d="M1749 1125c0,0 160,-264 101,-439"/>
  <path class="fil0 str0" d="M782 1854c0,0 376,10 562,-144"/>
 </g>
</svg>
