<?xml version="1.0" encoding="UTF-8"?>
<!DOCTYPE svg PUBLIC "-//W3C//DTD SVG 1.1//EN" "http://www.w3.org/Graphics/SVG/1.1/DTD/svg11.dtd">
<svg xmlns="http://www.w3.org/2000/svg" xml:space="preserve" width="42.3333mm" height="42.3333mm" version="1.1" style="shape-rendering:geometricPrecision; text-rendering:geometricPrecision; image-rendering:optimizeQuality; fill-rule:evenodd; clip-rule:evenodd"
  viewBox="0 0 1106 1106"
  xmlns:xlink="http://www.w3.org/1999/xlink">
  <g>
    <g>
     <path d="M153 520c-1,-6 3,-12 9,-13 6,-2 12,2 14,8l86 370 268 0c6,0 12,6 12,12 0,6 -6,11 -12,11l-277 0 0 0c-5,0 -10,-3 -11,-9l-89 -379z"/>
     <path d="M928 515c2,-6 8,-10 14,-8 6,1 10,7 9,13l-89 379c-1,6 -6,9 -11,9l0 0 -353 0c-6,0 -11,-5 -11,-11 0,-6 5,-12 11,-12l344 0 86 -370z"/>
     <path d="M500 785l16 0c7,0 13,-6 13,-14 0,-7 -6,-14 -13,-14l-16 0 0 -72c0,-8 -7,-15 -15,-15 -8,0 -14,7 -14,15l0 72 -74 0 67 -165c0,-1 0,-3 0,-5 0,-8 -7,-14 -14,-14 -5,0 -11,3 -13,8l-71 178c-2,4 -3,9 -3,10 0,9 6,16 15,16l93 0 0 44c0,8 6,15 14,15 8,0 15,-7 15,-15l0 -44z"/>
     <path d="M628 599c32,0 45,23 45,55l0 113c0,30 -16,50 -45,50 -29,0 -45,-20 -45,-50l0 -113c0,-32 13,-55 45,-55zm0 -27c-52,0 -75,38 -75,85l0 110c0,43 27,77 75,77 48,0 74,-34 74,-77l0 -110c0,-47 -22,-85 -74,-85z"/>
     <path d="M751 582c11,0 15,8 15,19l0 37c0,10 -5,17 -15,17 -10,0 -15,-7 -15,-17l0 -37c0,-11 4,-19 15,-19zm0 -9c-17,0 -25,13 -25,29l0 36c0,15 9,26 25,26 16,0 25,-11 25,-26l0 -36c0,-16 -8,-29 -25,-29z"/>
     <path d="M531 315c5,0 11,1 15,2 0,3 0,6 0,10 0,5 0,10 1,16 -5,-2 -10,-3 -16,-3 -17,0 -33,7 -44,19 -12,11 -19,27 -19,44 0,4 1,7 1,11 -8,-5 -16,-8 -26,-10l0 -1c0,-24 10,-46 26,-62 16,-16 38,-26 62,-26z"/>
     <path d="M621 239c16,0 30,4 43,11 -5,7 -8,14 -11,23 -9,-6 -20,-9 -32,-9 -17,0 -33,7 -44,18l0 0c-12,12 -19,27 -19,45 0,13 4,26 12,36 -9,2 -17,5 -24,9 -8,-13 -13,-29 -13,-45 0,-24 10,-46 26,-62l0 0 0 0 0 0c16,-16 38,-26 62,-26zm50 159c-5,-6 -11,-12 -17,-17 4,-3 8,-6 12,-10l0 0 0 0c3,-4 7,-8 9,-13 2,2 4,4 6,6 -6,9 -10,21 -10,33l0 1z"/>
     <path d="M428 390c25,0 48,10 65,27l0 0 0 0c3,3 6,7 9,11 -2,8 -4,18 -4,28 0,20 7,39 17,55 -1,4 -3,8 -5,12 -2,4 -6,7 -11,7l0 0 -142 0c-5,0 -10,-3 -12,-8 -3,-6 -5,-12 -6,-19l0 0c-2,-7 -3,-14 -3,-21 0,-25 10,-48 27,-65 17,-17 40,-27 65,-27zm47 45c-12,-13 -28,-20 -47,-20 -18,0 -35,7 -47,20 -12,12 -20,28 -20,47 0,5 1,10 2,15l0 0c1,3 1,6 2,8l126 0c1,-2 2,-5 2,-8 1,-4 2,-10 2,-15 0,-19 -7,-35 -20,-47l0 0z"/>
     <g>
      <path d="M737 197c27,0 52,11 70,29l1 1c9,9 16,20 21,32 -8,3 -16,7 -22,12 -4,-10 -10,-19 -17,-26l-1 -1c-13,-13 -32,-22 -52,-22 -21,0 -39,9 -53,22 -13,14 -22,32 -22,53 0,20 9,39 22,52l0 0c2,2 4,4 6,6 -6,5 -11,12 -15,20 -3,-3 -6,-5 -8,-8l-1 0 0 0c-18,-18 -29,-43 -29,-70 0,-28 11,-53 29,-71l1 0 0 0c18,-18 42,-29 70,-29zm46 188l0 0 0 -2 0 2zm-8 -18c-1,-2 -2,-3 -3,-5l2 -1 1 6zm33 -140c4,5 4,12 -1,17l1 -17z"/>
    </g>
    <g>
      <path d="M859 242c27,0 52,11 70,29l0 0 0 0c18,18 29,43 29,70 0,11 -2,21 -5,31 -7,-5 -14,-10 -22,-13 1,-6 2,-12 2,-18 0,-20 -8,-39 -22,-52l0 0c-13,-14 -32,-22 -52,-22 -21,0 -40,8 -53,22 -14,13 -22,32 -22,52 0,21 8,39 21,52l1 1c4,4 8,7 13,10 -4,8 -6,16 -7,25 -9,-5 -17,-11 -24,-18l0 0 -5 -5c1,-3 1,-6 1,-9 0,-19 -10,-37 -24,-47 -1,-3 -1,-6 -1,-9 0,-27 11,-52 29,-70 18,-18 43,-29 71,-29zm-71 169c-5,-5 -4,-12 0,-17l0 17z"/>
    </g>
    <g>
      <path d="M898 340c28,0 52,11 70,29l1 1c18,18 28,42 28,69 0,28 -11,53 -29,71l0 0 0 0 0 0c-3,2 -5,5 -9,8l-113 0c3,-7 4,-14 5,-21 13,11 29,17 47,17 21,0 39,-8 53,-22l0 0 0 0c13,-13 22,-32 22,-53 0,-20 -9,-38 -22,-52l0 0c-14,-14 -32,-22 -53,-22 -20,0 -39,8 -53,22 -11,11 -19,27 -21,44 -7,-5 -15,-10 -23,-13 4,-19 14,-36 27,-49 18,-18 43,-29 70,-29zm71 30c4,5 4,12 -1,17l1 -17z"/>
    </g>
    <path d="M727 328c20,0 37,8 49,20l1 1c12,12 20,29 20,48 0,7 -1,13 -3,19 -6,-1 -12,-2 -18,-2 -3,0 -5,0 -8,0 2,-5 4,-11 4,-17 0,-12 -5,-23 -13,-31l0 0c-8,-8 -19,-13 -32,-13 -12,0 -23,5 -31,13l0 0c-8,8 -13,19 -13,31 0,12 5,23 13,31l0 0 0 0c6,7 14,11 23,13 -6,6 -10,14 -13,22 -6,-2 -11,-5 -16,-8 0,-27 -12,-52 -31,-69 3,-15 10,-28 19,-38l1 0c12,-12 29,-20 48,-20z"/>
    <path d="M594 347c30,0 57,12 76,32 20,20 32,47 32,77 0,13 -2,25 -6,37 -5,12 -11,23 -20,33 -2,3 -6,4 -9,4l0 0 -146 0c-4,0 -8,-2 -10,-5 -8,-10 -14,-20 -19,-32 -4,-12 -6,-24 -6,-37 0,-30 12,-57 31,-77 20,-20 47,-32 77,-32zm59 50c-15,-15 -36,-25 -59,-25 -23,0 -44,10 -59,25 -15,15 -24,36 -24,59 0,10 1,19 5,28 2,8 6,15 11,21l134 0c5,-6 8,-13 11,-21 3,-9 5,-18 5,-28 0,-23 -9,-44 -24,-59z"/>
    <path d="M776 402c24,0 46,9 62,25l0 0c16,16 26,38 26,62 0,6 -1,12 -2,17 -1,6 -2,11 -4,16 -2,5 -7,8 -12,8l0 0 -140 0c-5,0 -10,-4 -12,-9 -2,-5 -3,-10 -4,-15 -1,-5 -2,-11 -2,-17 0,-24 10,-46 26,-62l1 0c16,-16 37,-25 61,-25zm45 43c-12,-11 -28,-18 -45,-18 -17,0 -33,6 -44,17l0 1c-12,11 -19,27 -19,44 0,5 1,9 1,12 1,2 1,3 1,4l122 0c0,-1 1,-2 1,-4 1,-3 1,-7 1,-12 0,-17 -7,-33 -18,-44l0 0 0 0z"/>
    <path d="M106 530c-7,0 -13,-5 -13,-12 0,-7 6,-13 13,-13l893 0c6,0 12,6 12,13 0,7 -6,12 -12,12l-893 0z"/>
  </g>
</g>
</svg>
