<?xml version="1.0" encoding="UTF-8"?>
<!DOCTYPE svg PUBLIC "-//W3C//DTD SVG 1.1//EN" "http://www.w3.org/Graphics/SVG/1.1/DTD/svg11.dtd">
<svg xmlns="http://www.w3.org/2000/svg" xml:space="preserve" width="42.3333mm" height="42.3333mm" version="1.1" style="shape-rendering:geometricPrecision; text-rendering:geometricPrecision; image-rendering:optimizeQuality; fill-rule:evenodd; clip-rule:evenodd"
viewBox="0 0 1167 1167"
 xmlns:xlink="http://www.w3.org/1999/xlink">
 <g>
  <g>
   <path d="M162 549c-2,-7 2,-13 9,-15 6,-1 13,3 14,9l91 391 283 0c7,0 12,6 12,12 0,7 -5,12 -12,12l-292 0 0 0c-6,0 -11,-3 -12,-9l-93 -400z"/>
   <path d="M980 543c1,-6 8,-10 14,-9 7,2 11,8 9,15l-93 400c-1,6 -6,9 -12,9l0 0 -372 0c-7,0 -12,-5 -12,-12 0,-6 5,-12 12,-12l363 0 91 -391z"/>
   <path d="M418 734c0,-54 11,-99 59,-99 12,0 23,3 32,6 3,1 6,2 9,2 7,0 14,-7 14,-14 0,-19 -47,-22 -61,-22 -57,0 -85,53 -85,150 0,78 18,133 82,133 54,0 81,-41 81,-89 0,-57 -35,-85 -79,-85 -17,0 -37,5 -52,18zm-1 33c10,-12 31,-21 52,-21 29,0 49,17 49,55 0,30 -12,59 -49,59 -43,0 -52,-40 -52,-83l0 -10z"/>
   <path d="M662 632c34,0 48,24 48,58l0 119c0,31 -17,53 -48,53 -30,0 -47,-22 -47,-53l0 -119c0,-34 13,-58 47,-58zm0 -29c-54,0 -78,41 -78,90l0 116c0,45 28,81 78,81 51,0 79,-36 79,-81l0 -116c0,-49 -24,-90 -79,-90z"/>
   <path d="M793 615c11,0 15,8 15,19l0 40c0,10 -5,17 -15,17 -11,0 -16,-7 -16,-17l0 -40c0,-11 4,-19 16,-19zm0 -10c-19,0 -27,13 -27,30l0 39c0,15 10,27 27,27 17,0 26,-12 26,-27l0 -39c0,-17 -8,-30 -26,-30z"/>
   <path d="M561 333c5,0 10,0 16,1 -1,4 -1,7 -1,11 0,5 0,11 2,16 -6,-1 -12,-2 -17,-2 -19,0 -35,8 -47,20 -12,12 -20,28 -20,47 0,3 1,7 1,11 -8,-5 -17,-9 -27,-11l0 0c0,-26 10,-49 27,-66 17,-17 40,-27 66,-27z"/>
   <path d="M655 252c17,0 32,4 45,12 -5,7 -8,15 -11,24 -10,-6 -21,-10 -34,-10 -18,0 -35,8 -47,20l0 0c-12,12 -19,28 -19,47 0,14 4,27 12,38 -9,2 -17,6 -25,10 -8,-14 -13,-31 -13,-48 0,-26 10,-49 27,-66l0 0 0 0 0 0c17,-17 40,-27 65,-27zm53 168c-6,-7 -12,-13 -18,-18 4,-3 8,-7 12,-10l0 0 0 0c4,-4 8,-9 11,-14 2,2 4,4 6,6 -7,10 -11,22 -11,35l0 1z"/>
   <path d="M452 411c26,0 51,11 68,29l0 0 0 0c4,3 7,7 10,11 -3,9 -4,19 -4,30 0,21 6,41 18,58 -2,4 -3,9 -6,13 -2,5 -7,7 -11,7l0 0 -150 0c-6,0 -11,-3 -13,-8 -3,-7 -5,-13 -7,-20l0 -1c-1,-7 -2,-14 -2,-22 0,-26 11,-51 28,-68 18,-18 42,-29 69,-29zm50 47c-13,-12 -31,-20 -50,-20 -20,0 -38,8 -50,20 -13,13 -21,31 -21,50 0,6 1,11 2,16l0 1c1,3 1,5 2,8l133 0c1,-3 2,-5 2,-8 2,-5 2,-11 2,-17 0,-19 -8,-37 -20,-50l0 0z"/>
   <g>
    <path d="M777 208c29,0 56,12 74,31l1 1c10,9 17,21 23,34 -9,3 -17,7 -24,12 -4,-10 -10,-20 -18,-28l0 0c-14,-15 -34,-23 -56,-23 -21,0 -41,8 -55,23 -14,14 -23,33 -23,55 0,22 9,41 23,56l0 0c2,2 4,3 6,5 -7,6 -12,13 -16,21 -3,-2 -6,-5 -9,-8l0 0 0 0c-19,-19 -31,-45 -31,-74 0,-29 12,-55 31,-74l0 0 0 0c19,-19 46,-31 74,-31zm49 198l0 0 0 -1 0 1zm-8 -19c-1,-2 -2,-3 -3,-5l2 -1 1 6zm34 -147c5,5 4,13 -1,18l1 -18z"/>
   </g>
   <g>
    <path d="M906 255c29,0 55,12 74,31l0 0 0 0c19,19 31,45 31,74 0,11 -2,22 -5,32 -7,-5 -15,-10 -24,-13 2,-6 2,-13 2,-19 0,-22 -8,-41 -23,-56l0 0c-14,-14 -33,-23 -55,-23 -22,0 -41,9 -56,23 -14,15 -23,34 -23,56 0,21 9,41 23,55l0 1c4,4 9,7 14,10 -4,9 -6,17 -7,27 -10,-5 -18,-12 -25,-19l-1 -1 -4 -4c0,-3 0,-7 0,-10 0,-21 -10,-39 -26,-49 0,-4 0,-7 0,-10 0,-29 12,-55 31,-74 19,-19 45,-31 74,-31zm-75 178c-4,-5 -4,-13 1,-17l-1 17z"/>
   </g>
   <g>
    <path d="M948 359c29,0 55,11 74,30l0 1c19,19 30,45 30,74 0,28 -11,55 -30,74l0 0 0 0 0 0c-3,3 -6,5 -10,8l-119 0c2,-7 4,-14 5,-22 13,11 31,18 50,18 21,0 41,-9 55,-23l0 0 0 0c14,-14 23,-34 23,-55 0,-22 -8,-41 -22,-55l-1 -1c-14,-14 -34,-23 -55,-23 -22,0 -42,9 -56,23 -12,12 -21,29 -22,47 -8,-6 -16,-11 -25,-14 4,-20 14,-38 28,-52 19,-19 46,-30 75,-30zm74 31c5,5 5,13 0,18l0 -18z"/>
   </g>
   <path d="M768 346c20,0 38,8 51,21l1 1c13,13 21,31 21,51 0,7 -1,14 -3,20 -6,-1 -13,-2 -19,-2 -3,0 -6,0 -8,0 2,-5 3,-12 3,-18 0,-13 -5,-24 -13,-33l0 0c-9,-9 -21,-14 -33,-14 -13,0 -25,5 -34,14l0 0c-8,8 -13,20 -13,33 0,13 5,25 13,33l0 0 0 0c7,6 15,11 24,13 -6,7 -10,15 -14,23 -5,-2 -11,-4 -16,-8 0,-29 -13,-55 -33,-73 3,-15 10,-29 21,-40l0 0c13,-13 31,-21 52,-21z"/>
   <path d="M627 366c31,0 60,13 80,34 21,21 34,49 34,81 0,13 -3,27 -7,39 -5,13 -12,24 -20,35 -3,3 -7,4 -10,4l0 0 -154 0c-5,0 -9,-2 -11,-5 -8,-10 -15,-22 -20,-34 -4,-12 -7,-26 -7,-39 0,-32 13,-60 34,-81 21,-21 49,-34 81,-34zm62 53c-16,-16 -38,-26 -62,-26 -25,0 -47,10 -63,26 -15,15 -25,37 -25,62 0,10 2,21 5,30 3,8 7,15 12,22l141 0c5,-7 9,-14 12,-22 4,-9 6,-20 6,-30 0,-25 -10,-47 -26,-62z"/>
   <path d="M819 424c25,0 49,10 65,27l0 0c17,17 28,40 28,65 0,6 -1,12 -2,18 -1,6 -3,12 -5,17 -2,5 -7,8 -12,8l0 0 -148 0c-6,0 -11,-4 -12,-9 -2,-5 -4,-11 -5,-16 -1,-6 -2,-12 -2,-18 0,-25 11,-48 27,-65l1 -1c17,-16 40,-26 65,-26zm47 45c-12,-12 -29,-19 -47,-19 -18,0 -35,7 -46,19l-1 0c-12,12 -19,29 -19,47 0,5 0,9 1,13 0,1 0,3 1,4l128 0c0,-1 1,-3 1,-4 1,-4 1,-8 1,-13 0,-18 -7,-35 -19,-47l0 0 0 0z"/>
   <path d="M111 559c-7,0 -13,-6 -13,-13 0,-7 6,-13 13,-13l943 0c7,0 13,6 13,13 0,7 -6,13 -13,13l-943 0z"/>
  </g>
 </g>
</svg>
