<?xml version="1.0" encoding="UTF-8"?>
<!DOCTYPE svg PUBLIC "-//W3C//DTD SVG 1.1//EN" "http://www.w3.org/Graphics/SVG/1.1/DTD/svg11.dtd">
<svg xmlns="http://www.w3.org/2000/svg" xml:space="preserve" width="42.3333mm" height="42.3333mm" version="1.1" style="shape-rendering:geometricPrecision; text-rendering:geometricPrecision; image-rendering:optimizeQuality; fill-rule:evenodd; clip-rule:evenodd"
viewBox="0 0 1311 1311"
 xmlns:xlink="http://www.w3.org/1999/xlink">
 <g>
  <g>
   <path d="M656 298c98,0 188,40 252,105 65,64 105,154 105,253 0,98 -40,188 -105,252 -64,65 -154,105 -252,105 -99,0 -189,-40 -253,-105 -65,-64 -105,-154 -105,-252 0,-99 40,-189 105,-253 64,-65 154,-105 253,-105zm233 124c-60,-60 -142,-97 -233,-97 -92,0 -174,37 -234,97 -60,60 -97,142 -97,234 0,91 37,173 97,233 60,60 142,97 234,97 91,0 173,-37 233,-97 60,-60 97,-142 97,-233 0,-92 -37,-174 -97,-234z"/>
   <path d="M245 182l821 0c18,0 33,7 45,18l0 1c11,11 18,27 18,44l0 821c0,18 -7,33 -18,45l0 0 0 0c-12,11 -27,18 -45,18l-821 0c-17,0 -33,-7 -44,-18 -12,-12 -19,-27 -19,-45l0 -821c0,-17 7,-33 19,-45 0,0 0,0 0,0 12,-11 27,-18 44,-18zm821 27l-821 0c-10,0 -18,4 -25,10l0 1c-7,6 -11,15 -11,25l0 821c0,10 4,19 11,25 6,7 15,11 25,11l821 0c10,0 19,-4 25,-11l0 0c7,-6 11,-15 11,-25l0 -821c0,-10 -4,-19 -11,-25 -6,-7 -15,-11 -25,-11z"/>
   <circle cx="656" cy="656" r="47"/>
  </g>
 </g>
</svg>
