<?xml version="1.0" encoding="UTF-8"?>
<!DOCTYPE svg PUBLIC "-//W3C//DTD SVG 1.1//EN" "http://www.w3.org/Graphics/SVG/1.1/DTD/svg11.dtd">
<svg xmlns="http://www.w3.org/2000/svg" xml:space="preserve" width="42.3333mm" height="42.3333mm" version="1.1" style="shape-rendering:geometricPrecision; text-rendering:geometricPrecision; image-rendering:optimizeQuality; fill-rule:evenodd; clip-rule:evenodd"
  viewBox="0 0 1235 1235"
  xmlns:xlink="http://www.w3.org/1999/xlink">
  <defs>
  </defs>
  <g>
    <g>
     <path d="M171 581c-1,-7 3,-14 10,-15 7,-2 14,2 15,9l96 414 300 0c7,0 13,5 13,13 0,7 -6,12 -13,12l-310 0 0 0c-6,0 -11,-4 -12,-10l-99 -423z"/>
     <path d="M1037 575c1,-7 8,-11 15,-9 7,1 11,8 10,15l-99 423c-1,6 -7,10 -12,10l0 0 -395 0c-7,0 -12,-5 -12,-12 0,-8 5,-13 12,-13l384 0 97 -414z"/>
     <path d="M547 808c0,57 -12,105 -62,105 -14,0 -26,-4 -35,-7 -4,-1 -6,-2 -9,-2 -8,0 -15,8 -15,16 0,19 49,22 64,22 62,0 91,-52 91,-155 0,-86 -21,-144 -89,-144 -58,0 -84,43 -84,94 0,62 38,90 83,90 19,0 40,-5 56,-19zm1 -35c-11,13 -32,23 -55,23 -32,0 -52,-19 -52,-59 0,-31 13,-62 50,-62 42,0 57,38 57,88l0 10z"/>
     <path d="M701 669c36,0 51,25 51,61l0 126c0,33 -18,56 -51,56 -33,0 -50,-23 -50,-56l0 -126c0,-36 14,-61 50,-61zm0 -30c-58,0 -83,42 -83,94l0 123c0,48 29,86 83,86 54,0 83,-38 83,-86l0 -123c0,-52 -25,-94 -83,-94z"/>
     <path d="M839 650c12,0 17,9 17,21l0 42c0,11 -6,18 -17,18 -11,0 -17,-7 -17,-18l0 -42c0,-12 5,-21 17,-21zm0 -10c-19,0 -28,15 -28,32l0 41c0,16 10,29 28,29 18,0 28,-13 28,-29l0 -41c0,-17 -9,-32 -28,-32z"/>
     <path d="M593 352c6,0 12,1 17,2 0,3 -1,7 -1,11 0,6 1,12 2,17 -5,-1 -11,-2 -18,-2 -19,0 -37,8 -49,21 -13,12 -21,30 -21,49 0,4 0,8 1,12 -9,-5 -18,-9 -29,-11l0 -1c0,-27 11,-51 29,-69 18,-18 42,-29 69,-29z"/>
     <path d="M694 267c17,0 33,4 47,12 -5,8 -9,16 -12,25 -10,-6 -22,-9 -35,-9 -20,0 -37,7 -50,20l0 0c-13,13 -21,30 -21,50 0,15 5,29 13,40 -9,3 -18,6 -26,11 -9,-15 -14,-32 -14,-51 0,-27 11,-52 28,-69l0 0 0 -1 0 0c18,-17 43,-28 70,-28zm55 178c-6,-8 -12,-14 -19,-20 5,-3 9,-6 13,-11l0 1 0 -1c5,-4 8,-9 11,-14 2,2 5,4 7,6 -8,11 -12,24 -12,37l0 2z"/>
     <path d="M478 435c28,0 54,12 73,31l0 0 0 0c3,3 7,7 10,11 -3,10 -5,21 -5,32 0,23 7,44 20,61 -2,5 -4,10 -6,14 -3,5 -8,8 -13,8l0 0 -158 0c-6,0 -11,-4 -13,-9 -4,-7 -6,-14 -8,-21l0 -1c-2,-7 -3,-15 -3,-23 0,-28 12,-54 30,-72 19,-19 45,-31 73,-31zm53 50c-14,-13 -32,-22 -53,-22 -21,0 -39,9 -53,22 -13,14 -22,33 -22,53 0,6 1,12 2,17l0 0c1,3 2,6 3,9l140 0c1,-3 2,-6 3,-9 1,-5 2,-11 2,-17 0,-20 -9,-39 -22,-53l0 0z"/>
     <g>
      <path d="M823 220c30,0 58,13 78,33l1 1c10,10 18,22 24,36 -9,3 -18,8 -25,13 -4,-11 -11,-21 -19,-30l-1 0c-15,-15 -35,-25 -58,-25 -23,0 -44,10 -59,25 -15,15 -24,35 -24,58 0,23 9,44 24,59l0 0c2,2 4,4 6,6 -7,6 -12,14 -16,22 -3,-2 -7,-5 -10,-8l0 0 0 0c-20,-20 -32,-48 -32,-79 0,-30 12,-58 32,-78l0 0 1 0c20,-20 47,-33 78,-33zm52 209l-1 1 0 -2 1 1zm-9 -19c-1,-2 -2,-4 -4,-6l2 -1 2 7zm36 -156c5,5 4,13 -1,19l1 -19z"/>
    </g>
    <g>
      <path d="M959 270c30,0 58,12 78,33l0 0 0 0c20,20 33,47 33,78 0,12 -2,24 -6,34 -7,-6 -16,-11 -25,-14 2,-7 3,-13 3,-20 0,-23 -9,-44 -25,-59l1 0c-16,-15 -36,-24 -59,-24 -23,0 -44,9 -59,24 -15,15 -24,36 -24,59 0,23 9,43 23,58l1 1c4,4 9,8 14,11 -4,9 -6,18 -7,28 -10,-5 -19,-12 -27,-20l0 0 -5 -5c0,-4 1,-7 1,-11 0,-21 -11,-40 -28,-52 0,-3 0,-7 0,-10 0,-31 12,-58 32,-78 20,-21 48,-33 79,-33zm-79 189c-5,-6 -5,-14 0,-19l0 19z"/>
    </g>
    <g>
      <path d="M1003 380c31,0 58,12 78,32l1 1c20,20 32,47 32,78 0,30 -13,58 -33,78l0 0 0 0 0 0c-3,3 -6,6 -10,9l-126 0c3,-7 5,-15 5,-23 15,12 33,19 53,19 23,0 43,-10 58,-24l1 -1 0 0c15,-15 24,-35 24,-58 0,-23 -9,-44 -24,-59l0 0c-15,-15 -36,-25 -59,-25 -23,0 -44,10 -59,25 -13,13 -22,30 -24,50 -7,-7 -16,-12 -26,-15 5,-21 16,-40 30,-55 20,-20 48,-32 79,-32zm79 33c5,5 5,14 -1,19l1 -19z"/>
    </g>
    <path d="M812 366c22,0 41,9 55,23l1 0c13,14 22,33 22,54 0,8 -1,15 -3,22 -7,-2 -13,-3 -20,-3 -3,0 -6,1 -9,1 2,-6 4,-13 4,-20 0,-13 -6,-25 -14,-34l-1 -1c-9,-8 -21,-14 -35,-14 -13,0 -26,5 -35,14l0 0c-9,9 -14,22 -14,35 0,14 5,26 14,35l0 0 0 0c7,7 16,12 26,14 -7,7 -12,16 -15,25 -6,-2 -12,-5 -18,-9 0,-30 -13,-58 -34,-78 3,-16 11,-30 22,-41l0 0c14,-14 33,-23 54,-23z"/>
    <path d="M663 388c34,0 64,13 86,35 22,22 35,52 35,86 0,14 -3,28 -7,41 -5,14 -13,26 -22,37 -2,3 -6,5 -10,5l0 0 -163 0c-5,0 -9,-2 -12,-6 -8,-10 -15,-22 -20,-36 -5,-13 -8,-27 -8,-41 0,-34 14,-64 36,-86 22,-22 52,-35 85,-35zm66 55c-17,-17 -40,-27 -66,-27 -26,0 -49,10 -66,27 -16,17 -27,40 -27,66 0,11 2,22 6,32 3,8 7,16 12,23l150 0c5,-7 9,-15 13,-23 3,-10 5,-21 5,-32 0,-26 -10,-49 -27,-66z"/>
    <path d="M867 448c27,0 51,11 69,29l0 0c18,18 29,42 29,70 0,6 -1,12 -2,18 -1,6 -3,12 -5,18 -3,6 -8,9 -13,9l0 0 -156 0c-7,0 -12,-4 -14,-10 -2,-5 -4,-11 -5,-17 -1,-6 -1,-12 -1,-18 0,-28 11,-52 28,-70l1 -1c18,-17 42,-28 69,-28zm49 49c-12,-13 -30,-21 -49,-21 -19,0 -37,8 -49,20l-1 1c-13,13 -21,30 -21,50 0,4 1,9 2,13 0,1 0,3 1,4l136 0c0,-1 0,-3 1,-4 0,-4 1,-9 1,-13 0,-20 -8,-37 -21,-50l0 0 0 0z"/>
    <path d="M118 592c-8,0 -14,-6 -14,-14 0,-8 6,-14 14,-14l997 0c8,0 14,6 14,14 0,8 -6,14 -14,14l-997 0z"/>
  </g>
</g>
</svg>
