<svg 
  xmlns="http://www.w3.org/2000/svg" 
  viewBox="0 0 1398 1398"
  xmlns:xlink="http://www.w3.org/1999/xlink"
>
   <path d="M692 131c150,0 286,61 385,159l0 1 0 -1c99,99 160,235 160,386 0,73 -15,144 -42,208 -6,-9 -13,-17 -20,-26 21,-56 33,-118 33,-182 0,-143 -58,-272 -151,-365l0 0c-93,-94 -223,-152 -365,-152 -143,0 -272,58 -365,152l0 0 0 0c-93,93 -151,222 -151,365 0,142 58,271 151,365 93,93 222,151 365,151 46,0 91,-6 134,-18 7,8 15,16 23,23 -50,15 -102,23 -157,23 -150,0 -287,-61 -385,-159 -99,-99 -160,-235 -160,-385 0,-151 61,-287 160,-385l0 0c98,-99 235,-160 385,-160z"/>
   <path d="M692 255c116,0 221,47 297,123l0 0c76,76 123,181 123,298 0,43 -6,85 -19,125 -8,-4 -17,-7 -26,-10 11,-36 17,-75 17,-115 0,-109 -44,-207 -115,-278l0 0 0 0c-71,-70 -169,-114 -277,-114 -108,0 -206,43 -277,114l0 0c-71,71 -115,169 -115,278 0,108 44,206 115,277l0 0c71,71 169,115 277,115 26,0 52,-3 77,-8 2,9 4,19 7,28 -27,5 -55,8 -84,8 -116,0 -221,-47 -297,-123l0 0 0 0c-76,-76 -123,-181 -123,-297 0,-117 47,-222 123,-298l0 -1c76,-75 181,-122 297,-122z"/>
   <path d="M584 500c19,0 36,8 48,20l0 0c12,12 20,29 20,48 0,18 -8,35 -20,48l0 0 0 0c-12,12 -29,19 -48,19 -18,0 -35,-7 -48,-19 -12,-13 -20,-29 -20,-48 0,-19 8,-36 20,-48l1 -1c12,-12 29,-19 47,-19zm28 40c-7,-7 -17,-11 -28,-11 -10,0 -20,4 -27,10l-1 1c-7,7 -11,17 -11,28 0,11 4,20 11,28 7,7 17,11 28,11 11,0 21,-4 28,-11l0 0 0 0c7,-8 11,-17 11,-28 0,-11 -4,-21 -11,-28l0 0 0 0z"/>
   <path d="M770 500c19,0 36,8 48,20l0 0c13,12 20,29 20,48 0,18 -7,35 -20,48l0 0 0 0c-12,12 -29,19 -48,19 -18,0 -35,-7 -47,-19l-1 -1c-12,-12 -19,-29 -19,-47 0,-19 7,-36 20,-48l0 0c12,-12 29,-20 47,-20zm28 40c-7,-7 -17,-11 -28,-11 -10,0 -20,4 -27,11l0 0 0 0c-7,7 -12,17 -12,28 0,10 4,20 11,27l1 1c7,7 17,11 27,11 11,0 21,-4 28,-11l0 0 0 0c7,-8 12,-17 12,-28 0,-11 -5,-21 -12,-28l0 0 0 0z"/>
   <path d="M584 699c19,0 36,8 48,20l0 0c12,12 20,29 20,48 0,19 -8,36 -20,48l-1 1c-12,12 -29,19 -47,19 -19,0 -36,-8 -48,-20l-1 -1c-11,-12 -19,-29 -19,-47 0,-19 8,-36 20,-48l1 -1c12,-11 29,-19 47,-19zm28 40c-7,-7 -17,-11 -28,-11 -10,0 -20,4 -27,11l-1 0c-7,7 -11,17 -11,28 0,11 4,20 11,27l0 1c8,7 17,11 28,11 11,0 20,-4 27,-10l1 -1c7,-7 11,-17 11,-28 0,-11 -4,-21 -11,-28l0 0 0 0z"/>
   <path d="M770 699c19,0 36,8 48,20l0 0c13,12 20,29 20,48 0,19 -7,36 -20,48l-1 1c-12,12 -28,19 -47,19 -18,0 -35,-8 -47,-20l0 0 0 0c-13,-12 -20,-29 -20,-48 0,-19 7,-36 20,-48l0 0c12,-12 29,-20 47,-20zm28 40c-7,-7 -17,-11 -28,-11 -10,0 -20,4 -27,11l0 0 0 0c-7,7 -12,17 -12,28 0,11 5,21 12,28l0 0c7,7 17,11 27,11 11,0 20,-4 27,-10l1 -1c7,-7 12,-17 12,-28 0,-11 -5,-21 -12,-28l0 0 0 0z"/>
   <path d="M1001 767c69,0 131,28 176,74 45,45 73,107 73,176 0,69 -28,132 -73,177l-1 0c-45,45 -107,73 -175,73 -69,0 -132,-28 -177,-73l-1 -1c-44,-45 -72,-107 -72,-176 0,-69 28,-131 73,-176l1 -1c45,-45 107,-73 176,-73zm156 94c-40,-40 -95,-65 -156,-65 -61,0 -116,24 -156,64l-1 1c-40,40 -64,95 -64,156 0,61 24,116 64,156l0 0c40,41 96,65 157,65 60,0 116,-24 156,-64l0 0c40,-41 65,-96 65,-157 0,-61 -25,-116 -65,-156z"/>
   <circle cx="938" cy="975" r="46"/>
   <circle cx="1069" cy="1056" r="46"/>
</svg>
