<?xml version="1.0" encoding="UTF-8"?>
<!DOCTYPE svg PUBLIC "-//W3C//DTD SVG 1.1//EN" "http://www.w3.org/Graphics/SVG/1.1/DTD/svg11.dtd">
<svg xmlns="http://www.w3.org/2000/svg" xml:space="preserve" width="42.3333mm" height="42.3333mm" version="1.1" style="shape-rendering:geometricPrecision; text-rendering:geometricPrecision; image-rendering:optimizeQuality; fill-rule:evenodd; clip-rule:evenodd"
  viewBox="0 0 24702 24702"
  xmlns:xlink="http://www.w3.org/1999/xlink">
  <g>
    <g>
     <g>
      <path d="M1718 3737c-198,0 -359,-161 -359,-360 0,-198 161,-359 359,-359l3804 0c174,0 319,123 352,287l3425 11223 11538 0c199,0 360,161 360,360 0,198 -161,359 -360,359l-11802 0 0 -1c-154,0 -296,-100 -343,-254l-3434 -11255 -3540 0zm4156 -432c5,23 8,48 8,72l-8 -72z"/>
    </g>
    <path d="M8044 12003c-199,0 -360,-161 -360,-359 0,-198 161,-360 360,-360l13964 0c198,0 359,162 359,360 0,198 -161,359 -359,359l-13964 0z"/>
    <path d="M7278 9492c-198,0 -359,-161 -359,-360 0,-198 161,-359 359,-359l15705 0c198,0 359,161 359,359 0,199 -161,360 -359,360l-15705 0z"/>
    <g>
      <path d="M10790 17649c555,0 1059,226 1425,591l1 1 0 0 5 5c362,366 586,868 586,1421 0,557 -225,1061 -591,1426 -7,8 -15,15 -22,21 -364,353 -859,570 -1404,570 -557,0 -1062,-226 -1427,-591 -7,-7 -14,-15 -21,-22 -352,-364 -570,-859 -570,-1404 0,-556 226,-1060 592,-1426l-1 -1c365,-365 870,-591 1427,-591zm918 1098c-234,-234 -558,-379 -918,-379 -359,0 -684,146 -918,380l-1 0 -1 0c-234,234 -379,559 -379,919 0,351 139,669 363,902l18 16c234,235 559,380 918,380 351,0 669,-138 902,-363l16 -17c235,-235 380,-560 380,-918 0,-360 -144,-685 -378,-919l-2 -1zm513 -501c135,141 133,364 -6,502l6 -502z"/>
    </g>
    <path d="M17911 17649c557,0 1061,226 1426,591 8,7 15,15 21,23 353,364 570,859 570,1404 0,557 -226,1061 -591,1426 -365,365 -869,591 -1426,591 -557,0 -1062,-226 -1427,-591 -365,-365 -591,-869 -591,-1426 0,-556 226,-1060 592,-1426l-1 -1c365,-365 870,-591 1427,-591zm918 1099c-235,-234 -560,-380 -918,-380 -359,0 -684,146 -919,380l0 0 -1 0c-234,234 -379,559 -379,919 0,358 145,683 380,918 235,235 560,380 919,380 358,0 683,-145 918,-380 235,-235 380,-560 380,-918 0,-352 -138,-670 -363,-902l-17 -17z"/>
  </g>
</g>
</svg>
