<svg 
	xmlns="http://www.w3.org/2000/svg" 
 	xmlns:xlink="http://www.w3.org/1999/xlink"
	viewBox="0 0 147903 147903"
 >
 <path d="M132921 19512c653,750 620,1894 -93,2608l93 -2608zm-116977 81250c753,-653 1894,-620 2608,94l-2608 -94zm9915 6753c753,-663 1900,-633 2617,84l-2617 -84zm45126 -12243l503 0c3876,0 7403,1593 9960,4144l6 6c2552,2557 4145,6084 4145,9960 0,3877 -1591,7406 -4148,9963l3 4c-2557,2557 -6086,4147 -9966,4147l-21703 0 -48 0 -6901 0 -48 0 -10442 0c-2554,0 -4891,-1051 -6578,-2741l-3 3c-1686,-1687 -2738,-4018 -2738,-6581 0,-2560 1052,-4891 2738,-6578l94 -84c1683,-1636 3978,-2654 6487,-2654l37760 0c1057,0 1918,862 1918,1919 0,1057 -861,1918 -1918,1918l-37760 0c-1467,0 -2813,591 -3801,1539l-27 28 -42 45c-991,991 -1611,2364 -1611,3867 0,1506 620,2879 1611,3870l-3 3 3 3c985,988 2361,1606 3870,1606l10442 0 48 0 6901 0 48 0 21703 0c2822,0 5394,-1160 7256,-3021l3 3 3 -3c1858,-1855 3012,-4425 3012,-7256 0,-2822 -1157,-5394 -3012,-7255l-6 -6c-1862,-1856 -4434,-3012 -7256,-3012l-28652 0c-204,0 -403,-33 -587,-93l-12758 0c-4225,0 -8069,1713 -10864,4469l-75 81c-2804,2804 -4551,6684 -4551,10942 0,4265 1744,8138 4545,10939l6 7c2801,2801 6674,4544 10939,4544l40907 0c4500,0 7876,-406 10830,-1918 2970,-1527 5708,-4262 8958,-8933l39852 -68490c2139,-3677 3220,-6129 3747,-8656 533,-2545 548,-5385 548,-9749 0,-3913 -1587,-7472 -4138,-10057l-78 -75c-2599,-2599 -6190,-4217 -10132,-4217l-50888 0 -53780 77284 13638 0 536 -9 40907 0c205,0 404,33 587,94zm-53002 3740l-6334 0c-1054,0 -1913,-858 -1913,-1912 0,-404 127,-780 344,-1091l-6 -2 56448 -81116c370,-533 966,-822 1575,-822l0 -3 51888 0c5000,0 9551,2051 12843,5343l93 103c3237,3286 5250,7797 5250,12740 0,4575 -19,7563 -639,10526 -620,2982 -1828,5753 -4180,9801l-39859 68498 -6 12 -24 42 -21 34 -4 9 -21 33 -3 9 -23 33 -4 6 -24 33 -3 9 -24 30c-3617,5202 -6780,8313 -10367,10156 -3626,1855 -7505,2352 -12571,2352l-40907 0c-5307,0 -10141,-2177 -13644,-5677l-3 -3 -3 -3 -3 -3c-3496,-3500 -5674,-8334 -5674,-13641 0,-5315 2175,-10149 5677,-13652l103 -94c638,-629 1319,-1213 2039,-1750z"/>
</svg>
