<?xml version="1.0" encoding="UTF-8"?>
<!DOCTYPE svg PUBLIC "-//W3C//DTD SVG 1.1//EN" "http://www.w3.org/Graphics/SVG/1.1/DTD/svg11.dtd">
<svg xmlns="http://www.w3.org/2000/svg" xml:space="preserve" width="42.3333mm" height="42.3333mm" version="1.1" style="shape-rendering:geometricPrecision; text-rendering:geometricPrecision; image-rendering:optimizeQuality; fill-rule:evenodd; clip-rule:evenodd"
viewBox="0 0 1497 1497"
 xmlns:xlink="http://www.w3.org/1999/xlink">
 <g>
  <g>
   <path d="M216 377l0 0 0 -1 1 0 0 0 0 0 0 0 1 -1 0 0c2,-1 4,-3 6,-5l0 0c11,-11 17,-25 17,-41 0,-16 -6,-31 -17,-41l0 0c-10,-11 -25,-17 -41,-17 -16,0 -31,6 -41,17l0 0c-11,10 -17,25 -17,41 0,16 6,30 17,41l0 0c10,10 25,17 41,17 12,0 24,-4 33,-10zm1098 -171c-16,0 -31,6 -41,17l0 0c-11,10 -17,25 -17,41 0,16 6,31 17,41l0 0c10,11 25,17 41,17 16,0 30,-6 41,-17 10,-10 17,-25 17,-41 0,-16 -7,-31 -17,-41 -11,-11 -25,-17 -41,-17zm-68 -10c17,-17 41,-28 68,-28 26,0 50,11 68,28 17,17 28,41 28,68 0,27 -11,51 -28,68 -18,17 -42,28 -68,28 -7,0 -14,-1 -20,-2l-180 365c10,7 20,14 29,22 112,88 182,206 182,315l0 52 22 0c14,0 26,5 35,14l0 0c9,9 15,22 15,35l0 175c0,13 -6,26 -15,35 -9,9 -21,14 -35,14l-1176 0c-14,0 -26,-5 -35,-14l0 0c-9,-9 -15,-22 -15,-35l0 -175c0,-13 6,-26 15,-35 9,-9 21,-14 35,-14l22 0 0 -52c0,-110 70,-228 181,-315 11,-9 23,-18 35,-26l-188 -302c-11,5 -24,8 -38,8 -27,0 -51,-11 -68,-28l0 0c-17,-18 -28,-42 -28,-68 0,-27 11,-51 28,-68l0 0c17,-18 41,-28 68,-28 26,0 50,10 68,28l0 0c17,17 28,41 28,68 0,25 -10,49 -26,66l188 303c46,-27 96,-49 149,-64l-58 -245c-3,1 -6,1 -10,1 -26,0 -50,-11 -68,-28l0 0c-17,-18 -28,-42 -28,-68 0,-27 11,-51 28,-68 18,-18 42,-28 68,-28 27,0 51,10 68,28l0 0c17,17 28,41 28,68 0,26 -11,50 -28,68l0 0c-6,6 -13,11 -21,16l58 247c42,-10 87,-15 132,-15l0 0c40,0 79,4 117,12l7 -322c-15,-5 -29,-13 -40,-25l-1 0c-17,-17 -28,-41 -28,-67 0,-27 11,-51 28,-68l1 0c17,-18 41,-29 67,-29 27,0 51,11 68,29l0 0c18,17 29,41 29,68 0,26 -11,50 -29,67l0 0c-15,15 -35,26 -57,28l-8 327c23,6 46,14 67,22l44 -188c-11,-5 -21,-12 -29,-20 -17,-17 -28,-41 -28,-68 0,-26 11,-50 28,-68l0 0c18,-17 42,-28 68,-28 27,0 51,11 68,28 18,18 28,42 28,68 0,27 -10,51 -28,68 -17,18 -41,28 -68,28l-2 0 -45 195c23,10 45,22 66,35l177 -359c-5,-3 -9,-7 -13,-11l0 0c-18,-17 -28,-41 -28,-68 0,-27 10,-51 28,-68l0 0zm-1015 916l1056 0 0 -52c0,-97 -64,-204 -167,-285 -13,-11 -27,-20 -41,-30l0 0c-23,-15 -47,-28 -72,-40l-36 156c-2,10 -13,16 -23,14 -10,-2 -16,-13 -14,-23l38 -163c-66,-25 -137,-41 -213,-41l0 0c-42,0 -84,5 -123,14l30 126c2,10 -4,21 -15,23 -10,2 -20,-4 -22,-14l-30 -126c-49,14 -96,35 -138,60l83 134c6,8 3,20 -6,26 -9,5 -20,2 -26,-6l-83 -134c-11,8 -22,15 -32,23 -102,81 -166,188 -166,286l0 52zm1116 38l-1176 0c-3,0 -6,1 -8,3 -2,2 -4,5 -4,8l0 175c0,3 2,6 4,8l0 0c2,2 5,3 8,3l1176 0c4,0 6,-1 8,-3 3,-2 4,-5 4,-8l0 -175c0,-3 -1,-6 -3,-8l-1 0c-2,-2 -4,-3 -8,-3zm-300 -718l3 0c1,1 3,1 4,1 3,1 6,1 9,1 16,0 31,-6 41,-17 11,-10 17,-25 17,-41 0,-16 -6,-30 -17,-41 -10,-10 -25,-17 -41,-17 -16,0 -30,7 -41,17l0 0c-10,11 -17,25 -17,41 0,16 7,31 17,41 7,7 15,12 25,15zm-137 -283c-16,0 -30,7 -41,17l0 0c-10,11 -17,26 -17,42 0,16 7,30 17,41l0 0c11,10 25,17 41,17 16,0 31,-7 41,-17l1 0c10,-11 16,-25 16,-41 0,-16 -6,-31 -17,-42l0 0c-10,-10 -25,-17 -41,-17zm-388 87c-16,0 -30,6 -41,17 -10,10 -17,25 -17,41 0,16 7,30 17,41l0 0c11,10 25,17 41,17 16,0 31,-7 41,-17l0 0c11,-11 17,-25 17,-41 0,-16 -6,-31 -17,-41l0 0c-10,-11 -25,-17 -41,-17z"/>
  </g>
 </g>
</svg>
