<?xml version="1.0" encoding="UTF-8"?>
<!DOCTYPE svg PUBLIC "-//W3C//DTD SVG 1.1//EN" "http://www.w3.org/Graphics/SVG/1.1/DTD/svg11.dtd">
<svg xmlns="http://www.w3.org/2000/svg" xml:space="preserve" width="42.3333mm" height="42.3333mm" version="1.1" style="shape-rendering:geometricPrecision; text-rendering:geometricPrecision; image-rendering:optimizeQuality; fill-rule:evenodd; clip-rule:evenodd"
  viewBox="0 0 1743 1743"
  xmlns:xlink="http://www.w3.org/1999/xlink">
  <g>
    <g>
     <g>
      <path d="M857 417c-95,-91 -188,-140 -272,-156 -71,-13 -136,-2 -191,27 -56,30 -102,78 -134,140 -43,82 -62,187 -50,303 21,186 147,295 371,489 84,72 181,156 291,259 109,-103 206,-187 290,-259 224,-194 350,-303 371,-489 13,-116 -7,-221 -49,-303 -33,-62 -79,-110 -135,-140 -55,-29 -120,-40 -191,-27 -84,16 -177,65 -271,156 -9,8 -22,8 -30,0zm-264 -198c88,16 182,65 279,153 96,-88 190,-137 278,-153 81,-15 156,-3 220,31 63,33 115,88 152,158 47,89 68,203 54,328 -23,203 -153,316 -386,517 -87,75 -188,162 -303,272 -9,8 -22,8 -30,0 -116,-110 -217,-197 -304,-272 -233,-201 -363,-314 -386,-517 -13,-125 8,-239 54,-328 37,-70 89,-125 153,-158 63,-34 138,-46 219,-31zm294 1306l0 0 0 0z"/>
    </g>
  </g>
</g>
</svg>
