<?xml version="1.0" encoding="UTF-8"?>
<!DOCTYPE svg PUBLIC "-//W3C//DTD SVG 1.1//EN" "http://www.w3.org/Graphics/SVG/1.1/DTD/svg11.dtd">
<svg xmlns="http://www.w3.org/2000/svg" xml:space="preserve" width="10.4166mm" height="10.4166mm" version="1.1" style="shape-rendering:geometricPrecision; text-rendering:geometricPrecision; image-rendering:optimizeQuality; fill-rule:evenodd; clip-rule:evenodd"
viewBox="0 0 10417 10417"
 xmlns:xlink="http://www.w3.org/1999/xlink">
 <g>
  <g>
   <path d="M2731 761l4955 0c1083,0 1970,886 1970,1970l0 4955c0,1083 -887,1970 -1970,1970l-4955 0c-1084,0 -1970,-887 -1970,-1970l0 -4955c0,-1084 886,-1970 1970,-1970zm1130 1119l2695 0c1089,0 1981,892 1981,1981l0 2695c0,1089 -892,1981 -1981,1981l-2695 0c-1090,0 -1981,-892 -1981,-1981l0 -2695c0,-1089 891,-1981 1981,-1981zm56 646l2583 0c765,0 1391,626 1391,1391l0 2583c0,765 -626,1391 -1391,1391l-2583 0c-765,0 -1392,-626 -1392,-1391l0 -2583c0,-765 627,-1391 1392,-1391zm1291 1621c587,0 1062,475 1062,1061 0,587 -475,1062 -1062,1062 -586,0 -1061,-475 -1061,-1062 0,-586 475,-1061 1061,-1061zm0 -648c944,0 1710,765 1710,1709 0,944 -766,1710 -1710,1710 -944,0 -1709,-766 -1709,-1710 0,-944 765,-1709 1709,-1709zm1747 -451c225,0 407,182 407,407 0,224 -182,406 -407,406 -224,0 -406,-182 -406,-406 0,-225 182,-407 406,-407z"/>
  </g>
 </g>
</svg>
