<?xml version="1.0" encoding="UTF-8"?>
<!DOCTYPE svg PUBLIC "-//W3C//DTD SVG 1.1//EN" "http://www.w3.org/Graphics/SVG/1.1/DTD/svg11.dtd">
<!-- Creator: CorelDRAW X7 -->
<svg xmlns="http://www.w3.org/2000/svg" xml:space="preserve" width="42.3333mm" height="42.3333mm" version="1.1" style="shape-rendering:geometricPrecision; text-rendering:geometricPrecision; image-rendering:optimizeQuality; fill-rule:evenodd; clip-rule:evenodd"
viewBox="0 0 5109 5109"
 xmlns:xlink="http://www.w3.org/1999/xlink">
 <g>
  <g>
   <path d="M3670 2652c-28,-9 -44,-40 -36,-69 9,-28 40,-44 69,-35 104,32 348,111 551,222 220,122 391,285 308,480 -25,56 -121,113 -239,162 -188,79 -439,150 -498,163 -22,6 -124,36 -265,78 -401,120 -1118,334 -1290,350 -108,11 -392,-42 -701,-113l-1 0 0 0c-456,-104 -974,-249 -1055,-286 -96,-45 -161,-98 -199,-167 -39,-69 -47,-152 -29,-255 38,-215 269,-278 269,-278l4 -1 1306 -322c29,-7 59,11 66,40 7,29 -11,59 -40,66l-1306 322 -2 0c0,0 -164,45 -189,192 -14,78 -9,137 16,184 26,47 76,85 150,120 76,36 583,176 1034,279l0 0c300,69 572,120 667,111 159,-15 871,-228 1269,-346 143,-43 246,-74 271,-80 57,-13 299,-81 481,-158 95,-39 169,-78 180,-103 54,-125 -85,-246 -260,-342 -193,-107 -430,-183 -531,-214z"/>
   <path d="M574 3011c-30,3 -57,-18 -60,-48 -3,-30 18,-57 48,-60 1,0 72,-12 330,32 149,25 519,108 830,191 223,60 417,121 486,163 57,36 96,83 115,131 14,37 17,75 9,111l-1 3c-9,35 -29,67 -61,93 -38,32 -94,53 -168,56 -228,12 -1365,-332 -1368,-333 -29,-8 -45,-39 -36,-67 8,-29 39,-46 67,-37 4,1 1123,339 1332,329 49,-3 83,-15 105,-32 12,-10 20,-23 23,-35l1 -2c3,-14 2,-30 -4,-47 -11,-27 -35,-55 -71,-77 -59,-37 -243,-93 -457,-151 -309,-82 -674,-164 -820,-189 -243,-41 -300,-31 -300,-31z"/>
   <path d="M2764 368c370,0 705,150 947,392 242,242 392,577 392,946 0,370 -150,704 -392,947 -242,242 -577,392 -947,392 -369,0 -704,-150 -946,-392 -242,-243 -392,-577 -392,-947 0,-369 150,-704 392,-946 242,-242 577,-392 946,-392zm870 469c-223,-223 -530,-360 -870,-360 -339,0 -647,137 -869,360 -222,222 -360,530 -360,869 0,340 138,647 360,869 222,223 530,361 869,361 340,0 647,-138 870,-361 222,-222 360,-529 360,-869 0,-339 -138,-647 -360,-869z"/>
   <path d="M2458 1622c181,0 278,-138 278,-315 0,-177 -97,-315 -278,-315 -181,0 -278,138 -278,315 0,177 99,315 278,315zm613 800c181,0 277,-138 277,-315 0,-178 -98,-315 -277,-315 -182,0 -278,137 -278,315 0,177 96,315 278,315zm88 -1328c4,-4 6,-9 6,-13 12,-36 -10,-75 -43,-87 -34,-10 -67,2 -85,33l-664 1273 -7 15c-10,38 9,77 45,91 33,8 67,-4 85,-37l663 -1275zm-701 406c-98,0 -144,-71 -144,-197 0,-118 46,-189 144,-189 99,0 144,71 144,189 0,126 -45,197 -144,197zm613 800c-99,0 -144,-71 -144,-197 0,-118 45,-189 144,-189 98,0 143,71 143,189 0,126 -45,197 -143,197z"/>
   <path d="M736 3583c25,-17 59,-11 76,13 18,25 12,59 -13,76 -63,44 -113,91 -141,140 -24,42 -30,87 -11,132 11,26 86,64 181,104 182,76 424,145 481,158 25,6 128,36 271,79 398,119 1110,331 1269,347 95,9 367,-43 667,-111 451,-103 957,-244 1034,-279 74,-35 124,-74 150,-121 25,-46 30,-106 16,-184 -26,-147 -189,-191 -189,-191l-2 -1 -726 -175c-29,-7 -47,-36 -40,-65 7,-30 37,-48 66,-40l725 175c2,0 3,0 5,1 0,0 231,62 269,278 18,103 9,185 -29,255 -38,68 -103,121 -199,166 -81,38 -599,183 -1055,287 -310,70 -594,123 -702,113 -172,-17 -889,-231 -1291,-351 -140,-42 -242,-72 -264,-77 -59,-14 -310,-85 -498,-164 -118,-49 -215,-105 -239,-161 -34,-81 -24,-157 17,-228 36,-64 98,-123 172,-176z"/>
   <path d="M4547 3639c29,3 51,30 48,60 -4,30 -30,52 -60,48 0,0 -57,-9 -300,32 -146,25 -511,106 -820,189 -214,57 -398,114 -457,150l0 0c-36,23 -60,50 -71,78 -6,16 -7,32 -4,46l0 2c4,13 12,25 24,35 22,18 56,30 105,32 209,10 1328,-328 1331,-328 29,-9 60,7 68,36 9,29 -7,59 -36,68 -3,1 -1140,344 -1368,333 -74,-4 -130,-25 -168,-57 -32,-25 -52,-57 -61,-93l-1 -3c-8,-35 -5,-73 9,-110 19,-49 57,-96 114,-131l1 0 0 0c69,-43 263,-104 486,-163 311,-84 681,-166 830,-191 258,-44 329,-33 330,-33z"/>
  </g>
 </g>
</svg>
