<?xml version="1.0" encoding="UTF-8"?>
<!DOCTYPE svg PUBLIC "-//W3C//DTD SVG 1.1//EN" "http://www.w3.org/Graphics/SVG/1.1/DTD/svg11.dtd">
<!-- Creator: CorelDRAW X7 -->
<svg xmlns="http://www.w3.org/2000/svg" xml:space="preserve" width="42.3333mm" height="42.3333mm" version="1.1" style="shape-rendering:geometricPrecision; text-rendering:geometricPrecision; image-rendering:optimizeQuality; fill-rule:evenodd; clip-rule:evenodd"
viewBox="0 0 4116 4116"
 xmlns:xlink="http://www.w3.org/1999/xlink">
 <g>
  <g>
   <g>
    <path d="M2112 419l0 0 509 1034 1141 164c33,5 56,36 51,69 -2,15 -10,27 -20,37l-824 801 196 1136c6,33 -16,64 -49,70 -14,2 -27,0 -39,-6l-2 -1 -1017 -537 -1020 538c-29,15 -66,4 -82,-26 -6,-12 -8,-25 -6,-38l0 0 197 -1136 -827 -803c-24,-24 -24,-62 -1,-86 10,-10 22,-16 35,-18l0 0 1141 -164 509 -1034c14,-30 50,-42 80,-28 13,6 22,16 28,28zm414 1116l-468 -953 -467 950c-8,19 -26,33 -47,36l-1051 152 759 737c15,14 23,35 20,56l-181 1046 939 -495 0 0c17,-9 38,-10 56,0l939 495 -181 -1046 0 0c-3,-19 3,-39 17,-53l762 -740 -1051 -152 0 0c-19,-2 -37,-14 -46,-33zm1267 188c-13,11 -30,17 -49,14l49 -14z"/>
   </g>
  </g>
 </g>
</svg>
