<?xml version="1.0" encoding="UTF-8" standalone="no"?>
<svg
   xmlns:dc="http://purl.org/dc/elements/1.1/"
   xmlns:cc="http://creativecommons.org/ns#"
   xmlns:rdf="http://www.w3.org/1999/02/22-rdf-syntax-ns#"
   xmlns:svg="http://www.w3.org/2000/svg"
   xmlns="http://www.w3.org/2000/svg"
   viewBox="0 0 549 549.11084"
   height="549.11084"
   width="549"
   version="1.1"
   id="svg2">
  <metadata
     id="metadata8">
    <rdf:RDF>
      <cc:Work
         rdf:about="">
        <dc:format>image/svg+xml</dc:format>
        <dc:type
           rdf:resource="http://purl.org/dc/dcmitype/StillImage" />
        <dc:title></dc:title>
      </cc:Work>
    </rdf:RDF>
  </metadata>
  <defs
     id="defs6" />
  <path
     id="path3338"
     d="M 88,548.83612 C 45.53023,543.39229 11.48206,512.62963 1.85084,471 0.08456,463.3655 0,454.38795 0,274.5 0,94.61206 0.0846,85.63451 1.85084,78 10.64064,40.00728 40.00728,10.64065 78,1.85084 85.63451,0.08456 94.61206,0 274.49998,0 c 179.888,0 188.8655,0.0846 196.5,1.85084 37.9928,8.78981 67.3594,38.15644 76.1492,76.14916 1.7663,7.63451 1.8508,16.61206 1.8508,196.5 0,179.88795 -0.085,188.8655 -1.8508,196.5 -8.6264,37.28635 -36.3127,65.58856 -74.1492,75.79863 l -8,2.15878 -187,0.13163 C 175.15,549.16144 89.65,549.04764 88,548.83612 Z m 382.99038,-32.65975 c 21.2656,-7.51477 37.7304,-23.97329 45.1937,-45.17637 l 2.8159,-8 0,-188.5 0,-188.5 -2.8236,-7.9904 c -7.5148,-21.26552 -23.9733,-37.73034 -45.1764,-45.19366 l -8,-2.81594 -188.5,0 L 86,30 78,32.81594 C 67.16495,36.62979 57.29426,42.97201 49.43216,51.17163 41.4882,59.45662 36.57331,67.39867 32.82364,78.0096 L 30,86 l 0,188.5 0,188.5 2.81594,8 c 6.86181,19.49422 22.68039,36.3656 40.86834,43.58833 12.46595,4.95044 4.92691,4.78024 203.3157,4.59001 l 186,-0.17834 7.9904,-2.82363 z M 192.88535,469.93654 C 178.88377,464.78811 171.24116,447.52189 177.75,435.7427 c 1.2375,-2.23953 18.99328,-21.05946 39.45718,-41.82207 20.4639,-20.7626 36.9749,-38.12604 36.691,-38.58541 -0.2839,-0.45937 -2.1206,-0.83522 -4.0815,-0.83522 -5.6264,0 -27.2053,-4.666 -37.4665,-8.10136 -22.06406,-7.38684 -45.73686,-23.02364 -52.6092,-34.75042 -8.20376,-13.99865 3.94172,-35.05384 20.25902,-35.12068 6.25331,-0.0256 10.50659,1.55415 20.61658,7.65745 27.4425,16.5667 52.1581,23.35268 79.8834,21.93302 25.3887,-1.30002 44.5176,-7.35238 66.2061,-20.94758 10.3238,-6.47131 15.7042,-8.65928 21.2939,-8.65928 8.4916,0 16.7,5.45837 20.9414,13.92539 6.9102,13.79485 2.9422,23.19726 -15.6219,37.01737 -18.5385,13.80106 -44.2296,23.43049 -70.881,26.5673 -2.9912,0.35205 -6.0829,0.84611 -6.8705,1.09792 -0.9126,0.29174 12.3969,14.31922 36.69,38.66935 40.5032,40.59831 42.2201,42.7033 42.1762,51.71152 -0.089,18.32835 -21.1288,31.61589 -36.0264,22.75258 -2.4243,-1.44233 -17.2298,-15.47671 -32.9012,-31.1875 C 283.88298,415.3871 276.43058,408.5 274.59678,408.5 c -1.8384,0 -9.3743,7.00925 -31.5066,29.30493 -19.0091,19.14942 -30.4764,29.95072 -33.0902,31.16843 -5.2692,2.45483 -12.0241,2.83498 -17.11463,0.96318 z M 258.49998,276.04499 C 211.06758,268.2399 175.5,226.31227 175.5,178.20338 c 0,-58.89728 51.28588,-105.29658 109.26318,-98.85241 49.532,5.50549 86.0079,44.75379 88.428,95.14903 1.9854,41.34266 -22.8922,79.73758 -61.8415,95.4432 -16.0366,6.46649 -36.3681,8.81387 -52.8497,6.10179 z m 28.4651,-51.0779 c 13.6929,-3.56655 25.2245,-13.18489 31.1289,-25.96401 12.8996,-27.91959 -1.9636,-60.37358 -31.1289,-67.97017 -13.1793,-3.43277 -27.6255,-1.1068 -39.071,6.29079 -7.6409,4.93855 -12.7869,10.8958 -16.9967,19.6763 -13.0497,27.21789 1.8421,60.15521 30.7073,67.91748 7.149,1.92248 18.0878,1.94388 25.3604,0.0496 z"
     style="fill:#000000" />
</svg>
