<?xml version="1.0" encoding="UTF-8"?>
<!DOCTYPE svg PUBLIC "-//W3C//DTD SVG 1.1//EN" "http://www.w3.org/Graphics/SVG/1.1/DTD/svg11.dtd">
<svg xmlns="http://www.w3.org/2000/svg" xml:space="preserve" width="42.3333mm" height="42.3333mm" version="1.1" style="shape-rendering:geometricPrecision; text-rendering:geometricPrecision; image-rendering:optimizeQuality; fill-rule:evenodd; clip-rule:evenodd"
viewBox="0 0 1610 1610"
 xmlns:xlink="http://www.w3.org/1999/xlink">
 <g>
  <g>
   <path d="M681 481l0 0 -1 0 -121 0 0 0 -1 0 -146 0 -81 981 474 0 474 0 -80 -981 -156 0 -1 0 0 0 -121 0 -1 0 0 0 -115 0 -124 0zm18 412c63,0 96,-48 96,-109 0,-62 -33,-110 -96,-110 -63,0 -96,48 -96,110 0,61 34,109 96,109zm212 277c63,0 96,-48 96,-109 0,-62 -34,-110 -96,-110 -62,0 -96,48 -96,110 0,61 34,109 96,109zm31 -460c1,-1 2,-3 2,-5 4,-12 -3,-26 -15,-30 -12,-3 -23,1 -29,12l-230 440 -3 6c-3,13 3,27 16,31 11,3 23,-1 29,-13l230 -441zm-243 141c-34,0 -50,-25 -50,-69 0,-41 16,-65 50,-65 34,0 50,24 50,65 0,44 -16,69 -50,69zm212 276c-34,0 -49,-24 -49,-68 0,-41 15,-65 49,-65 34,0 50,24 50,65 0,44 -16,68 -50,68zm-251 -688l0 -82c0,-39 16,-74 42,-99l0 0 0 0c25,-26 60,-42 98,-42 39,0 74,16 99,42l2 1c24,25 40,60 40,98l0 82 81 0 0 -69c0,-61 -25,-117 -65,-157 -40,-40 -96,-65 -157,-65 -60,0 -116,25 -156,65l0 0c-40,40 -65,96 -65,157l0 69 81 0zm240 0l0 -82c0,-27 -11,-52 -29,-70l-1 0c-18,-18 -42,-29 -70,-29 -27,0 -52,11 -69,29l-1 0c-17,18 -29,42 -29,70l0 82 104 0 95 0zm-507 0l145 0 0 -69c0,-73 30,-138 77,-186l0 0 0 0c48,-47 113,-77 185,-77 73,0 138,30 186,77 47,48 77,113 77,186l0 69 155 0c11,0 20,9 20,21l84 1021c1,11 -8,21 -19,22l-2 0 0 0 -496 0 -496 0c-11,0 -21,-9 -21,-20 0,-1 0,-2 1,-3l83 -1022c1,-10 10,-18 21,-18l0 -1z"/>
  </g>
 </g>
</svg>
