<?xml version="1.0" encoding="UTF-8"?>
<!DOCTYPE svg PUBLIC "-//W3C//DTD SVG 1.1//EN" "http://www.w3.org/Graphics/SVG/1.1/DTD/svg11.dtd">
<!-- Creator: CorelDRAW X7 -->
<svg xmlns="http://www.w3.org/2000/svg" xml:space="preserve" width="42.3333mm" height="42.3333mm" version="1.1" style="shape-rendering:geometricPrecision; text-rendering:geometricPrecision; image-rendering:optimizeQuality; fill-rule:evenodd; clip-rule:evenodd"
viewBox="0 0 2599 2599"
 xmlns:xlink="http://www.w3.org/1999/xlink">
 <g>
  <g>
   <path d="M1385 1257c7,-9 20,-9 28,-2 8,7 8,20 1,28 -18,20 -47,36 -83,48 -34,10 -75,17 -118,17 -59,0 -112,-12 -151,-30 -44,-21 -71,-51 -71,-86 0,-35 27,-65 71,-86 39,-18 92,-30 151,-30 42,0 82,6 115,16 36,11 65,27 83,46 8,8 8,20 0,28 -8,8 -20,7 -28,0 -14,-15 -37,-27 -66,-36 -30,-9 -65,-14 -104,-14 -53,0 -101,10 -135,26 -29,14 -48,32 -48,50 0,18 19,36 48,50 34,16 82,26 135,26 39,0 76,-5 106,-15 30,-9 53,-22 66,-36z"/>
   <path d="M1415 1309c10,-5 22,-1 26,9 5,9 1,21 -8,26 -29,14 -63,26 -101,33 -37,8 -77,12 -119,12 -83,0 -158,-16 -213,-42 -60,-28 -97,-69 -97,-115 0,-46 37,-87 97,-115 55,-26 130,-42 213,-42 42,0 82,4 118,11 38,8 72,19 101,34 9,4 13,16 8,26 -5,9 -16,13 -26,9 -25,-13 -56,-23 -90,-30 -34,-7 -71,-11 -111,-11 -77,0 -147,15 -197,39 -45,21 -73,49 -73,79 0,30 28,58 73,80 50,23 120,38 197,38 40,0 77,-4 111,-11 35,-7 66,-17 91,-30z"/>
   <path d="M1453 1364c10,-4 21,1 25,11 4,11 -1,22 -12,26 -35,13 -76,23 -119,30 -42,7 -87,11 -134,11 -114,0 -217,-22 -292,-58 -80,-37 -129,-91 -129,-152 0,-61 49,-115 129,-152 75,-36 178,-58 292,-58 45,0 88,4 129,10 43,7 82,16 117,29 10,3 16,15 12,25 -4,10 -15,15 -25,12 -33,-12 -70,-21 -110,-27 -38,-6 -80,-10 -123,-10 -108,0 -205,21 -275,54 -66,31 -107,73 -107,117 0,44 41,86 107,117 70,33 167,54 275,54 45,0 88,-4 127,-10 41,-7 79,-17 113,-29z"/>
   <path d="M1487 1408c11,-3 22,2 25,13 3,10 -2,21 -13,24 -41,14 -87,24 -136,32 -48,7 -98,10 -150,10 -140,0 -267,-27 -360,-71 -97,-46 -157,-111 -157,-184 0,-73 60,-138 157,-184 93,-44 220,-71 360,-71 50,0 98,3 143,9 46,7 90,16 130,29 11,3 16,14 13,24 -3,10 -14,16 -24,13 -38,-12 -80,-21 -124,-27 -44,-6 -90,-9 -138,-9 -134,0 -256,26 -343,67 -83,39 -134,92 -134,149 0,57 51,110 134,149 87,41 209,67 343,67 50,0 99,-4 144,-10 47,-7 91,-17 130,-30z"/>
   <path d="M696 1225c0,-11 9,-20 20,-20 11,0 20,9 20,20l0 373c0,57 51,109 134,149 87,41 209,67 343,67 135,0 256,-26 343,-67 83,-40 135,-92 135,-149 0,-11 8,-20 19,-20 11,0 20,9 20,20 0,73 -60,138 -157,184 -92,44 -220,71 -360,71 -140,0 -267,-27 -360,-71 -97,-46 -157,-111 -157,-184l0 -373z"/>
   <path d="M743 1403c-8,-8 -8,-20 0,-28 7,-7 20,-7 27,0l338 339c8,8 8,21 0,28 -7,8 -20,8 -27,0l-338 -339z"/>
   <path d="M743 1511c-8,-7 -8,-20 0,-27 7,-8 20,-8 27,0l233 234c8,7 8,20 0,27 -7,8 -20,8 -27,0l-233 -234z"/>
   <path d="M919 1734c-7,7 -20,8 -27,0 -8,-8 -8,-20 -1,-28l189 -191c7,-7 19,-8 27,0 8,8 8,20 0,28l-188 191z"/>
   <path d="M842 1685c-7,8 -20,8 -27,1 -8,-8 -8,-20 -1,-28l164 -166c8,-8 20,-8 28,0 7,7 7,19 0,27l-164 166z"/>
   <path d="M1352 1740c-8,7 -20,8 -28,0 -8,-8 -8,-20 0,-28l222 -226c8,-7 20,-7 28,0 8,8 8,20 0,28l-222 226z"/>
   <path d="M1471 1740c-7,7 -20,8 -28,0 -7,-8 -7,-20 0,-28l172 -174c7,-8 20,-8 28,0 7,7 7,20 0,27l-172 175z"/>
   <path d="M1539 1703c7,7 7,20 -1,27 -7,8 -20,8 -27,0l-186 -189c-7,-7 -7,-20 0,-27 8,-8 20,-8 28,0l186 189z"/>
   <path d="M1628 1656c7,8 7,20 -1,27 -7,8 -20,8 -27,0l-159 -161c-8,-8 -8,-20 0,-28 8,-8 20,-7 28,0l159 162z"/>
   <path d="M143 1242c-7,8 -20,8 -28,1 -8,-7 -8,-20 -1,-28 82,-89 209,-163 366,-215 151,-50 330,-78 521,-78 89,0 174,6 256,17 84,12 164,30 238,53 10,3 16,14 13,24 -3,10 -14,16 -24,13 -72,-22 -150,-39 -232,-51 -80,-11 -164,-17 -251,-17 -187,0 -361,28 -509,76 -151,50 -272,121 -349,205z"/>
   <path d="M713 1257c11,-2 21,5 22,16 2,11 -6,21 -16,22 -131,20 -250,62 -348,118 -100,58 -179,131 -226,212 -5,9 -17,12 -27,6 -6,-3 -9,-10 -9,-16l0 0 0 -383c0,-11 8,-20 19,-20 11,0 20,9 20,20l0 319c50,-65 120,-124 203,-172 103,-59 226,-102 362,-122z"/>
   <path d="M189 1421c-8,8 -20,8 -28,0 -8,-7 -8,-20 0,-27l303 -309c8,-7 20,-7 28,0 7,8 7,20 0,28l-303 308z"/>
   <path d="M364 1363c-8,8 -20,8 -28,0 -8,-7 -8,-20 0,-28l268 -273c8,-7 20,-7 28,0 8,8 8,20 0,28l-268 273z"/>
   <path d="M280 1192c-7,-8 -7,-20 0,-28 8,-8 20,-8 28,0l148 148c7,8 7,20 0,28 -8,7 -20,7 -28,0l-148 -148z"/>
   <path d="M334 1145c-8,-8 -8,-20 0,-28 7,-8 20,-7 27,0l148 148c8,8 8,20 0,28 -8,8 -20,8 -28,0l-147 -148z"/>
   <path d="M2078 983c51,28 93,64 118,100 28,39 37,78 20,109 -17,30 -55,43 -103,40 -44,-3 -96,-19 -147,-47 -52,-29 -93,-65 -118,-101 -28,-38 -37,-77 -21,-107 0,-1 1,-2 2,-3 17,-29 55,-42 102,-39 43,3 96,19 147,48l0 0zm86 122c-22,-30 -59,-62 -105,-88l0 0c-46,-26 -93,-40 -131,-43 -32,-2 -57,5 -66,20l0 0c-9,16 -2,41 18,68 22,31 58,63 105,88 46,26 92,41 130,43 33,2 58,-4 67,-20 8,-16 1,-41 -18,-68z"/>
   <path d="M2081 981c-1,0 -2,-1 -3,-1 -67,-37 -134,-58 -189,-62 -51,-3 -89,8 -103,34 -15,26 -4,64 25,105 32,45 85,91 152,129 1,0 2,1 3,1 67,37 134,58 189,62 50,3 89,-8 103,-34 14,-26 4,-64 -26,-105 -32,-45 -85,-91 -151,-129zm18 -34c72,40 130,91 165,140 38,54 51,107 28,147 -22,41 -74,58 -140,54 -60,-4 -134,-27 -207,-67l0 0c-72,-41 -130,-92 -166,-141 -38,-53 -50,-107 -28,-147 23,-41 75,-58 140,-54 61,4 135,27 207,67l1 1z"/>
   <path d="M2125 901l0 0 0 0c99,55 178,125 226,192 51,71 68,142 38,195 -29,54 -98,77 -186,71 -83,-6 -184,-37 -283,-92l-1 0 -1 -1 0 0 0 0 0 0c-98,-55 -178,-124 -226,-192 -50,-71 -67,-141 -39,-194 1,-1 1,-2 2,-3 30,-52 99,-74 186,-69 82,6 183,37 283,92l0 0 1 1 0 0zm-19 34c-1,0 -2,-1 -2,-1 -94,-52 -189,-81 -266,-87 -72,-4 -128,12 -150,51l0 0c-21,38 -6,94 36,154 45,62 120,127 213,180 1,0 2,1 3,1 94,52 188,82 265,87 73,4 129,-12 150,-51 22,-38 6,-94 -36,-153 -45,-63 -119,-128 -213,-181z"/>
   <path d="M2146 861c123,68 221,154 280,237 62,87 83,173 47,237 -36,64 -120,92 -226,85 -103,-7 -227,-45 -349,-113l-1 -1c-122,-68 -220,-153 -279,-237 -62,-86 -83,-171 -48,-235 0,-1 1,-3 1,-4 37,-62 120,-90 226,-83 102,7 226,45 349,114l0 0zm248 259c-56,-78 -150,-160 -267,-225l0 0c-117,-66 -236,-102 -332,-109 -92,-6 -163,15 -190,65l0 0c-28,50 -9,121 45,196 56,78 149,159 265,225 1,0 2,0 3,1 117,65 235,101 331,108 92,6 162,-15 190,-65 28,-50 8,-121 -45,-196z"/>
   <path d="M1574 826c5,-10 17,-13 26,-8 10,6 13,17 8,27l-181 326c-28,49 -9,120 44,195 57,79 150,160 268,226l0 0c117,65 235,102 332,108 92,6 162,-15 190,-64l178 -320c5,-9 17,-13 27,-8 9,6 12,18 7,27l-178 320c-36,64 -120,91 -226,84 -103,-6 -227,-45 -349,-113l0 0c-123,-68 -221,-154 -280,-237 -63,-87 -83,-173 -48,-237l182 -326z"/>
   <path d="M1512 1116c18,0 35,8 47,20 12,12 20,29 20,47 0,19 -8,36 -20,48 -12,12 -29,19 -47,19 -19,0 -35,-7 -47,-19 -13,-12 -20,-29 -20,-48 0,-18 7,-35 20,-47 12,-12 28,-20 47,-20zm20 48c-6,-5 -12,-8 -20,-8 -8,0 -15,3 -20,8 -5,5 -8,12 -8,19 0,8 3,15 8,20 5,5 12,8 20,8 8,0 14,-3 20,-8 5,-5 8,-12 8,-20 0,-7 -3,-14 -8,-19z"/>
   <path d="M1653 1146c18,0 35,8 47,20 12,12 20,29 20,47 0,19 -8,36 -20,48 -12,12 -29,19 -47,19 -19,0 -35,-7 -48,-19 -12,-12 -19,-29 -19,-48 0,-18 7,-35 19,-47 13,-12 29,-20 48,-20zm19 48c-5,-5 -12,-8 -19,-8 -8,0 -15,3 -20,8 -5,5 -8,12 -8,19 0,8 3,15 8,20 5,5 12,8 20,8 7,0 14,-3 19,-8 5,-5 9,-12 9,-20 0,-7 -4,-14 -9,-19z"/>
   <path d="M1556 1271c19,0 35,8 47,20 13,12 20,29 20,47 0,19 -7,36 -20,48 -12,12 -28,19 -47,19 -18,0 -35,-7 -47,-19 -12,-12 -20,-29 -20,-48 0,-18 8,-35 20,-47 12,-12 29,-20 47,-20zm20 48c-5,-5 -12,-8 -20,-8 -8,0 -15,3 -20,8 -5,5 -8,12 -8,19 0,8 3,15 8,20 5,5 12,8 20,8 8,0 15,-3 20,-8 5,-5 8,-12 8,-20 0,-7 -3,-14 -8,-19z"/>
   <path d="M1700 1311c19,0 36,8 48,20 12,12 19,29 19,47 0,19 -7,35 -19,47 -12,13 -29,20 -48,20 -18,0 -35,-7 -47,-20 -12,-12 -20,-28 -20,-47 0,-18 8,-35 20,-47 12,-12 29,-20 47,-20zm20 47c-5,-5 -12,-8 -20,-8 -7,0 -14,3 -19,8 -5,5 -8,12 -8,20 0,8 3,15 8,20 5,5 12,8 19,8 8,0 15,-3 20,-8 5,-5 8,-12 8,-20 0,-8 -3,-15 -8,-20z"/>
   <path d="M1855 1313c19,0 36,8 48,20 12,12 19,29 19,47 0,19 -7,35 -19,47 -12,13 -29,20 -48,20 -18,0 -35,-7 -47,-20 -12,-12 -20,-28 -20,-47 0,-18 8,-35 20,-47 12,-12 29,-20 47,-20zm20 47c-5,-5 -12,-8 -20,-8 -7,0 -14,3 -19,8 -5,5 -8,12 -8,20 0,8 3,15 8,20 5,5 12,8 19,8 8,0 15,-3 20,-8 5,-5 8,-12 8,-20 0,-8 -3,-15 -8,-20z"/>
   <path d="M2098 1414c18,0 35,7 47,19 12,13 20,29 20,48 0,18 -8,35 -20,47 -12,12 -29,20 -47,20 -19,0 -36,-8 -48,-20 -12,-12 -19,-29 -19,-47 0,-19 7,-35 19,-48 12,-12 29,-19 48,-19zm19 47c-5,-5 -12,-8 -19,-8 -8,0 -15,3 -20,8 -5,5 -8,12 -8,20 0,7 3,14 8,19 5,5 12,9 20,9 7,0 14,-4 19,-9 5,-5 8,-12 8,-19 0,-8 -3,-15 -8,-20z"/>
   <path d="M2208 1503c18,0 35,8 47,20 12,12 20,29 20,47 0,19 -8,36 -20,48 -12,12 -29,19 -47,19 -19,0 -36,-7 -48,-19 -12,-12 -19,-29 -19,-48 0,-18 7,-35 19,-47 12,-12 29,-20 48,-20zm19 48c-5,-5 -12,-8 -19,-8 -8,0 -15,3 -20,8 -5,5 -8,12 -8,19 0,8 3,15 8,20 5,5 12,8 20,8 7,0 14,-3 19,-8 5,-5 8,-12 8,-20 0,-7 -3,-14 -8,-19z"/>
   <path d="M2034 1554c19,0 36,7 48,19 12,12 19,29 19,48 0,18 -7,35 -19,47 -12,12 -29,20 -48,20 -18,0 -35,-8 -47,-20 -12,-12 -20,-29 -20,-47 0,-19 8,-36 20,-48 12,-12 29,-19 47,-19zm20 47c-5,-5 -12,-8 -20,-8 -7,0 -14,3 -19,8 -5,5 -8,12 -8,20 0,7 3,14 8,19 5,5 12,8 19,8 8,0 15,-3 20,-8 5,-5 8,-12 8,-19 0,-8 -3,-15 -8,-20z"/>
   <path d="M1935 1442c19,0 35,7 47,19 13,12 20,29 20,48 0,18 -7,35 -20,47 -12,12 -28,20 -47,20 -18,0 -35,-8 -47,-20 -12,-12 -20,-29 -20,-47 0,-19 8,-36 20,-48 12,-12 29,-19 47,-19zm20 47c-5,-5 -12,-8 -20,-8 -8,0 -15,3 -20,8 -5,5 -8,12 -8,20 0,7 3,14 8,19 5,5 12,8 20,8 8,0 15,-3 20,-8 5,-5 8,-12 8,-19 0,-8 -3,-15 -8,-20z"/>
   <path d="M1771 1458c19,0 36,7 48,19 12,13 19,29 19,48 0,18 -7,35 -19,47 -12,12 -29,20 -48,20 -18,0 -35,-8 -47,-20 -12,-12 -20,-29 -20,-47 0,-19 8,-35 20,-48 12,-12 29,-19 47,-19zm20 47c-5,-5 -12,-8 -20,-8 -7,0 -14,3 -19,8 -5,5 -8,12 -8,20 0,7 3,14 8,19 5,5 12,9 19,9 8,0 15,-4 20,-9 5,-5 8,-12 8,-19 0,-8 -3,-15 -8,-20z"/>
  </g>
 </g>
</svg>
