<?xml version="1.0" encoding="UTF-8" standalone="no"?>
<svg
   xmlns:dc="http://purl.org/dc/elements/1.1/"
   xmlns:cc="http://creativecommons.org/ns#"
   xmlns:rdf="http://www.w3.org/1999/02/22-rdf-syntax-ns#"
   xmlns:svg="http://www.w3.org/2000/svg"
   xmlns="http://www.w3.org/2000/svg"
   viewBox="0 0 549 549.93481"
   height="549.93481"
   width="549"
   version="1.1"
   id="svg2">
  <metadata
     id="metadata8">
    <rdf:RDF>
      <cc:Work
         rdf:about="">
        <dc:format>image/svg+xml</dc:format>
        <dc:type
           rdf:resource="http://purl.org/dc/dcmitype/StillImage" />
        <dc:title></dc:title>
      </cc:Work>
    </rdf:RDF>
  </metadata>
  <defs
     id="defs6" />
  <path
     id="path3338"
     d="M 109.57352,548.35148 C 91.49255,545.56457 72.50635,538.10788 56.5,527.50724 46.90906,521.15539 28.38461,502.65405 22.09813,493.1483 12.19708,478.17697 5.32299,461.62449 1.77471,444.21049 0.11865,436.08296 0,424.7707 0,275.00069 0,125.23067 0.11865,113.91841 1.77471,105.79088 7.24428,78.947725 18.57094,57.890255 37.98025,38.480945 53.96915,22.492055 68.94666,13.210515 89.5,6.5542649 c 20.87409,-6.76011997 15.04351,-6.5535799693 185,-6.5535799693 169.9565,0 164.1259,-0.2065400007 185,6.5535799693 20.5533,6.6562501 35.5309,15.9377901 51.5197,31.9266801 19.4094,19.40931 30.736,40.46678 36.2056,67.309935 1.6561,8.12753 1.7747,19.43979 1.7747,169.20981 0,149.77001 -0.1186,161.08227 -1.7747,169.2098 -5.4696,26.84315 -16.7962,47.90062 -36.2056,67.30993 -16.1136,16.11366 -30.7859,25.20541 -51.5197,31.92447 -20.9127,6.77702 -14.846,6.56654 -186.12834,6.45767 -129.64662,-0.0824 -155.88146,-0.33084 -163.79814,-1.55108 z M 444,522.29012 c 41.9076,-11.35054 71.7456,-43.3502 78.9514,-84.67092 1.3529,-7.75838 1.5486,-28.30652 1.5486,-162.61851 0,-165.40387 0.105,-161.75007 -5.0958,-177.346905 C 507.8411,62.976795 479.5569,36.900695 443.5,27.675435 l -8.5,-2.17475 -160.5,0 -160.5,0 -8.5,2.17475 C 69.44312,36.900695 41.15886,62.976795 29.59579,97.653785 24.39501,113.25062 24.5,109.59682 24.5,275.00069 c 0,168.89464 -0.23407,161.94256 6.06049,179.9995 3.43617,9.85717 10.1356,21.87317 17.10045,30.67112 15.9841,20.19099 42.16067,34.98895 68.33906,38.63298 1.65,0.22968 74.325,0.35798 161.5,0.2851 l 158.5,-0.1325 8,-2.16677 z M 398.5,395.14203 c -12.9481,-4.25 -20.3737,-10.01331 -37.0378,-28.74647 -14.4651,-16.26122 -20.4057,-21.94539 -25.5279,-24.42595 -5.9669,-2.88962 -8.8084,-2.52919 -13.5038,1.71286 -7.1918,6.49732 -9.5474,13.07775 -10.94359,30.57057 -1.69743,21.26758 -1.69882,21.26841 -35.98691,21.18739 -24.16905,-0.0571 -25.99584,-0.19463 -35,-2.63484 -14.37836,-3.89665 -24.78876,-8.24833 -36.36528,-15.20113 C 180.21871,363.24062 166.73199,351.53541 151.17638,331.64159 129.73223,304.21701 116.73451,284.71191 99.64999,254.31816 83.93829,226.3667 62.95977,182.60879 61.7772,175.32145 c -0.71823,-4.42592 1.74339,-7.95479 6.46334,-9.26557 2.26873,-0.63005 17.15803,-1.04625 37.5493,-1.04961 43.56951,-0.007 40.71754,-1.17138 50.20644,20.49442 7.01671,16.02109 25.06259,50.89936 32.29772,62.42358 15.52019,24.72079 30.05943,32.16483 35.96117,18.41198 4.25286,-9.91043 6.61236,-34.47858 5.26635,-54.83556 -1.83261,-27.71617 -6.22617,-35.95065 -21.08345,-39.51486 -2.83341,-0.67972 -4.93807,-1.74873 -4.93807,-2.50816 0,-2.48403 5.08345,-7.37075 10.2959,-9.89744 8.21381,-3.98157 17.63327,-5.02278 45.7041,-5.05202 35.62854,-0.0371 44.71718,1.98112 49.41159,10.97248 2.02768,3.88368 2.08841,5.30855 2.08841,49 0,41.16731 0.15311,45.33952 1.7977,48.98635 2.7971,6.20227 5.4685,8.51365 9.84,8.51365 3.2577,0 4.7015,-0.85344 10.2942,-6.08518 15.2759,-14.28986 35.9974,-48.45913 51.9053,-85.59083 3.3157,-7.73946 5.6144,-11.73688 7.4754,-13 2.4786,-1.68229 5.9501,-1.84502 44.6874,-2.09467 38.5332,-0.24834 42.2872,-0.12453 45.4797,1.5 5.3947,2.74509 6.7104,5.94901 5.2677,12.82725 -2.762,13.16771 -14.562,32.31642 -43.417,70.4561 -25.9333,34.27774 -27.9712,38.34357 -23.8757,47.63495 1.6511,3.74584 7.1056,9.75525 23.919,26.35237 28.9412,28.56903 40.0738,42.58348 42.712,53.76886 1.7048,7.22825 0.4175,11.54258 -4.3884,14.70701 -4.6503,3.06199 -7.9325,3.33541 -47.6973,3.9734 -28.022,0.44958 -31.5283,0.32394 -36.5,-1.30792 z"
     style="fill:#000000" />
</svg>
