<?xml version="1.0" encoding="UTF-8"?>
<!DOCTYPE svg PUBLIC "-//W3C//DTD SVG 1.1//EN" "http://www.w3.org/Graphics/SVG/1.1/DTD/svg11.dtd">
<svg xmlns="http://www.w3.org/2000/svg" xml:space="preserve" width="42.3333mm" height="42.3333mm" version="1.1" style="shape-rendering:geometricPrecision; text-rendering:geometricPrecision; image-rendering:optimizeQuality; fill-rule:evenodd; clip-rule:evenodd"
viewBox="0 0 6734 6734"
 xmlns:xlink="http://www.w3.org/1999/xlink">
 <g>
  <g>
   <path d="M3284 4544c0,-46 37,-83 83,-83 46,0 83,37 83,83l0 1549c0,45 -37,82 -83,82l-1012 0c-45,0 -82,-37 -82,-82 0,-3 0,-6 0,-8 18,-2839 -548,-3486 -1407,-4467 -49,-56 -100,-113 -142,-162 -30,-34 -26,-87 8,-116l0 0 0 -1 883 -760c34,-29 86,-26 116,7 204,197 406,420 605,665l3 5c203,252 404,528 601,826 25,38 15,89 -23,115 -38,25 -89,14 -115,-24 -194,-293 -391,-566 -591,-814l-4 -4c-179,-221 -360,-423 -541,-601l-763 657 87 99c876,1000 1456,1663 1448,4500l846 0 0 -1466z"/>
   <path d="M1693 1400c-33,30 -86,28 -116,-6 -31,-34 -29,-86 5,-117l535 -487c33,-31 86,-28 116,6 31,33 29,85 -5,116l-535 488z"/>
   <path d="M1973 1735c-34,31 -86,29 -117,-5 -30,-34 -28,-86 6,-117l535 -487c33,-31 86,-28 116,5 31,34 28,86 -5,117l-535 487z"/>
   <path d="M2256 2102c-34,31 -86,28 -117,-5 -30,-34 -28,-86 6,-117l534 -487c34,-31 86,-28 117,5 31,34 28,86 -5,117l-535 487z"/>
   <path d="M3367 1646l0 0c87,0 167,36 224,93 2,2 3,3 5,5 55,57 88,134 88,219l0 734c0,87 -35,167 -93,224l0 0c-58,58 -137,93 -224,93l0 0c-87,0 -166,-35 -224,-93l0 0 0 0c-58,-57 -93,-136 -93,-224l0 -734c0,-87 35,-167 93,-224 57,-57 137,-93 224,-93zm0 165l0 0c-42,0 -80,17 -107,45 -28,27 -45,65 -45,107l0 734c0,42 17,80 45,107l0 1c27,27 65,44 107,44l0 0c42,0 80,-17 107,-44l0 -1c28,-27 45,-65 45,-107l0 -734c0,-40 -16,-76 -41,-104l-4 -3c-27,-28 -65,-45 -107,-45z"/>
   <path d="M3284 3430c0,-46 37,-83 83,-83 46,0 83,37 83,83l0 723c0,46 -37,83 -83,83 -46,0 -83,-37 -83,-83l0 -723z"/>
   <path d="M2878 4913c-45,0 -82,-37 -82,-83 0,-46 37,-83 82,-83l489 0c46,0 83,37 83,83 0,46 -37,83 -83,83l-489 0z"/>
   <path d="M2934 3627c45,0 82,37 82,83 0,46 -37,83 -82,83l-1 0c-87,0 -166,-36 -224,-93 -57,-58 -93,-137 -93,-225l0 -436 -237 -400c-36,-61 -44,-131 -28,-195 16,-63 57,-121 117,-159l620 -392c39,-24 90,-12 114,26 24,39 13,90 -26,114l-620 391c-23,15 -39,37 -45,61 -6,23 -3,48 10,70l246 415c9,13 15,29 15,46l0 459c0,42 17,80 44,108 28,27 66,44 107,44l1 0z"/>
   <path d="M3602 2645c-46,0 -83,-37 -83,-83 0,-45 37,-82 83,-82 56,0 105,22 141,59 36,36 59,86 62,140l84 1644 0 5 0 7 0 2 1 0c0,78 -34,149 -87,201 -51,50 -121,83 -197,87l0 0c-8,0 -13,1 -16,1l-223 0 -223 0c-3,0 -8,-1 -16,-1l-2 0c-75,-4 -145,-37 -195,-87 -53,-52 -86,-123 -86,-201 0,-3 0,-7 0,-10l0 -2 0 -2 0 0 84 -1644c3,-54 26,-104 62,-140l0 0 0 0c36,-37 85,-59 141,-59 46,0 83,37 83,82 0,46 -37,83 -83,83 -9,0 -18,4 -24,11l-1 -1c-8,8 -13,20 -13,33l-84 1643 0 0 0 1 0 5c0,32 14,61 36,83 24,23 56,39 90,40l1 0 7 0 223 0 223 0 7 0 0 0 1 0c34,-1 66,-16 90,-40 22,-22 36,-51 36,-83l0 0 0 -4 0 -2 -84 -1643c0,-13 -5,-24 -14,-32 -6,-7 -15,-11 -24,-11z"/>
   <path d="M2878 5318c-45,0 -82,-38 -82,-83 0,-46 37,-83 82,-83l489 0c46,0 83,37 83,83 0,45 -37,83 -83,83l-489 0z"/>
   <path d="M2878 5723c-45,0 -82,-38 -82,-83 0,-46 37,-83 82,-83l489 0c46,0 83,37 83,83 0,45 -37,83 -83,83l-489 0z"/>
   <path d="M3367 5096c-46,0 -83,-37 -83,-83 0,-46 37,-83 83,-83l489 0c45,0 83,37 83,83 0,46 -38,83 -83,83l-489 0z"/>
   <path d="M3367 5501c-46,0 -83,-37 -83,-83 0,-46 37,-83 83,-83l489 0c45,0 83,37 83,83 0,46 -38,83 -83,83l-489 0z"/>
   <path d="M3367 5905c-46,0 -83,-37 -83,-82 0,-46 37,-83 83,-83l489 0c45,0 83,37 83,83 0,45 -38,82 -83,82l-489 0z"/>
   <path d="M3284 4544c0,-46 37,-83 83,-83 46,0 83,37 83,83l0 1466 846 0c-8,-2837 572,-3500 1448,-4500l87 -99 -763 -657c-182,179 -362,380 -541,601 -201,249 -400,523 -595,818 -26,38 -77,49 -115,24 -38,-26 -48,-77 -23,-115 198,-299 400,-577 605,-830 199,-247 401,-470 604,-666 30,-33 82,-36 116,-7l883 760 0 1 0 0c34,29 38,82 8,116 -42,49 -93,106 -142,162 -859,981 -1425,1628 -1407,4467 0,2 0,5 0,8 0,45 -37,82 -82,82l-1012 0c-46,0 -83,-37 -83,-82l0 -1549z"/>
   <path d="M5152 1277c34,31 36,83 5,117 -30,34 -82,36 -116,6l-535 -488c-34,-31 -36,-83 -5,-116 30,-34 83,-37 116,-6l535 487z"/>
   <path d="M4872 1613c34,31 36,83 6,117 -31,34 -83,36 -117,5l-535 -487c-33,-31 -36,-83 -5,-117 31,-33 83,-36 116,-5l535 487z"/>
   <path d="M4589 1980c34,31 37,83 6,117 -31,33 -83,36 -117,5l-534 -487c-34,-31 -37,-83 -6,-117 31,-33 83,-36 117,-5l534 487z"/>
   <path d="M3800 3793c-45,0 -82,-37 -82,-83 0,-46 37,-83 82,-83l0 0c42,0 80,-17 108,-44 27,-28 44,-66 44,-108l0 -459c0,-17 6,-33 15,-46l246 -415c13,-22 16,-47 10,-70 -6,-24 -22,-46 -45,-61l-620 -391c-39,-24 -51,-75 -26,-114 24,-38 75,-50 113,-26l621 392c60,38 101,96 117,159 16,64 8,134 -28,195l-237 400 0 436c0,88 -36,167 -93,225 -58,57 -137,93 -225,93l0 0z"/>
  </g>
 </g>
</svg>
