<?xml version="1.0" encoding="UTF-8"?>
<!DOCTYPE svg PUBLIC "-//W3C//DTD SVG 1.1//EN" "http://www.w3.org/Graphics/SVG/1.1/DTD/svg11.dtd">
<svg xmlns="http://www.w3.org/2000/svg" xml:space="preserve" width="42.3334mm" height="11.0066mm" version="1.1" style="shape-rendering:geometricPrecision; text-rendering:geometricPrecision; image-rendering:optimizeQuality; fill-rule:evenodd; clip-rule:evenodd"
viewBox="0 0 929 242"
 xmlns:xlink="http://www.w3.org/1999/xlink">
 <g>
  <g>
   <g>
    <circle fill="#AA437B" cx="123" cy="121" r="87"/>
    <path fill="#898989" d="M123 61c33,0 60,27 60,60 0,33 -27,60 -60,60 -33,0 -60,-27 -60,-60 0,-33 27,-60 60,-60z"/>
    <path fill="#FEFEFE" d="M123 55c37,0 66,29 66,66 0,36 -29,66 -66,66 -36,0 -66,-30 -66,-66 0,-37 30,-66 66,-66zm0 6c33,0 60,27 60,60 0,33 -27,60 -60,60 -33,0 -60,-27 -60,-60 0,-33 27,-60 60,-60z"/>
    <circle fill="#FEFEFE" cx="102" cy="102" r="10"/>
    <circle fill="#FEFEFE" cx="140" cy="102" r="10"/>
    <circle fill="#FEFEFE" cx="102" cy="140" r="10"/>
    <circle fill="#FEFEFE" cx="140" cy="140" r="10"/>
    <path fill="#FEFEFE" d="M123 40c33,0 62,22 74,52 -14,-27 -42,-46 -74,-46 -32,0 -60,19 -74,46 13,-30 41,-52 74,-52z"/>
    <path fill="#FEFEFE" d="M192 147c-10,30 -37,51 -69,51 -32,0 -59,-21 -69,-51 11,27 38,46 69,46 31,0 58,-19 69,-46z"/>
    <path fill="#AA437B" d="M301 95c2,0 3,1 5,3 1,1 3,3 3,4 1,2 2,3 2,5 1,2 1,4 1,6 0,3 -1,6 -2,9 -1,3 -3,5 -5,7 -3,2 -5,4 -8,5 -4,1 -7,1 -10,1l-27 0c-3,0 -4,0 -5,-1 -1,-1 -2,-3 -2,-5l0 -62c0,-2 1,-4 2,-5 1,-1 2,-1 5,-1l26 0c3,0 6,0 9,1 3,0 5,2 7,3 2,2 4,4 5,6 1,2 2,5 2,9 0,3 -1,5 -2,8 -2,3 -4,5 -6,6l0 1zm-6 17c0,-3 -1,-6 -2,-7 -2,-2 -5,-3 -8,-3l-15 0 0 19 15 0c2,0 4,0 5,-1 1,0 2,-1 3,-2 1,-1 2,-2 2,-3 0,-1 0,-2 0,-3zm-25 -23l14 0c1,0 2,0 3,0 1,-1 2,-1 3,-1 0,-1 1,-2 1,-3 1,-1 1,-2 1,-3 0,-2 -1,-4 -2,-5 -1,-2 -3,-2 -5,-2l-15 0 0 14z"/>
    <path fill="#AA437B" d="M365 120l-24 0 -5 13c0,1 0,2 -1,2 0,0 -1,0 -2,0l-12 0c-1,0 -1,0 -1,0 -1,-1 -1,-1 -1,-2l23 -67c0,-1 0,-2 1,-2 0,-1 1,-2 1,-2 1,-1 2,-1 3,-1 0,0 1,0 2,0l7 0c1,0 2,0 3,0 1,0 1,0 2,1 1,0 1,1 2,1 0,1 1,2 1,3l22 67c0,1 0,1 0,2 0,0 0,0 -1,0l-13 0c-1,0 -1,0 -2,0 0,0 -1,-1 -1,-1l-4 -14zm-21 -13l17 0 -4 -14 -4 -15 -1 0 -4 15 -4 14z"/>
    <path fill="#AA437B" d="M451 70c0,2 -1,3 -1,5 -1,1 -2,2 -3,4l-35 42 1 1 36 0c1,0 2,0 2,0 0,0 0,1 0,2l0 9c0,1 0,2 0,2 0,0 -1,0 -2,0l-52 0c-2,0 -3,0 -4,-1 -2,-1 -2,-2 -2,-4l0 -3c0,-2 0,-3 1,-4 0,-2 1,-3 2,-4l36 -44 0 0 -32 0c-1,0 -2,-1 -2,-3l0 -9c0,-1 0,-2 0,-2 1,0 1,0 2,0l46 0c3,0 4,0 5,1 1,1 2,2 2,5l0 3z"/>
    <path fill="#AA437B" d="M502 120l-25 0 -4 13c0,1 0,2 -1,2 0,0 -1,0 -2,0l-12 0c-1,0 -1,0 -2,0 0,-1 0,-1 0,-2l22 -67c1,-1 1,-2 2,-2 0,-1 1,-2 1,-2 1,-1 2,-1 2,-1 1,0 2,0 3,0l7 0c1,0 2,0 3,0 1,0 1,0 2,1 1,0 1,1 2,1 0,1 1,2 1,3l22 67c0,1 0,1 0,2 0,0 0,0 -1,0l-13 0c-1,0 -1,0 -2,0 0,0 -1,-1 -1,-1l-4 -14zm-21 -13l17 0 -4 -14 -4 -15 -1 0 -4 15 -4 14z"/>
    <path fill="#AA437B" d="M572 120l-25 0 -4 13c0,1 0,2 -1,2 0,0 -1,0 -2,0l-12 0c-1,0 -2,0 -2,0 0,-1 0,-1 0,-2l22 -67c1,-1 1,-2 2,-2 0,-1 1,-2 1,-2 1,-1 1,-1 2,-1 1,0 2,0 3,0l6 0c2,0 3,0 4,0 0,0 1,0 2,1 0,0 1,1 1,1 1,1 1,2 2,3l22 67c0,1 0,1 0,2 0,0 -1,0 -1,0l-13 0c-1,0 -2,0 -2,0 -1,0 -1,-1 -1,-1l-4 -14zm-21 -13l17 0 -4 -14 -4 -15 -1 0 -4 15 -4 14z"/>
    <path fill="#AA437B" d="M649 100c3,2 5,3 6,5 1,2 1,4 2,7l5 21c1,0 1,1 0,2 0,0 0,0 -1,0l-11 0c-1,0 -2,0 -3,0 -1,0 -1,-1 -2,-2l-4 -19c-1,-3 -3,-5 -4,-7 -2,-1 -5,-2 -8,-2l-10 0 0 28c0,1 0,2 -1,2 0,0 -1,0 -2,0l-11 0c-1,0 -2,0 -2,0 0,0 -1,-1 -1,-2l0 -66c0,-2 1,-4 2,-5 1,-1 2,-1 5,-1l26 0c8,0 14,2 18,6 4,3 6,9 6,15 0,4 -1,7 -2,11 -2,3 -4,5 -8,7l0 0zm-6 -17c0,-1 0,-1 -1,-2 0,-1 -1,-2 -1,-3 -1,-1 -2,-2 -3,-2 -1,-1 -3,-1 -5,-1l-14 0 0 17 14 0c3,0 6,-1 7,-2 2,-2 3,-4 3,-7z"/>
    <path fill="#AA437B" d="M702 109c0,0 0,1 0,1 0,1 -1,1 -2,1l-27 0c-1,0 -1,0 -1,-1 -1,0 -1,-1 -1,-1l0 -10c0,-1 0,-1 1,-2 0,0 0,0 1,0l27 0c1,0 2,0 2,0 0,1 0,1 0,2l0 10z"/>
    <path fill="#AA437B" d="M762 73c0,1 -1,2 -2,2l-20 0 0 58c0,1 0,2 0,2 -1,0 -1,0 -2,0l-12 0c-1,0 -1,0 -2,0 0,0 0,-1 0,-2l0 -58 -19 0c-1,0 -2,-1 -2,-2l0 -10c0,-1 0,-1 0,-2 1,0 1,0 2,0l55 0c0,0 1,0 1,0 1,1 1,1 1,2l0 10z"/>
    <path fill="#AA437B" d="M824 133c0,1 0,1 0,2 0,0 -1,0 -2,0l-31 0c-4,0 -8,0 -10,-1 -3,-1 -5,-3 -6,-5 -2,-2 -3,-4 -3,-6 -1,-2 -1,-5 -1,-7l0 -36c0,-2 0,-5 1,-7 1,-2 2,-4 3,-6 2,-2 4,-4 6,-5 3,-1 6,-1 9,-1l31 0c1,0 1,0 2,0 0,1 0,1 0,2l0 9c0,1 0,2 0,2 -1,1 -1,1 -2,1l-27 0c-3,0 -5,0 -6,2 0,1 -1,2 -1,4l0 8 31 0c1,0 1,1 1,1 1,0 1,1 1,2l0 8c0,1 0,2 -1,2 0,1 0,1 -1,1l-31 0 0 12c0,2 1,4 2,5 1,1 3,1 5,1l28 0c1,0 2,1 2,1 0,0 0,1 0,2l0 9z"/>
    <path fill="#AA437B" d="M861 110l-13 23c0,1 -1,2 -2,2 0,0 -1,0 -3,0l-13 0c0,0 -1,0 -1,0 0,-1 0,-1 0,-2l23 -36 -21 -34c0,-1 0,-1 0,-2 0,0 1,0 1,0l13 0c1,0 2,0 3,0 0,0 1,1 2,2l11 21 12 -21c0,-1 1,-2 2,-2 0,0 1,0 2,0l13 0c1,0 1,0 1,0 0,1 0,1 0,2l-21 34 23 36c0,1 0,1 0,2 0,0 0,0 -1,0l-13 0c-2,0 -3,0 -3,0 -1,0 -1,-1 -2,-2l-13 -23z"/>
    <path fill="#727271" d="M264 188c0,0 0,1 0,1 0,0 -1,0 -1,0l-3 0c0,0 -1,0 -1,0 0,0 0,-1 0,-1l0 -27 -10 0c0,0 -1,0 -1,0 0,-1 0,-1 0,-1l0 -3c0,0 0,0 0,0 0,-1 1,-1 1,-1l25 0c1,0 1,0 1,1 0,0 0,0 0,0l0 3c0,0 0,0 0,1 0,0 0,0 -1,0l-10 0 0 27z"/>
    <path fill="#727271" d="M291 188c0,0 0,1 -1,1 0,0 0,0 0,0l-4 0c0,0 0,0 0,0 -1,0 -1,-1 -1,-1l0 -31c0,0 0,-1 1,-1 0,0 0,0 0,0l4 0c0,0 0,0 0,0 1,0 1,1 1,1l0 12 5 0c1,0 1,0 2,0 0,0 1,0 1,-1 1,0 1,0 2,-1 0,-1 1,-1 1,-2l2 -8c1,0 1,-1 1,-1 0,0 0,0 0,0l4 0c0,0 0,0 0,1 1,0 1,0 1,0l-3 8c0,2 -1,3 -1,4 -1,1 -2,2 -3,2l0 0c2,1 3,2 3,3 1,1 2,2 2,3l3 11c0,0 0,0 0,1 0,0 0,0 0,0l-4 0c0,0 0,0 -1,0 0,0 0,0 0,-1l-3 -10c-1,-2 -1,-3 -3,-3 -1,-1 -2,-1 -3,-1l-6 0 0 14z"/>
    <path fill="#727271" d="M348 186c0,1 -1,1 -1,2 -2,0 -4,1 -6,1 -3,0 -5,1 -7,1 -2,0 -5,-1 -6,-1 -2,-1 -3,-2 -4,-2 -1,-1 -2,-3 -2,-4 -1,-1 -1,-2 -1,-4 0,-1 0,-3 1,-4 0,-1 1,-2 2,-3 1,-1 2,-2 4,-3 2,-1 4,-1 7,-1l7 0 0 -1c0,-1 0,-2 0,-3 0,-1 -1,-1 -1,-2 -1,-1 -2,-1 -3,-1 0,-1 -2,-1 -3,-1 -2,0 -3,0 -5,1 -2,0 -3,0 -4,1 0,0 -1,0 -1,0 0,0 0,-1 0,-1l-1 -3c0,0 0,0 0,0 0,0 0,-1 1,-1 1,0 3,-1 5,-1 2,0 4,0 6,0 4,0 7,0 9,2 2,2 3,5 3,8l0 20zm-6 -13l-7 0c-1,0 -2,0 -3,0 -1,0 -2,0 -3,1 0,0 -1,1 -2,2 0,1 -1,2 -1,3 0,1 1,2 1,3 0,1 1,2 2,2 0,0 1,1 2,1 1,0 2,0 3,0 1,0 1,0 2,0 0,0 1,0 2,0 0,0 1,0 2,0 1,-1 1,-1 2,-1l0 -11z"/>
    <path fill="#727271" d="M366 188c0,0 0,1 0,1 0,0 0,0 -1,0l-3 0c0,0 0,0 -1,0 0,0 0,-1 0,-1l0 -31c0,0 0,0 0,-1 1,0 1,0 1,0l3 0c1,0 1,0 1,0 0,1 0,1 0,1l0 12 17 0 0 -12c0,0 0,0 0,-1 0,0 0,0 1,0l3 0c0,0 1,0 1,0 0,1 0,1 0,1l0 31c0,0 0,1 0,1 0,0 -1,0 -1,0l-3 0c-1,0 -1,0 -1,0 0,0 0,-1 0,-1l0 -14 -17 0 0 14z"/>
    <path fill="#727271" d="M401 157c0,0 0,-1 1,-1 0,0 0,0 0,0l4 0c0,0 0,0 1,0 0,0 0,1 0,1l0 24 0 0c1,-1 2,-3 3,-4 1,-1 2,-3 3,-4l9 -15c0,-1 1,-1 1,-1 1,-1 1,-1 2,-1l2 0c0,0 1,0 1,1 1,0 1,1 1,2l0 29c0,0 0,1 0,1 0,0 -1,0 -1,0l-3 0c-1,0 -1,0 -1,0 0,0 0,-1 0,-1l0 -24 -1 0c0,1 -1,2 -1,2 0,1 -1,2 -1,2 -1,1 -1,2 -2,2 0,1 0,2 -1,2l-10 15c0,1 -1,1 -1,2 0,0 -1,0 -2,0l-1 0c-1,0 -1,0 -2,-1 0,0 -1,-1 -1,-1l0 -30z"/>
    <path fill="#727271" d="M476 157c0,0 0,-1 0,-1 1,0 1,0 1,0l4 0c0,0 0,0 0,0 0,0 1,1 1,1l0 24 0 0c1,-1 2,-3 2,-4 1,-1 2,-3 3,-4l10 -15c0,-1 0,-1 1,-1 0,-1 1,-1 2,-1l1 0c1,0 2,0 2,1 0,0 1,1 1,2l0 29c0,0 0,1 -1,1 0,0 0,0 0,0l-4 0c0,0 0,0 0,0 -1,0 -1,-1 -1,-1l0 -24 0 0c-1,1 -1,2 -1,2 -1,1 -1,2 -2,2 0,1 0,2 -1,2 0,1 -1,2 -1,2l-10 15c0,1 -1,1 -1,2 -1,0 -1,0 -2,0l-1 0c-1,0 -2,0 -2,-1 -1,0 -1,-1 -1,-1l0 -30z"/>
    <path fill="#727271" d="M571 156c3,0 5,0 7,1 2,1 4,2 5,3 2,2 3,3 4,6 0,2 1,4 1,7 0,2 0,4 -1,6 -1,2 -2,4 -3,5 -2,2 -3,3 -5,4 -2,1 -5,1 -8,2l0 11c0,0 0,0 0,0 0,1 0,1 -1,1l-3 0c0,0 -1,0 -1,-1 0,0 0,0 0,0l0 -11c-3,-1 -5,-1 -7,-2 -2,-1 -4,-2 -5,-4 -2,-1 -3,-3 -3,-5 -1,-2 -1,-4 -1,-6 0,-3 0,-5 1,-7 1,-3 2,-4 3,-6 2,-1 3,-2 5,-3 2,-1 5,-1 7,-1l0 -12c0,0 0,0 0,0 0,-1 1,-1 1,-1l3 0c1,0 1,0 1,1 0,0 0,0 0,0l0 12zm12 17c0,-4 -1,-7 -3,-9 -2,-2 -5,-3 -9,-4l0 25c2,0 4,0 6,-1 1,-1 2,-2 3,-3 1,-1 2,-2 2,-4 0,-1 1,-3 1,-4zm-28 0c0,1 0,3 0,4 1,2 2,3 2,4 1,1 3,2 4,3 1,1 3,1 5,1l0 -25c-4,1 -7,2 -8,4 -2,2 -3,5 -3,9z"/>
    <path fill="#727271" d="M613 194c-1,3 -2,5 -3,6 -2,1 -4,2 -6,2 -1,0 -2,0 -2,0 -1,0 -2,0 -3,-1 -1,0 -1,0 -1,-1l1 -2c0,-1 0,-1 0,-1 0,0 0,0 1,0 1,0 1,0 1,0 1,0 1,1 2,1 1,0 2,-1 3,-1 1,-1 2,-2 2,-4 0,0 1,0 1,-1 0,0 0,0 0,-1 0,-1 1,-1 1,-1 0,-1 0,-1 0,-1l-1 0c-1,0 -1,0 -2,-1 0,0 0,0 -1,-2l-9 -29c-1,-1 0,-1 0,-1l4 0c1,0 1,0 1,1 0,0 0,1 1,2 0,0 0,1 1,3 0,1 0,2 1,3 0,2 1,3 1,4 0,1 1,2 1,3 0,1 0,1 1,2l3 11 0 0c0,-1 0,-1 1,-3 0,-1 1,-2 1,-3 0,-2 1,-3 1,-4 1,-1 1,-2 1,-2 0,0 0,0 0,-1 0,0 1,-1 1,-2 0,-1 1,-3 1,-4 1,-1 1,-2 1,-3 1,-2 1,-3 2,-4 0,-1 0,-2 0,-2 0,-1 1,-1 1,-1l4 0c1,0 1,0 1,1l-13 37z"/>
    <path fill="#727271" d="M664 173c0,2 -1,4 -1,6 -1,2 -2,4 -3,6 -1,1 -3,2 -4,3 -2,1 -4,2 -7,2 -1,0 -2,0 -3,-1 -2,0 -3,0 -5,0l0 12c0,0 0,0 0,0 0,1 0,1 -1,1l-3 0c-1,0 -1,0 -1,-1 0,0 0,0 0,0l0 -42c0,-1 0,-1 0,-1 3,-1 5,-2 7,-2 2,0 4,0 6,0 3,0 5,0 7,1 2,1 3,2 4,3 1,2 2,4 3,6 0,2 1,4 1,7zm-6 0c0,-3 0,-5 -1,-6 0,-2 -1,-3 -2,-4 0,-1 -1,-2 -3,-2 -1,-1 -2,-1 -4,-1 -1,0 -2,0 -3,1 -2,0 -3,0 -4,0l0 23c2,0 3,1 4,1 1,0 2,0 3,0 2,0 3,0 4,-1 1,0 3,-1 3,-2 1,-1 2,-2 2,-4 1,-1 1,-3 1,-5z"/>
    <path fill="#727271" d="M681 188c0,0 0,1 0,1 0,0 0,0 -1,0l-3 0c0,0 -1,0 -1,0 0,0 0,-1 0,-1l0 -31c0,0 0,0 0,-1 0,0 1,0 1,0l3 0c1,0 1,0 1,0 0,1 0,1 0,1l0 12 16 0 0 -12c0,0 1,0 1,-1 0,0 0,0 1,0l3 0c0,0 1,0 1,0 0,1 0,1 0,1l0 31c0,0 0,1 0,1 0,0 -1,0 -1,0l-3 0c-1,0 -1,0 -1,0 0,0 -1,-1 -1,-1l0 -14 -16 0 0 14z"/>
    <path fill="#727271" d="M716 157c0,0 0,-1 1,-1 0,0 0,0 0,0l4 0c0,0 0,0 0,0 1,0 1,1 1,1l0 24 0 0c1,-1 2,-3 3,-4 0,-1 1,-3 2,-4l10 -15c0,-1 1,-1 1,-1 0,-1 1,-1 2,-1l1 0c1,0 2,0 2,1 1,0 1,1 1,2l0 29c0,0 0,1 0,1 0,0 -1,0 -1,0l-4 0c0,0 0,0 0,0 0,0 -1,-1 -1,-1l0 -24 0 0c0,1 -1,2 -1,2 -1,1 -1,2 -1,2 -1,1 -1,2 -2,2 0,1 -1,2 -1,2l-10 15c0,1 -1,1 -1,2 -1,0 -1,0 -2,0l-1 0c-1,0 -2,0 -2,-1 0,0 -1,-1 -1,-1l0 -30z"/>
    <path fill="#727271" d="M770 188c0,0 0,1 0,1 0,0 -1,0 -1,0l-3 0c-1,0 -1,0 -1,0 0,0 0,-1 0,-1l0 -27 -10 0c0,0 -1,0 -1,0 0,-1 0,-1 0,-1l0 -3c0,0 0,0 0,0 0,-1 1,-1 1,-1l25 0c1,0 1,0 1,1 0,0 0,0 0,0l0 3c0,0 0,0 0,1 0,0 0,0 -1,0l-10 0 0 27z"/>
    <path fill="#727271" d="M804 194c-1,3 -2,5 -3,6 -2,1 -4,2 -6,2 -1,0 -1,0 -2,0 -1,0 -2,0 -3,-1 -1,0 -1,0 -1,-1l1 -2c0,-1 0,-1 0,-1 0,0 1,0 1,0 1,0 1,0 2,0 0,0 0,1 1,1 1,0 3,-1 3,-1 1,-1 2,-2 3,-4 0,0 0,0 0,-1 0,0 0,0 0,-1 1,-1 1,-1 1,-1 0,-1 0,-1 0,-1l-1 0c-1,0 -1,0 -2,-1 0,0 0,0 -1,-2l-9 -29c0,-1 0,-1 0,-1l4 0c1,0 1,0 1,1 0,0 1,1 1,2 0,0 0,1 1,3 0,1 1,2 1,3 0,2 1,3 1,4 1,1 1,2 1,3 0,1 1,1 1,2l3 11 0 0c0,-1 1,-1 1,-3 0,-1 1,-2 1,-3 1,-2 1,-3 1,-4 1,-1 1,-2 1,-2 0,0 0,0 0,-1 0,0 1,-1 1,-2 0,-1 1,-3 1,-4 1,-1 1,-2 2,-3 0,-2 0,-3 1,-4 0,-1 0,-2 0,-2 1,-1 1,-1 1,-1l4 0c1,0 1,0 1,1l-13 37z"/>
    <path fill="#727271" d="M855 173c0,2 0,4 -1,6 -1,2 -2,4 -3,6 -1,1 -2,2 -4,3 -2,1 -4,2 -7,2 -1,0 -2,0 -3,-1 -2,0 -3,0 -5,0l0 12c0,0 0,0 0,0 0,1 0,1 -1,1l-3 0c0,0 -1,0 -1,-1 0,0 0,0 0,0l0 -42c0,-1 0,-1 1,-1 2,-1 4,-2 6,-2 2,0 4,0 6,0 3,0 5,0 7,1 2,1 3,2 4,3 2,2 2,4 3,6 1,2 1,4 1,7zm-6 0c0,-3 0,-5 -1,-6 0,-2 -1,-3 -1,-4 -1,-1 -2,-2 -4,-2 -1,-1 -2,-1 -4,-1 -1,0 -2,0 -3,1 -2,0 -3,0 -4,0l0 23c2,0 3,1 4,1 2,0 3,0 4,0 1,0 2,0 3,-1 2,0 3,-1 3,-2 1,-1 2,-2 2,-4 1,-1 1,-3 1,-5z"/>
    <path fill="#727271" d="M892 186c0,1 0,1 -1,2 -1,0 -3,1 -6,1 -2,0 -4,1 -6,1 -3,0 -5,-1 -7,-1 -1,-1 -3,-2 -4,-2 -1,-1 -1,-3 -2,-4 0,-1 0,-2 0,-4 0,-1 0,-3 0,-4 1,-1 2,-2 3,-3 1,-1 2,-2 4,-3 2,-1 4,-1 6,-1l8 0 0 -1c0,-1 0,-2 0,-3 -1,-1 -1,-1 -1,-2 -1,-1 -2,-1 -3,-1 -1,-1 -2,-1 -4,-1 -1,0 -3,0 -4,1 -2,0 -3,0 -4,1 -1,0 -1,0 -1,0 0,0 0,-1 0,-1l-1 -3c0,0 0,0 0,0 0,0 0,-1 0,-1 2,0 4,-1 6,-1 2,0 4,0 5,0 5,0 8,0 10,2 1,2 2,5 2,8l0 20zm-5 -13l-7 0c-1,0 -2,0 -3,0 -1,0 -2,0 -3,1 -1,0 -1,1 -2,2 -1,1 -1,2 -1,3 0,1 0,2 1,3 0,1 1,2 1,2 1,0 2,1 3,1 1,0 2,0 3,0 0,0 1,0 2,0 0,0 1,0 1,0 1,0 2,0 3,0 0,-1 1,-1 2,-1l0 -11z"/>
   </g>
  </g>
 </g>
</svg>
