<svg 
    xmlns="http://www.w3.org/2000/svg" 
    xmlns:xlink="http://www.w3.org/1999/xlink" 
    viewBox="0 0 138.77 120"
>
  <defs>
    <clipPath id="a" transform="translate(5.8)">
      <path d="M10.47,33.08S26.1,25.49,41,25.49A101.31,101.31,0,0,1,65.8,28.42h0c9.33,2.11,16.42,3.69,37.51-2.77l3.11,8.7c-22.91,7-30.79,5.25-41.18,2.93v0A95.22,95.22,0,0,0,42,34.51c-13.23,0-27.42,6.88-27.44,6.91Z" style="fill: none"/>
    </clipPath>
  </defs>
  <g>
    <polygon points="5.8 0 125.8 0 125.8 120 5.8 120 5.8 0" style="fill: none"/>
    <path d="M15.63,58.55s1.77-2.24,3.69-1.13S21.25,64,17.08,64c-5,0-6.48-5.77-4.19-9.46,2.14-3.4,7.51-5,16.37,1.29,5.06,3.61,11,6.19,17.06,6.59A23,23,0,0,0,58.6,59.89c8.57-4.45,14.79-9.41,19-9,6.78.61,11,8,22.54,9.31,9.31,1.08,13.34-2,14.34-5.72,1.4-5.22-1.63-9-5.22-9.94-3.27-.87-7,.69-8.09,3.82-.76,2.14.95,5.17,5,4.77" transform="translate(5.8)" style="fill: none;stroke: #565656;stroke-linecap: round;stroke-linejoin: round"/>
    <path d="M36.19,59.82s8.83.71,12-2.93,1.77-8-2.5-9.41-7.7,2.61-7.25,4.59,2.74,2.32,2.74,2.32" transform="translate(5.8)" style="fill: none;stroke: #565656;stroke-linecap: round;stroke-linejoin: round"/>
    <path d="M63.43,57.23C81,50.75,82.51,65.56,75.5,66.78c-2.5.45-6.75-1.61-5.48-3.61" transform="translate(5.8)" style="fill: none;stroke: #565656;stroke-linecap: round;stroke-linejoin: round"/>
    <path d="M10.47,81.83S26.1,74.24,41,74.24a101.12,101.12,0,0,1,24.78,3h0c9.33,2.08,16.42,3.66,37.51-2.79l3.11,8.7c-22.91,7-30.79,5.25-41.18,2.93h0A93.89,93.89,0,0,0,42,83.28c-13.23,0-27.42,6.88-27.44,6.88Z" transform="translate(5.8)" style="fill: none;stroke: #565656;stroke-linecap: round;stroke-linejoin: round"/>
    <g style="clip-path: url(#a)">
      <g>
        <line x1="6.17" y1="21.04" x2="38.09" y2="52.96" style="fill: none;stroke: #565656;stroke-linecap: round;stroke-linejoin: round"/>
        <line x1="14.52" y1="21.04" x2="46.42" y2="52.96" style="fill: none;stroke: #565656;stroke-linecap: round;stroke-linejoin: round"/>
        <line x1="22.85" y1="21.04" x2="54.78" y2="52.96" style="fill: none;stroke: #565656;stroke-linecap: round;stroke-linejoin: round"/>
        <line x1="31.21" y1="21.04" x2="63.14" y2="52.96" style="fill: none;stroke: #565656;stroke-linecap: round;stroke-linejoin: round"/>
        <line x1="39.57" y1="21.04" x2="71.47" y2="52.96" style="fill: none;stroke: #565656;stroke-linecap: round;stroke-linejoin: round"/>
        <line x1="47.9" y1="21.04" x2="79.82" y2="52.96" style="fill: none;stroke: #565656;stroke-linecap: round;stroke-linejoin: round"/>
        <line x1="56.26" y1="21.04" x2="88.18" y2="52.96" style="fill: none;stroke: #565656;stroke-linecap: round;stroke-linejoin: round"/>
        <line x1="64.61" y1="21.04" x2="96.51" y2="52.96" style="fill: none;stroke: #565656;stroke-linecap: round;stroke-linejoin: round"/>
        <line x1="72.94" y1="21.04" x2="104.87" y2="52.96" style="fill: none;stroke: #565656;stroke-linecap: round;stroke-linejoin: round"/>
        <line x1="81.3" y1="21.04" x2="113.22" y2="52.96" style="fill: none;stroke: #565656;stroke-linecap: round;stroke-linejoin: round"/>
        <line x1="89.66" y1="21.04" x2="121.58" y2="52.96" style="fill: none;stroke: #565656;stroke-linecap: round;stroke-linejoin: round"/>
        <line x1="98.01" y1="21.04" x2="129.91" y2="52.96" style="fill: none;stroke: #565656;stroke-linecap: round;stroke-linejoin: round"/>
        <line x1="106.34" y1="21.04" x2="138.27" y2="52.96" style="fill: none;stroke: #565656;stroke-linecap: round;stroke-linejoin: round"/>
        <line x1="132.6" y1="21.04" x2="100.68" y2="52.96" style="fill: none;stroke: #565656;stroke-linecap: round;stroke-linejoin: round"/>
        <line x1="124.24" y1="21.04" x2="92.35" y2="52.96" style="fill: none;stroke: #565656;stroke-linecap: round;stroke-linejoin: round"/>
        <line x1="115.91" y1="21.04" x2="83.99" y2="52.96" style="fill: none;stroke: #565656;stroke-linecap: round;stroke-linejoin: round"/>
        <line x1="107.56" y1="21.04" x2="75.63" y2="52.96" style="fill: none;stroke: #565656;stroke-linecap: round;stroke-linejoin: round"/>
        <line x1="99.2" y1="21.04" x2="67.3" y2="52.96" style="fill: none;stroke: #565656;stroke-linecap: round;stroke-linejoin: round"/>
        <line x1="90.87" y1="21.04" x2="58.94" y2="52.96" style="fill: none;stroke: #565656;stroke-linecap: round;stroke-linejoin: round"/>
        <line x1="82.51" y1="21.04" x2="50.59" y2="52.96" style="fill: none;stroke: #565656;stroke-linecap: round;stroke-linejoin: round"/>
        <line x1="74.16" y1="21.04" x2="42.26" y2="52.96" style="fill: none;stroke: #565656;stroke-linecap: round;stroke-linejoin: round"/>
        <line x1="65.83" y1="21.04" x2="33.9" y2="52.96" style="fill: none;stroke: #565656;stroke-linecap: round;stroke-linejoin: round"/>
        <line x1="57.47" y1="21.04" x2="25.54" y2="52.96" style="fill: none;stroke: #565656;stroke-linecap: round;stroke-linejoin: round"/>
        <line x1="49.11" y1="21.04" x2="17.19" y2="52.96" style="fill: none;stroke: #565656;stroke-linecap: round;stroke-linejoin: round"/>
        <line x1="40.75" y1="21.04" x2="8.86" y2="52.96" style="fill: none;stroke: #565656;stroke-linecap: round;stroke-linejoin: round"/>
        <line x1="32.42" y1="21.04" x2="0.5" y2="52.96" style="fill: none;stroke: #565656;stroke-linecap: round;stroke-linejoin: round"/>
      </g>
    </g>
    <path d="M10.47,33.08S26.1,25.49,41,25.49A101.31,101.31,0,0,1,65.8,28.42h0c9.33,2.11,16.42,3.69,37.51-2.77l3.11,8.7c-22.91,7-30.79,5.25-41.18,2.93v0A95.22,95.22,0,0,0,42,34.51c-13.23,0-27.42,6.88-27.44,6.91Z" transform="translate(5.8)" style="fill: none;stroke: #565656;stroke-linecap: round;stroke-linejoin: round"/>
  </g>
</svg>
