<?xml version="1.0" encoding="UTF-8"?>
<!DOCTYPE svg PUBLIC "-//W3C//DTD SVG 1.1//EN" "http://www.w3.org/Graphics/SVG/1.1/DTD/svg11.dtd">
<!-- Creator: CorelDRAW X7 -->
<svg xmlns="http://www.w3.org/2000/svg" xml:space="preserve" width="42.3333mm" height="42.3333mm" version="1.1" style="shape-rendering:geometricPrecision; text-rendering:geometricPrecision; image-rendering:optimizeQuality; fill-rule:evenodd; clip-rule:evenodd"
viewBox="0 0 4552 4552"
 xmlns:xlink="http://www.w3.org/1999/xlink">
 <defs>
  <style type="text/css">
   <![CDATA[
    .str1 {stroke:#565656;stroke-width:91.0529;stroke-linecap:round;stroke-linejoin:round}
    .str0 {stroke:#565656;stroke-width:136.574;stroke-linecap:round;stroke-linejoin:round}
    .fil0 {fill:none}
    .fil1 {fill:none;fill-rule:nonzero}
   ]]>
  </style>
    <clipPath id="id0" style="clip-rule:nonzero">
     <path d="M397 1255c1,-1 593,-288 1159,-288 441,0 707,59 940,111l0 0c354,80 623,140 1423,-105l118 330c-869,266 -1168,199 -1562,111l0 -1c-217,-48 -465,-104 -881,-104 -502,0 -1040,261 -1041,262l-156 -316z"/>
    </clipPath>
 </defs>
 <g id="Слой_x0020_1">
  <metadata id="CorelCorpID_0Corel-Layer"/>
  <g id="_3292137060448">
   <polygon class="fil0" points="0,0 4552,0 4552,4552 0,4552 "/>
   <path class="fil0 str0" d="M593 2221c0,0 67,-85 140,-43 73,43 73,250 -85,250 -190,0 -246,-219 -159,-359 81,-129 285,-191 621,49 192,137 417,235 647,250 156,10 314,-17 466,-96 325,-169 561,-357 719,-343 257,23 417,302 855,353 353,41 506,-77 544,-217 53,-198 -62,-341 -198,-377 -124,-33 -265,26 -307,145 -29,81 36,196 191,181"/>
   <path class="fil0 str0" d="M1373 2269c0,0 335,27 455,-111 121,-137 67,-303 -95,-357 -163,-54 -292,99 -275,174 17,75 104,88 104,88"/>
   <path class="fil0 str0" d="M2406 2171c665,-246 724,316 458,362 -95,17 -256,-61 -208,-137"/>
   <path class="fil1 str0" d="M397 3104c1,0 593,-288 1159,-288 441,0 707,60 940,112l0 0c354,79 623,139 1423,-106l118 330c-869,266 -1168,199 -1562,111l0 0c-217,-49 -465,-104 -881,-104 -502,0 -1040,261 -1041,261l-156 -316z"/>
   <g>
   </g>
   <g style="clip-path:url(#id0)">
    <g id="_3292137060512">
     <line class="fil0 str1" x1="14" y1="798" x2="1225" y2= "2009" />
     <line class="fil0 str1" x1="331" y1="798" x2="1541" y2= "2009" />
     <line class="fil0 str1" x1="647" y1="798" x2="1858" y2= "2009" />
     <line class="fil0 str1" x1="964" y1="798" x2="2175" y2= "2009" />
     <line class="fil0 str1" x1="1281" y1="798" x2="2491" y2= "2009" />
     <line class="fil0 str1" x1="1597" y1="798" x2="2808" y2= "2009" />
     <line class="fil0 str1" x1="1914" y1="798" x2="3125" y2= "2009" />
     <line class="fil0 str1" x1="2231" y1="798" x2="3441" y2= "2009" />
     <line class="fil0 str1" x1="2547" y1="798" x2="3758" y2= "2009" />
     <line class="fil0 str1" x1="2864" y1="798" x2="4075" y2= "2009" />
     <line class="fil0 str1" x1="3181" y1="798" x2="4392" y2= "2009" />
     <line class="fil0 str1" x1="3498" y1="798" x2="4708" y2= "2009" />
     <line class="fil0 str1" x1="3814" y1="798" x2="5025" y2= "2009" />
     <line class="fil0 str1" x1="4810" y1="798" x2="3599" y2= "2009" />
     <line class="fil0 str1" x1="4493" y1="798" x2="3283" y2= "2009" />
     <line class="fil0 str1" x1="4177" y1="798" x2="2966" y2= "2009" />
     <line class="fil0 str1" x1="3860" y1="798" x2="2649" y2= "2009" />
     <line class="fil0 str1" x1="3543" y1="798" x2="2333" y2= "2009" />
     <line class="fil0 str1" x1="3227" y1="798" x2="2016" y2= "2009" />
     <line class="fil0 str1" x1="2910" y1="798" x2="1699" y2= "2009" />
     <line class="fil0 str1" x1="2593" y1="798" x2="1383" y2= "2009" />
     <line class="fil0 str1" x1="2277" y1="798" x2="1066" y2= "2009" />
     <line class="fil0 str1" x1="1960" y1="798" x2="749" y2= "2009" />
     <line class="fil0 str1" x1="1643" y1="798" x2="432" y2= "2009" />
     <line class="fil0 str1" x1="1326" y1="798" x2="116" y2= "2009" />
     <line class="fil0 str1" x1="1010" y1="798" x2="-201" y2= "2009" />
    </g>
   </g>
   <path class="fil1 str0" d="M397 1255c1,-1 593,-288 1159,-288 441,0 707,59 940,111l0 0c354,80 623,140 1423,-105l118 330c-869,266 -1168,199 -1562,111l0 -1c-217,-48 -465,-104 -881,-104 -502,0 -1040,261 -1041,262l-156 -316z"/>
  </g>
 </g>
</svg>
