<?xml version="1.0" encoding="utf-8"?>
<!-- Generator: Adobe Illustrator 23.0.0, SVG Export Plug-In . SVG Version: 6.00 Build 0)  -->
<svg version="1.1" id="Ebene_1" xmlns="http://www.w3.org/2000/svg" xmlns:xlink="http://www.w3.org/1999/xlink" x="0px" y="0px"
	 viewBox="0 0 58 58" enable-background="new 0 0 58 58" xml:space="preserve">
<rect fill="#FFFFFF" width="58" height="58"/>
<g>
	<g>
		<path fill="#565656" d="M29,5c13.2,0,24,10.8,24,24S42.2,53,29,53S5,42.2,5,29S15.8,5,29,5 M29,4C15.2,4,4,15.2,4,29
			s11.2,25,25,25s25-11.2,25-25S42.8,4,29,4L29,4z"/>
	</g>
	<g>
		<g>
			<line fill="none" stroke="#565656" stroke-linecap="round" x1="23.8" y1="28.5" x2="10.8" y2="44.5"/>
			<path fill="none" stroke="#565656" stroke-linecap="round" d="M25.9,22c-2.3,2.7-2.3,6.7-2.3,6.7s3.5-0.5,5.8-3.1
				c0.8-1,1.7-1.8,1.9-2.9c0.4-2-0.8-3.5-2.7-2.8C27.5,20.2,26.7,21,25.9,22z"/>
		</g>
		<path fill="none" stroke="#565656" stroke-linecap="round" d="M47.4,16.9c0,0-6,10.9-16.4,8.4c-10.7-2.6-4.5-14.6,4.6-6.5
			c3.7,3.3,11.6,20-10.4,26.6"/>
	</g>
</g>
</svg>
