<?xml version="1.0" encoding="UTF-8"?>
<!DOCTYPE svg PUBLIC "-//W3C//DTD SVG 1.1//EN" "http://www.w3.org/Graphics/SVG/1.1/DTD/svg11.dtd">
<!-- Creator: CorelDRAW -->
<svg xmlns="http://www.w3.org/2000/svg" xml:space="preserve" width="42.3333mm" height="42.3333mm" style="shape-rendering:geometricPrecision; text-rendering:geometricPrecision; image-rendering:optimizeQuality; fill-rule:evenodd; clip-rule:evenodd"
viewBox="0 0 2.71065 2.71065"
 xmlns:xlink="http://www.w3.org/1999/xlink">
 <defs>
  <style type="text/css">
   <![CDATA[
    .str0 {stroke:#fff;stroke-width:0.0650558;stroke-linecap:round;stroke-linejoin:round}
    .str1 {stroke:#fff;stroke-width:0.0464547;stroke-linecap:round;stroke-linejoin:round}
    .fil0 {fill:none}
   ]]>
  </style>
 </defs>
 <g>
  <g>
   <line class="fil0 str0" x1="0.682375" y1="1.40819" x2="1.10711" y2= "0.797849" />
   <path class="fil0 str0" d="M0.586738 1.32579l-0.314707 0c-0.0365555,0 -0.0664709,0.029909 -0.0664709,0.0664645l0 6.40313e-006c0,0.0365555 0.0299154,0.0664645 0.0664709,0.0664645l0.16043 -6.40313e-006 0.160847 0c0.0571671,0 0.103942,-0.0467684 0.103942,-0.103936l0 0c0,-0.0571799 -0.0467876,-0.103955 -0.103942,-0.103955l-0.202973 0 -0.140049 0c-0.0793604,0 -0.144294,0.0649277 -0.144294,0.144301l0 0c0,0.0793604 0.0668358,0.127044 0.144294,0.144282 0.775694,0.172628 0.898621,0.0269444 1.28604,-0.00289421 0.0294352,-0.0022603 0.050367,-0.00363057 0.0832599,-0.00436693m0.123375 0.000595491c0.0954258,0.00302228 0.198298,0.0126974 0.331298,0.0327904l0.530403 -0.745497c-0.740189,-0.151466 -0.754064,0.197889 -1.54197,0.0416267"/>
   <line class="fil0 str0" x1="0.14026" y1="1.30202" x2="0.594159" y2= "0.642125" />
   <path class="fil0 str0" d="M1.11029 0.789448c0.0106932,-0.0195744 0.0167826,-0.0419853 0.0167826,-0.0657473l0 0c0,-0.0758707 -0.0620783,-0.137943 -0.137943,-0.137943l-0.283908 0c-0.0465763,0 -0.0879598,0.023397 -0.112964,0.0590176"/>
   <path class="fil0 str1" d="M1.71701 1.86674l-0.358831 -0.0837465c-0.0556944,-0.0130048 -0.104986,-0.0923011 -0.0947086,-0.129298l0.429355 0.119239m0.0975004 0.0270852l0.198292 0.0550669c0.000422606,-0.00783102 0.00168402,-0.0157389 0.00386749,-0.0236083 0.0162383,-0.0584734 0.0768119,-0.0927109 0.135285,-0.0764725 0.0584734,0.0162383 0.0927109,0.0768055 0.0764725,0.135285 -0.0162447,0.0584734 -0.0768119,0.0927109 -0.135285,0.0764725 -0.0137347,-0.00381626 -0.0261376,-0.0100785 -0.0368564,-0.0181849l0 0c-0.0343912,-0.0235379 -0.0714589,-0.0397122 -0.109647,-0.0530691 -0.0417996,-0.0146119 -0.0777083,-0.0131008 -0.121294,-0.015931"/>
   <circle class="fil0 str1" transform="matrix(0.0196742 -0.0708399 0.0708399 0.0196742 2.09837 1.86088)" r="0.650321"/>
   <path class="fil0 str1" d="M1.74604 2.07347c-0.0587615,0.0151754 -0.0940939,0.0751087 -0.0789249,0.13387 0.0151754,0.0587615 0.0751087,0.0940939 0.13387,0.0789185 0.0587615,-0.015169 0.0940939,-0.0751087 0.0789249,-0.133864 -0.00356654,-0.0138051 -0.00960469,-0.0263169 -0.0175126,-0.037183l0 0c-0.022904,-0.0348138 -0.0383996,-0.0721696 -0.0510585,-0.110601 -0.0201506,-0.0611691 -0.00640953,-0.109263 -0.0210087,-0.18717l-0.0812237 -0.379052c-0.0119867,-0.0559249 -0.0903737,-0.10665 -0.127557,-0.0970522l0.135388 0.524307 0.0527746 0.204388c-0.00783743,0.000275334 -0.0157645,0.00139588 -0.0236724,0.00343848z"/>
   <circle class="fil0 str1" transform="matrix(-0.0711863 0.0183816 0.0183816 0.0711863 1.77352 2.17987)" r="0.650321"/>
  </g>
 </g>
</svg>
