<?xml version="1.0" encoding="utf-8"?>
<!-- Generator: Adobe Illustrator 23.0.0, SVG Export Plug-In . SVG Version: 6.00 Build 0)  -->
<svg version="1.1" id="Ebene_1" xmlns="http://www.w3.org/2000/svg" xmlns:xlink="http://www.w3.org/1999/xlink" x="0px" y="0px"
	 viewBox="0 0 58 58" enable-background="new 0 0 58 58" xml:space="preserve">
<rect fill="#FFFFFF" width="58" height="58"/>
<g>
	<g>
		<circle fill="#A2437F" cx="29" cy="29" r="24.5"/>
		<path fill="#A2437F" d="M29,5c13.2,0,24,10.8,24,24S42.2,53,29,53S5,42.2,5,29S15.8,5,29,5 M29,4C15.2,4,4,15.2,4,29
			s11.2,25,25,25s25-11.2,25-25S42.8,4,29,4L29,4z"/>
	</g>
	<g>
		<path fill="none" stroke="#FFFFFF" stroke-linecap="round" d="M39.2,43.3c2.5-2,4-4.7,4-7.6c0-2.3-0.9-4.5-2.5-6.2
			c-2.6,1.9-6.9,3.1-11.8,3.1s-9.2-1.2-11.8-3.1c-1.6,1.8-2.5,3.9-2.5,6.2c0,3,1.5,5.7,4,7.6"/>
		<path fill="none" stroke="#FFFFFF" stroke-linecap="round" d="M18.6,20.7c-2.4,1.3-3.8,3-3.8,4.8c0,1.5,0.9,2.9,2.5,4"/>
		<path fill="none" stroke="#FFFFFF" stroke-linecap="round" d="M23.8,18.9c-0.8,0.1-0.5,0.2-1.2,0.4"/>
		<path fill="none" stroke="#FFFFFF" stroke-linecap="round" d="M36,19.3c-0.7-0.2-2.3-0.8-3.3-1"/>
		<path fill="none" stroke="#FFFFFF" stroke-linecap="round" d="M40.8,29.5c1.6-1.1,2.5-2.5,2.5-4c0-1.9-1.5-3.6-3.8-4.8"/>
		<path fill="none" stroke="#FFFFFF" stroke-linecap="round" d="M39.4,25.8c-2.3,1.6-6.1,2.7-10.4,2.7s-8.1-1.1-10.4-2.7"/>
		<path fill="none" stroke="#FFFFFF" stroke-linecap="round" d="M32.4,26v-7.8c0-1.1-0.7-2-2.1-1.9c-1.3,0-1.8,0.9-1.8,1.9V26"/>
		<path fill="none" stroke="#FFFFFF" stroke-linecap="round" d="M25.8,20.1v-6.8c0-1.1,0.5-1.9,1.7-1.9c1.3,0,1.9,0.9,1.9,1.9
			l0.1,2.8"/>
		<path fill="none" stroke="#FFFFFF" stroke-linecap="round" d="M36,24.7c0,0,0-6.5,0-9.9c0-2.3,3.4-2.2,3.4,0.1
			c0,1.8,0.1,7.9,0.1,7.9"/>
		<path fill="none" stroke="#FFFFFF" stroke-linecap="round" d="M22.5,24.7c0,0,0-6.2,0-9.6c0-2.3-3.9-2.1-3.9,0.3
			c0,3.4,0,7.2,0,7.2"/>
	</g>
</g>
</svg>
