<svg 
  xmlns="http://www.w3.org/2000/svg" xml:space="preserve" 
  viewBox="0 0 1900 1900"
  xmlns:xlink="http://www.w3.org/1999/xlink">
 <defs>
  <style type="text/css">
   <![CDATA[
    .str8 {stroke:#565656;stroke-width:45.7682;stroke-linecap:round;stroke-linejoin:round}
    .str9 {stroke:#565656;stroke-width:45.7682;stroke-linecap:round;stroke-linejoin:round}
    .str10 {stroke:#565656;stroke-width:45.7682;stroke-linecap:round;stroke-linejoin:round}
    .str7 {stroke:#565656;stroke-width:45.7682;stroke-linecap:round;stroke-linejoin:round}
    .str2 {stroke:#565656;stroke-width:45.7682;stroke-linecap:round;stroke-linejoin:round}
    .str6 {stroke:#565656;stroke-width:45.7682;stroke-linecap:round;stroke-linejoin:round}
    .str5 {stroke:#565656;stroke-width:45.7682;stroke-linecap:round;stroke-linejoin:round}
    .str4 {stroke:#565656;stroke-width:45.7682;stroke-linecap:round;stroke-linejoin:round}
    .str3 {stroke:#565656;stroke-width:45.7682;stroke-linecap:round;stroke-linejoin:round}
    .str0 {stroke:#565656;stroke-width:45.7682;stroke-linecap:round;stroke-linejoin:round}
    .str14 {stroke:#565656;stroke-width:45.7682;stroke-linecap:round;stroke-linejoin:round}
    .str11 {stroke:#565656;stroke-width:45.7682;stroke-linecap:round;stroke-linejoin:round}
    .str12 {stroke:#565656;stroke-width:45.7682;stroke-linecap:round;stroke-linejoin:round}
    .str13 {stroke:#565656;stroke-width:45.7682;stroke-linecap:round;stroke-linejoin:round}
    .str1 {stroke:#565656;stroke-width:45.7772;stroke-linecap:round;stroke-linejoin:round}
    .fil0 {fill:none}
    .fil1 {fill:#565656;fill-rule:nonzero}
   ]]>
  </style>
 </defs>
 <g id="Слой_x0020_1">
  <metadata id="CorelCorpID_0Corel-Layer"/>
  <g id="_2954987418176">
   <path class="fil0 str0" d="M1637 677c53,124 65,252 4,304 -93,79 -301,-12 -464,-203 -162,-191 -219,-410 -125,-490 63,-54 180,-29 299,53"/>
   <path class="fil0 str1" d="M1052 288c0,0 -647,550 -740,630 -93,79 -37,299 126,490 163,191 370,282 464,202 93,-79 739,-629 739,-629"/>
   <g>
    <path class="fil1" d="M1640 712l-29 -35 0 0 1 -1 0 -1 1 -1 1 -2 1 -3 1 -3 0 -3 0 -4 0 -4 0 -5 -1 -5 -1 -6 -1 -6 -2 -6 -2 -7 -3 -7 -2 -7 -3 -8 -4 -7 -3 -8 -5 -8 -4 -8 -5 -8 -5 -8 -5 -9 -5 -8 -6 -9 -6 -9 -7 -8 -6 -9 -7 -8 -8 -9 35 -30 8 10 8 9 7 9 7 10 6 9 7 9 6 9 6 10 5 9 5 9 5 9 5 9 4 9 4 8 3 9 3 8 3 9 3 8 2 8 2 8 1 8 1 7 1 8 0 7 0 7 -1 7 -2 7 -2 7 -3 7 -4 6 -4 6 -6 5 0 0zm-243 -121l35 -29 0 0 7 8 8 8 7 8 8 8 7 7 8 8 7 6 8 7 7 6 7 6 8 6 7 5 7 5 7 4 7 5 6 4 7 3 6 3 6 3 6 2 5 2 5 2 5 1 4 0 4 1 4 0 3 0 2 -1 2 0 2 -1 1 0 1 -1 29 35 -5 4 -7 4 -7 3 -7 1 -7 1 -7 1 -7 0 -7 -1 -7 -1 -8 -2 -7 -2 -7 -3 -8 -3 -8 -4 -7 -3 -8 -4 -8 -5 -8 -5 -8 -5 -8 -6 -8 -6 -8 -6 -8 -6 -8 -7 -8 -7 -9 -8 -8 -8 -8 -8 -8 -8 -8 -9 -8 -9 -8 -9 0 0zm-80 -259l30 35 0 0 -1 1 -1 1 -1 1 -1 2 -1 2 0 3 -1 4 0 3 0 5 1 5 0 5 1 6 2 6 1 6 2 7 3 7 3 7 3 7 3 8 4 7 4 8 4 9 5 8 5 8 5 8 6 9 5 9 7 8 6 9 7 8 7 9 7 9 -35 29 -8 -9 -7 -9 -7 -10 -7 -9 -7 -9 -6 -10 -6 -9 -6 -9 -6 -9 -5 -9 -5 -9 -4 -9 -5 -9 -3 -9 -4 -8 -3 -9 -3 -8 -3 -8 -2 -8 -2 -8 -1 -8 -1 -8 -1 -7 0 -7 1 -8 1 -7 1 -7 2 -6 3 -7 4 -6 4 -6 6 -5 0 0zm243 120l-35 30 0 0 -7 -9 -7 -8 -8 -8 -7 -7 -8 -8 -7 -7 -8 -7 -7 -6 -8 -7 -7 -6 -7 -5 -8 -5 -7 -5 -7 -5 -6 -4 -7 -4 -6 -3 -7 -3 -6 -3 -5 -2 -6 -2 -5 -2 -5 -1 -4 -1 -4 0 -3 0 -3 0 -3 0 -2 1 -1 0 -1 1 -1 1 -30 -35 6 -5 6 -3 7 -3 7 -2 7 -1 7 0 7 0 7 1 8 1 7 2 7 2 8 3 7 3 8 3 7 4 8 4 8 5 8 4 8 6 8 5 8 6 8 6 8 7 8 7 9 7 8 7 8 8 8 8 8 9 8 8 8 9 8 9 0 0z"/>
   </g>
   <path class="fil0 str2" d="M1332 349c0,0 -120,102 -155,132 -35,30 2,132 83,227 81,96 175,148 211,118 35,-30 155,-132 155,-132"/>
   <path class="fil0 str3" d="M317 1213c0,0 -50,43 -86,73 -35,30 2,132 83,228 81,95 176,148 211,118 35,-31 86,-74 86,-74"/>
   <line class="fil0 str4" x1="544" y1="720" x2="1496" y2= "1105" />
   <line class="fil0 str5" x1="424" y1="823" x2="1375" y2= "1207" />
   <line class="fil0 str6" x1="303" y1="925" x2="1255" y2= "1310" />
   <line class="fil0 str7" x1="270" y1="1063" x2="1134" y2= "1412" />
   <line class="fil0 str8" x1="1122" y1="954" x2="888" y2= "428" />
   <line class="fil0 str9" x1="944" y1="881" x2="782" y2= "518" />
   <line class="fil0 str10" x1="765" y1="809" x2="676" y2= "608" />
   <line class="fil0 str11" x1="991" y1="1534" x2="923" y2= "1327" />
   <line class="fil0 str12" x1="876" y1="1632" x2="755" y2= "1259" />
   <line class="fil0 str13" x1="727" y1="1623" x2="586" y2= "1191" />
   <line class="fil0 str14" x1="545" y1="1515" x2="418" y2= "1125" />
   <polygon class="fil0" points="0,0 1900,0 1900,1900 0,1900 "/>
  </g>
 </g>
</svg>
