<?xml version="1.0" encoding="utf-8"?>
<!-- Generator: Adobe Illustrator 23.0.0, SVG Export Plug-In . SVG Version: 6.00 Build 0)  -->
<svg version="1.1" id="Ebene_1" xmlns="http://www.w3.org/2000/svg" xmlns:xlink="http://www.w3.org/1999/xlink" x="0px" y="0px"
	 viewBox="0 0 58 58" enable-background="new 0 0 58 58" xml:space="preserve">
<rect fill="#FFFFFF" width="58" height="58"/>
<g>
	<g>
		<circle fill="#A2437F" cx="29" cy="29" r="24.5"/>
		<path fill="#A2437F" d="M29,5c13.2,0,24,10.8,24,24S42.2,53,29,53S5,42.2,5,29S15.8,5,29,5 M29,4C15.2,4,4,15.2,4,29
			s11.2,25,25,25s25-11.2,25-25S42.8,4,29,4L29,4z"/>
	</g>
	<g>
		<g>
			<line fill="none" stroke="#FFFFFF" stroke-width="0.9" stroke-linecap="round" x1="41.2" y1="22.9" x2="38.8" y2="24.1"/>
			<line fill="none" stroke="#FFFFFF" stroke-width="0.9" stroke-linecap="round" x1="17.1" y1="34.9" x2="10.1" y2="38.4"/>
			<path fill="none" stroke="#FFFFFF" stroke-width="0.9" d="M42.2,21c-0.8,0.4-1.2,1.4-0.8,2.2c0.4,0.8,1.4,1.2,2.2,0.8
				c0.8-0.4,1.2-1.4,0.8-2.2C44,21,43,20.7,42.2,21z"/>
		</g>
		<g>
			<line fill="none" stroke="#FFFFFF" stroke-width="0.9" stroke-linecap="round" x1="39.2" y1="15.2" x2="34.8" y2="20.4"/>
			<line fill="none" stroke="#FFFFFF" stroke-width="0.9" stroke-linecap="round" x1="19.4" y1="38.4" x2="16.1" y2="42.2"/>
			<path fill="none" stroke="#FFFFFF" stroke-width="0.9" d="M39,13.1c-0.5,0.8-0.2,1.8,0.6,2.2c0.8,0.5,1.8,0.2,2.2-0.6
				c0.5-0.8,0.2-1.8-0.6-2.2C40.5,12.1,39.5,12.3,39,13.1z"/>
		</g>
		<g>
			<circle fill="none" stroke="#FFFFFF" stroke-width="0.9" stroke-miterlimit="10" cx="28.3" cy="30.4" r="12"/>
			<path fill="none" stroke="#FFFFFF" stroke-width="0.9" stroke-miterlimit="10" d="M23,19.7c0,0,1.6,8.7,17.2,10"/>
			<path fill="none" stroke="#FFFFFF" stroke-width="0.9" stroke-miterlimit="10" d="M18,24.5c0,0,0.8,12.7,17.7,15.4"/>
			<path fill="none" stroke="#FFFFFF" stroke-width="0.9" stroke-miterlimit="10" d="M20.2,21.6c0,0,1.5,10.7,18.5,14.7"/>
			<path fill="none" stroke="#FFFFFF" stroke-width="0.9" stroke-miterlimit="10" d="M27.9,25.6c0,0,2.7-1.3,6.1-5.7"/>
			<path fill="none" stroke="#FFFFFF" stroke-width="0.9" stroke-miterlimit="10" d="M33.4,28.4c0,0,2.2-1.4,2.8-6.7"/>
			<path fill="none" stroke="#FFFFFF" stroke-width="0.9" stroke-miterlimit="10" d="M22.6,34c0,0-3.7,0.9-6-0.9"/>
			<path fill="none" stroke="#FFFFFF" stroke-width="0.9" stroke-miterlimit="10" d="M29.1,38.1c0,0-2.9,2.7-7.9,2.1"/>
		</g>
	</g>
</g>
</svg>
