<svg xmlns="http://www.w3.org/2000/svg" width="160" height="41.6" viewBox="0 0 929 242" shape-rendering="geometricPrecision" text-rendering="geometricPrecision" image-rendering="optimizeQuality" fill-rule="evenodd" clip-rule="evenodd">
    <circle fill="#AA437B" cx="123" cy="121" r="87"/>
    <path fill="#898989" d="M123 61c33 0 60 27 60 60s-27 60-60 60-60-27-60-60 27-60 60-60z"/>
    <path fill="#FEFEFE" d="M123 55c37 0 66 29 66 66 0 36-29 66-66 66-36 0-66-30-66-66 0-37 30-66 66-66zm0 6c33 0 60 27 60 60s-27 60-60 60-60-27-60-60 27-60 60-60z"/>
    <circle fill="#FEFEFE" cx="102" cy="102" r="10"/>
    <circle fill="#FEFEFE" cx="140" cy="102" r="10"/>
    <circle fill="#FEFEFE" cx="102" cy="140" r="10"/>
    <circle fill="#FEFEFE" cx="140" cy="140" r="10"/>
    <path fill="#FEFEFE" d="M123 40c33 0 62 22 74 52-14-27-42-46-74-46S63 65 49 92c13-30 41-52 74-52z"/>
    <path fill="#FEFEFE" d="M192 147c-10 30-37 51-69 51s-59-21-69-51c11 27 38 46 69 46s58-19 69-46z"/>
    <path fill="#AA437B" d="M301 95c2 0 3 1 5 3 1 1 3 3 3 4 1 2 2 3 2 5 1 2 1 4 1 6 0 3-1 6-2 9s-3 5-5 7c-3 2-5 4-8 5-4 1-7 1-10 1h-27c-3 0-4 0-5-1s-2-3-2-5V67c0-2 1-4 2-5s2-1 5-1h26c3 0 6 0 9 1 3 0 5 2 7 3 2 2 4 4 5 6s2 5 2 9c0 3-1 5-2 8-2 3-4 5-6 6v1zm-6 17c0-3-1-6-2-7-2-2-5-3-8-3h-15v19h15c2 0 4 0 5-1 1 0 2-1 3-2s2-2 2-3v-3zm-25-23h17c1-1 2-1 3-1 0-1 1-2 1-3 1-1 1-2 1-3 0-2-1-4-2-5-1-2-3-2-5-2h-15v14z"/>
    <path fill="#AA437B" d="M365 120h-24l-5 13c0 1 0 2-1 2h-15c-1-1-1-1-1-2l23-67c0-1 0-2 1-2 0-1 1-2 1-2 1-1 2-1 3-1h12c1 0 1 0 2 1 1 0 1 1 2 1 0 1 1 2 1 3l22 67v2h-16l-1-1-4-14zm-21-13h17l-4-14-4-15h-1l-4 15-4 14z"/>
    <path fill="#AA437B" d="M451 70c0 2-1 3-1 5-1 1-2 2-3 4l-35 42 1 1h38v13h-54c-2 0-3 0-4-1-2-1-2-2-2-4v-3c0-2 0-3 1-4 0-2 1-3 2-4l36-44h-32c-1 0-2-1-2-3v-9-2h48c3 0 4 0 5 1s2 2 2 5v3z"/>
    <path fill="#AA437B" d="M502 120h-25l-4 13c0 1 0 2-1 2h-16v-2l22-67c1-1 1-2 2-2 0-1 1-2 1-2 1-1 2-1 2-1h13c1 0 1 0 2 1 1 0 1 1 2 1 0 1 1 2 1 3l22 67v2h-16l-1-1-4-14zm-21-13h17l-4-14-4-15h-1l-4 15-4 14z"/>
    <path fill="#AA437B" d="M572 120h-25l-4 13c0 1 0 2-1 2h-16v-2l22-67c1-1 1-2 2-2 0-1 1-2 1-2 1-1 1-1 2-1h13s1 0 2 1l1 1c1 1 1 2 2 3l22 67v2h-16c-1 0-1-1-1-1l-4-14zm-21-13h17l-4-14-4-15h-1l-4 15-4 14z"/>
    <path fill="#AA437B" d="M649 100c3 2 5 3 6 5s1 4 2 7l5 21c1 0 1 1 0 2h-15c-1 0-1-1-2-2l-4-19c-1-3-3-5-4-7-2-1-5-2-8-2h-10v28c0 1 0 2-1 2h-15s-1-1-1-2V67c0-2 1-4 2-5s2-1 5-1h26c8 0 14 2 18 6 4 3 6 9 6 15 0 4-1 7-2 11-2 3-4 5-8 7zm-6-17c0-1 0-1-1-2 0-1-1-2-1-3-1-1-2-2-3-2-1-1-3-1-5-1h-14v17h14c3 0 6-1 7-2 2-2 3-4 3-7z"/>
    <path fill="#AA437B" d="M702 109v1c0 1-1 1-2 1h-27c-1 0-1 0-1-1-1 0-1-1-1-1V99c0-1 0-1 1-2h30v12z"/>
    <path fill="#AA437B" d="M762 73c0 1-1 2-2 2h-20v60h-16V75h-19c-1 0-2-1-2-2V63v-2h58c1 1 1 1 1 2v10z"/>
    <path fill="#AA437B" d="M824 133v2h-33c-4 0-8 0-10-1-3-1-5-3-6-5-2-2-3-4-3-6-1-2-1-5-1-7V80c0-2 0-5 1-7l3-6c2-2 4-4 6-5 3-1 6-1 9-1h33v13c-1 1-1 1-2 1h-27c-3 0-5 0-6 2 0 1-1 2-1 4v8h31c1 0 1 1 1 1 1 0 1 1 1 2v8c0 1 0 2-1 2 0 1 0 1-1 1h-31v12c0 2 1 4 2 5s3 1 5 1h28c1 0 2 1 2 1v11z"/>
    <path fill="#AA437B" d="M861 110l-13 23c0 1-1 2-2 2h-16-1v-2l23-36-21-34v-2h17l2 2 11 21 12-21c0-1 1-2 2-2h16v2l-21 34 23 36v2h-17c-1 0-1-1-2-2l-13-23z"/>
    <path fill="#727271" d="M264 188v1h-4-1v-28h-10-1v-4c0-1 1-1 1-1h25c1 0 1 0 1 1v4h-11v27z"/>
    <path fill="#727271" d="M291 188s0 1-1 1h-4c-1 0-1-1-1-1v-31s0-1 1-1h4c1 0 1 1 1 1v12h7s1 0 1-1c1 0 1 0 2-1 0-1 1-1 1-2l2-8c1 0 1-1 1-1h4v1h1l-3 8c0 2-1 3-1 4-1 1-2 2-3 2 2 1 3 2 3 3 1 1 2 2 2 3l3 11v1h-4-1v-1l-3-10c-1-2-1-3-3-3-1-1-2-1-3-1h-6v14z"/>
    <path fill="#727271" d="M348 186c0 1-1 1-1 2-2 0-4 1-6 1-3 0-5 1-7 1s-5-1-6-1c-2-1-3-2-4-2-1-1-2-3-2-4-1-1-1-2-1-4 0-1 0-3 1-4 0-1 1-2 2-3s2-2 4-3 4-1 7-1h7v-1-3c0-1-1-1-1-2-1-1-2-1-3-1 0-1-2-1-3-1-2 0-3 0-5 1-2 0-3 0-4 1h-1v-1l-1-3s0-1 1-1 3-1 5-1h6c4 0 7 0 9 2s3 5 3 8v20zm-6-13h-10c-1 0-2 0-3 1l-2 2c0 1-1 2-1 3s1 2 1 3 1 2 2 2c0 0 1 1 2 1h9c1-1 1-1 2-1v-11z"/>
    <path fill="#727271" d="M366 188v1h-4-1v-32-1h5v13h17v-12-1h5v33h-5v-15h-17v14z"/>
    <path fill="#727271" d="M401 157s0-1 1-1h5v25c1-1 2-3 3-4s2-3 3-4l9-15c0-1 1-1 1-1 1-1 1-1 2-1h2s1 0 1 1c1 0 1 1 1 2v30h-5v-25h-1c0 1-1 2-1 2 0 1-1 2-1 2-1 1-1 2-2 2 0 1 0 2-1 2l-10 15c0 1-1 1-1 2h-3c-1 0-1 0-2-1l-1-1v-30z"/>
    <path fill="#727271" d="M476 157v-1h5l1 1v24c1-1 2-3 2-4 1-1 2-3 3-4l10-15c0-1 0-1 1-1 0-1 1-1 2-1h1c1 0 2 0 2 1 0 0 1 1 1 2v29s0 1-1 1h-4c-1 0-1-1-1-1v-24c-1 1-1 2-1 2-1 1-1 2-2 2 0 1 0 2-1 2 0 1-1 2-1 2l-10 15c0 1-1 1-1 2h-3c-1 0-2 0-2-1-1 0-1-1-1-1v-30z"/>
    <path fill="#727271" d="M571 156c3 0 5 0 7 1s4 2 5 3c2 2 3 3 4 6 0 2 1 4 1 7 0 2 0 4-1 6s-2 4-3 5c-2 2-3 3-5 4s-5 1-8 2v11c0 1 0 1-1 1h-3s-1 0-1-1v-11c-3-1-5-1-7-2s-4-2-5-4c-2-1-3-3-3-5-1-2-1-4-1-6 0-3 0-5 1-7 1-3 2-4 3-6 2-1 3-2 5-3s5-1 7-1v-12c0-1 1-1 1-1h3c1 0 1 0 1 1v12zm12 17c0-4-1-7-3-9s-5-3-9-4v25c2 0 4 0 6-1l3-3c1-1 2-2 2-4 0-1 1-3 1-4zm-28 0v4c1 2 2 3 2 4 1 1 3 2 4 3s3 1 5 1v-25c-4 1-7 2-8 4-2 2-3 5-3 9z"/>
    <path fill="#727271" d="M613 194c-1 3-2 5-3 6-2 1-4 2-6 2h-2c-1 0-2 0-3-1-1 0-1 0-1-1l1-2v-1h2c1 0 1 1 2 1s2-1 3-1c1-1 2-2 2-4 0 0 1 0 1-1v-1c0-1 1-1 1-1v-1h-1c-1 0-1 0-2-1l-1-2-9-29c-1-1 0-1 0-1h4c1 0 1 0 1 1 0 0 0 1 1 2 0 0 0 1 1 3 0 1 0 2 1 3 0 2 1 3 1 4s1 2 1 3 0 1 1 2l3 11c0-1 0-1 1-3 0-1 1-2 1-3 0-2 1-3 1-4 1-1 1-2 1-2v-1s1-1 1-2 1-3 1-4c1-1 1-2 1-3 1-2 1-3 2-4v-2c0-1 1-1 1-1h4c1 0 1 0 1 1l-13 37z"/>
    <path fill="#727271" d="M664 173c0 2-1 4-1 6l-3 6c-1 1-3 2-4 3-2 1-4 2-7 2-1 0-2 0-3-1h-5v12c0 1 0 1-1 1h-3c-1 0-1 0-1-1v-42-1c3-1 5-2 7-2h6c3 0 5 0 7 1s3 2 4 3l3 6c0 2 1 4 1 7zm-6 0c0-3 0-5-1-6 0-2-1-3-2-4 0-1-1-2-3-2-1-1-2-1-4-1-1 0-2 0-3 1h-4v23c2 0 3 1 4 1h3c2 0 3 0 4-1 1 0 3-1 3-2 1-1 2-2 2-4 1-1 1-3 1-5z"/>
    <path fill="#727271" d="M681 188v1h-4-1v-32-1h5v13h16v-12s1 0 1-1h5v33h-5l-1-1v-14h-16v14z"/>
    <path fill="#727271" d="M716 157s0-1 1-1h4c1 0 1 1 1 1v24c1-1 2-3 3-4 0-1 1-3 2-4l10-15c0-1 1-1 1-1 0-1 1-1 2-1h1c1 0 2 0 2 1 1 0 1 1 1 2v30h-5l-1-1v-24c0 1-1 2-1 2-1 1-1 2-1 2-1 1-1 2-2 2 0 1-1 2-1 2l-10 15c0 1-1 1-1 2h-3c-1 0-2 0-2-1l-1-1v-30z"/>
    <path fill="#727271" d="M770 188v1h-5v-28h-10-1v-4c0-1 1-1 1-1h25c1 0 1 0 1 1v4h-11v27z"/>
    <path fill="#727271" d="M804 194c-1 3-2 5-3 6-2 1-4 2-6 2h-2c-1 0-2 0-3-1-1 0-1 0-1-1l1-2v-1h3s0 1 1 1 3-1 3-1c1-1 2-2 3-4v-1-1l1-1v-1h-1c-1 0-1 0-2-1l-1-2-9-29v-1h4c1 0 1 0 1 1 0 0 1 1 1 2 0 0 0 1 1 3 0 1 1 2 1 3 0 2 1 3 1 4 1 1 1 2 1 3s1 1 1 2l3 11c0-1 1-1 1-3 0-1 1-2 1-3 1-2 1-3 1-4 1-1 1-2 1-2v-1s1-1 1-2 1-3 1-4c1-1 1-2 2-3 0-2 0-3 1-4v-2l1-1h4c1 0 1 0 1 1l-13 37z"/>
    <path fill="#727271" d="M855 173c0 2 0 4-1 6l-3 6c-1 1-2 2-4 3s-4 2-7 2c-1 0-2 0-3-1h-5v12c0 1 0 1-1 1h-3s-1 0-1-1v-42c0-1 0-1 1-1 2-1 4-2 6-2h6c3 0 5 0 7 1s3 2 4 3c2 2 2 4 3 6s1 4 1 7zm-6 0c0-3 0-5-1-6 0-2-1-3-1-4-1-1-2-2-4-2-1-1-2-1-4-1-1 0-2 0-3 1h-4v23c2 0 3 1 4 1h4c1 0 2 0 3-1 2 0 3-1 3-2 1-1 2-2 2-4 1-1 1-3 1-5z"/>
    <path fill="#727271" d="M892 186c0 1 0 1-1 2-1 0-3 1-6 1-2 0-4 1-6 1-3 0-5-1-7-1-1-1-3-2-4-2-1-1-1-3-2-4v-4-4l3-3c1-1 2-2 4-3s4-1 6-1h8v-1-3c-1-1-1-1-1-2-1-1-2-1-3-1-1-1-2-1-4-1-1 0-3 0-4 1-2 0-3 0-4 1h-1v-1l-1-3v-1c2 0 4-1 6-1h5c5 0 8 0 10 2 1 2 2 5 2 8v20zm-5-13h-10c-1 0-2 0-3 1-1 0-1 1-2 2s-1 2-1 3 0 2 1 3c0 1 1 2 1 2 1 0 2 1 3 1h9c0-1 1-1 2-1v-11z"/>
</svg>
